SplineFontDB: 3.0
FontName: JudsonBold
FullName: Judson Bold
FamilyName: Judson
Weight: Bold
Copyright: Copyright (c) 2010, 2011, 2013 by Daniel Johnson. Released under the terms of the SIL Open Font License.
Version: 20130906
ItalicAngle: 0
UnderlinePosition: -204
UnderlineWidth: 102
Ascent: 1638
Descent: 410
LayerCount: 2
Layer: 0 0 "Back"  1
Layer: 1 1 "Fore"  0
XUID: [1021 338 342 11821]
FSType: 0
OS2Version: 2
OS2_WeightWidthSlopeOnly: 0
OS2_UseTypoMetrics: 1
CreationTime: 1278388800
ModificationTime: 1378425600
PfmFamily: 17
TTFWeight: 700
TTFWidth: 5
LineGap: 0
VLineGap: 0
Panose: 2 0 8 3 0 0 0 0 0 0
OS2TypoAscent: 1860
OS2TypoAOffset: 0
OS2TypoDescent: -522
OS2TypoDOffset: 0
OS2TypoLinegap: 0
OS2WinAscent: 1860
OS2WinAOffset: 0
OS2WinDescent: 522
OS2WinDOffset: 0
HheadAscent: 1860
HheadAOffset: 0
HheadDescent: -522
HheadDOffset: 0
OS2SubXSize: 1331
OS2SubYSize: 1432
OS2SubXOff: 0
OS2SubYOff: 287
OS2SupXSize: 1331
OS2SupYSize: 1432
OS2SupXOff: 0
OS2SupYOff: 981
OS2StrikeYSize: 100
OS2StrikeYPos: 528
OS2Vendor: 'PfEd'
OS2CodePages: 00000093.00000000
OS2UnicodeRanges: a00000ff.5000000b.00000000.00000000
Lookup: 4 0 0 "'ccmp' Glyph Composition"  {"'ccmp' Glyph Composition Subtable"  } ['ccmp' ('DFLT' <'dflt' > 'grek' <'dflt' > 'latn' <'ENG ' 'FOS ' 'ISL ' 'ISM ' 'LSM ' 'NSM ' 'SKS ' 'SVE ' 'dflt' > ) ]
Lookup: 1 0 0 "'ss05' Binocular g"  {"'ss05' Binocular g subtable"  } ['ss05' ('DFLT' <'dflt' > 'latn' <'dflt' > ) ]
Lookup: 1 0 0 "'ss06' T with right-hook"  {"'ss06' T with right-hook subtable"  } ['ss06' ('DFLT' <'dflt' > 'latn' <'dflt' > ) ]
Lookup: 1 0 0 "'ss07' Reversed-Sigma Ezh"  {"'ss07' Reversed-Sigma Ezh subtable"  } ['ss07' ('DFLT' <'dflt' > 'latn' <'dflt' > ) ]
Lookup: 1 0 0 "'ss08' Z with top-hook"  {"'ss08' Z with top-hook subtable"  } ['ss08' ('DFLT' <'dflt' > 'latn' <'dflt' > ) ]
Lookup: 1 0 0 "'ss09' D with stroke through bowl"  {"'ss09' D with stroke through bowl subtable"  } ['ss09' ('DFLT' <'dflt' > 'latn' <'dflt' > ) ]

StartChar: .notdef
Encoding: 65536 -1 0
Width: 1052
Flags: MW
LayerCount: 2
Fore
SplineSet
117 0 m 1,0,-1
 117 1092 l 1,1,-1
 936 1092 l 1,2,-1
 936 0 l 1,3,-1
 117 0 l 1,0,-1
219 102 m 1,4,-1
 834 102 l 1,5,-1
 834 989 l 1,6,-1
 219 989 l 1,7,-1
 219 102 l 1,4,-1
EndSplineSet
Validated: 1
EndChar

StartChar: exclam
Encoding: 33 33 2
Width: 481
Flags: MW
LayerCount: 2
Fore
SplineSet
146.5 14 m 128,-1,1
 100 48 100 48 100 107 c 128,-1,2
 100 166 100 166 142.5 202 c 128,-1,3
 185 238 185 238 237 238 c 128,-1,4
 289 238 289 238 336 204 c 128,-1,5
 383 170 383 170 383 111.5 c 128,-1,6
 383 53 383 53 340 16.5 c 128,-1,7
 297 -20 297 -20 245 -20 c 128,-1,0
 193 -20 193 -20 146.5 14 c 128,-1,1
240 422 m 128,-1,9
 216 422 216 422 193.5 475.5 c 128,-1,10
 171 529 171 529 158 627 c 0,11,12
 104 1018 104 1018 104 1151 c 0,13,14
 104 1220 104 1220 147 1255 c 128,-1,15
 190 1290 190 1290 240 1290 c 128,-1,16
 290 1290 290 1290 332.5 1255 c 128,-1,17
 375 1220 375 1220 375 1149 c 128,-1,18
 375 1078 375 1078 353 883.5 c 128,-1,19
 331 689 331 689 320 609 c 128,-1,20
 309 529 309 529 286.5 475.5 c 128,-1,8
 264 422 264 422 240 422 c 128,-1,9
EndSplineSet
Validated: 1
EndChar

StartChar: quotedbl
Encoding: 34 34 3
Width: 727
Flags: MW
LayerCount: 2
Fore
SplineSet
543 766 m 128,-1,1
 512 766 512 766 466 969 c 128,-1,2
 420 1172 420 1172 420 1270 c 0,3,4
 420 1314 420 1314 458 1338 c 128,-1,5
 496 1362 496 1362 543 1362 c 128,-1,6
 590 1362 590 1362 628 1338 c 128,-1,7
 666 1314 666 1314 666 1270 c 0,8,9
 666 1171 666 1171 620 968.5 c 128,-1,0
 574 766 574 766 543 766 c 128,-1,1
184 766 m 128,-1,11
 153 766 153 766 107 969 c 128,-1,12
 61 1172 61 1172 61 1270 c 0,13,14
 61 1314 61 1314 99 1338 c 128,-1,15
 137 1362 137 1362 184 1362 c 128,-1,16
 231 1362 231 1362 269 1338 c 128,-1,17
 307 1314 307 1314 307 1270 c 0,18,19
 307 1171 307 1171 261 968.5 c 128,-1,10
 215 766 215 766 184 766 c 128,-1,11
EndSplineSet
Validated: 1
EndChar

StartChar: numbersign
Encoding: 35 35 4
Width: 1024
Flags: MW
LayerCount: 2
Fore
SplineSet
932 471 m 1,0,-1
 932 401 l 1,1,-1
 707 401 l 1,2,-1
 651 0 l 1,3,-1
 528 0 l 1,4,-1
 584 401 l 1,5,-1
 369 401 l 1,6,-1
 313 0 l 1,7,-1
 190 0 l 1,8,-1
 246 401 l 1,9,-1
 61 401 l 1,10,-1
 61 471 l 1,11,-1
 256 471 l 1,12,-1
 293 729 l 1,13,-1
 92 729 l 1,14,-1
 92 799 l 1,15,-1
 303 799 l 1,16,-1
 358 1198 l 1,17,-1
 481 1198 l 1,18,-1
 426 799 l 1,19,-1
 641 799 l 1,20,-1
 696 1198 l 1,21,-1
 819 1198 l 1,22,-1
 764 799 l 1,23,-1
 963 799 l 1,24,-1
 963 729 l 1,25,-1
 754 729 l 1,26,-1
 717 471 l 1,27,-1
 932 471 l 1,0,-1
379 471 m 1,28,-1
 594 471 l 1,29,-1
 631 729 l 1,30,-1
 416 729 l 1,31,-1
 379 471 l 1,28,-1
EndSplineSet
Validated: 1
EndChar

StartChar: dollar
Encoding: 36 36 5
Width: 907
Flags: MW
LayerCount: 2
Fore
SplineSet
94 115 m 1,0,-1
 94 324 l 1,1,-1
 139 324 l 1,2,3
 151 252 151 252 199 190 c 0,4,5
 287 77 287 77 416 53 c 1,6,-1
 416 489 l 1,7,-1
 352 532 l 1,8,9
 96 708 96 708 96 901 c 0,10,11
 96 1021 96 1021 194.5 1118.5 c 128,-1,12
 293 1216 293 1216 416 1219 c 1,13,-1
 416 1290 l 1,14,-1
 498 1290 l 1,15,-1
 498 1212 l 1,16,17
 557 1202 557 1202 613 1178 c 0,18,19
 669 1154 669 1154 695 1134 c 2,20,-1
 721 1114 l 1,21,-1
 737 889 l 1,22,-1
 692 889 l 1,23,24
 683 954 683 954 624.5 1025.5 c 128,-1,25
 566 1097 566 1097 498 1130 c 1,26,-1
 498 739 l 1,27,-1
 557 700 l 2,28,29
 726 590 726 590 788 496 c 0,30,31
 846 408 846 408 846 319 c 128,-1,32
 846 230 846 230 815 170 c 0,33,34
 784 108 784 108 733 70 c 0,35,36
 629 -8 629 -8 498 -18 c 1,37,-1
 498 -86 l 1,38,-1
 416 -86 l 1,39,-1
 416 -18 l 1,40,41
 256 -8 256 -8 142 72 c 0,42,43
 116 90 116 90 94 115 c 1,0,-1
416 793 m 1,44,-1
 416 1149 l 1,45,46
 338 1145 338 1145 298 1087 c 128,-1,47
 258 1029 258 1029 258 977.5 c 128,-1,48
 258 926 258 926 299.5 884.5 c 128,-1,49
 341 843 341 843 416 793 c 1,44,-1
498 436 m 1,50,-1
 498 53 l 1,51,52
 570 65 570 65 613.5 117.5 c 128,-1,53
 657 170 657 170 657 232 c 128,-1,54
 657 294 657 294 615.5 339 c 128,-1,55
 574 384 574 384 498 436 c 1,50,-1
EndSplineSet
Validated: 1
EndChar

StartChar: percent
Encoding: 37 37 6
Width: 1105
Flags: MW
LayerCount: 2
Fore
SplineSet
940 1157 m 1,0,-1
 250 41 l 1,1,-1
 168 41 l 1,2,-1
 858 1157 l 1,3,-1
 940 1157 l 1,0,-1
231 954 m 128,-1,5
 231 882 231 882 253 828 c 128,-1,6
 275 774 275 774 309 774 c 128,-1,7
 343 774 343 774 365 828 c 0,8,9
 387 882 387 882 387 954 c 128,-1,10
 387 1026 387 1026 365 1080.5 c 128,-1,11
 343 1135 343 1135 309 1135 c 128,-1,12
 275 1135 275 1135 253 1080.5 c 128,-1,4
 231 1026 231 1026 231 954 c 128,-1,5
59 954 m 128,-1,14
 59 1055 59 1055 139 1129.5 c 128,-1,15
 219 1204 219 1204 309 1204 c 128,-1,16
 399 1204 399 1204 479 1129.5 c 128,-1,17
 559 1055 559 1055 559 954 c 128,-1,18
 559 853 559 853 479 779 c 128,-1,19
 399 705 399 705 309 705 c 128,-1,20
 219 705 219 705 139 779 c 128,-1,13
 59 853 59 853 59 954 c 128,-1,14
719 244 m 128,-1,22
 719 172 719 172 741 117.5 c 128,-1,23
 763 63 763 63 797 63 c 128,-1,24
 831 63 831 63 852.5 117.5 c 128,-1,25
 874 172 874 172 874 244 c 128,-1,26
 874 316 874 316 852.5 370 c 128,-1,27
 831 424 831 424 797 424 c 128,-1,28
 763 424 763 424 741 370 c 128,-1,21
 719 316 719 316 719 244 c 128,-1,22
547 244 m 128,-1,30
 547 345 547 345 627 419.5 c 128,-1,31
 707 494 707 494 797 494 c 128,-1,32
 887 494 887 494 967 419.5 c 128,-1,33
 1047 345 1047 345 1047 244 c 128,-1,34
 1047 143 1047 143 967 68.5 c 128,-1,35
 887 -6 887 -6 797 -6 c 128,-1,36
 707 -6 707 -6 627 68.5 c 128,-1,29
 547 143 547 143 547 244 c 128,-1,30
EndSplineSet
Validated: 1
EndChar

StartChar: ampersand
Encoding: 38 38 7
Width: 1243
Flags: MW
LayerCount: 2
Fore
SplineSet
664.5 1092 m 128,-1,1
 639 1147 639 1147 597 1147 c 128,-1,2
 555 1147 555 1147 519 1092 c 128,-1,3
 483 1037 483 1037 483 952 c 128,-1,4
 483 867 483 867 532 731 c 1,5,6
 690 842 690 842 690 961 c 0,7,0
 690 1037 690 1037 664.5 1092 c 128,-1,1
1188 707 m 1,8,-1
 1188 664 l 1,9,10
 1070 664 1070 664 1059 623 c 1,11,12
 964 330 964 330 846 178 c 1,13,14
 928 90 928 90 995.5 90 c 128,-1,15
 1063 90 1063 90 1094 105 c 128,-1,16
 1125 120 1125 120 1157 166 c 1,17,-1
 1182 145 l 1,18,19
 1136 23 1136 23 1053 -7 c 0,20,21
 1017 -20 1017 -20 971 -20 c 0,22,23
 858 -20 858 -20 737 70 c 1,24,25
 616 -20 616 -20 469 -20 c 0,26,27
 39 -20 39 -20 39 261 c 0,28,29
 39 423 39 423 260 565 c 0,30,31
 298 589 298 589 356 623 c 1,32,33
 266 839 266 839 266 971 c 0,34,35
 266 1036 266 1036 288.5 1084 c 128,-1,36
 311 1132 311 1132 341.5 1157 c 128,-1,37
 372 1182 372 1182 415 1197 c 0,38,39
 478 1219 478 1219 565 1219 c 128,-1,40
 652 1219 652 1219 714 1148.5 c 128,-1,41
 776 1078 776 1078 776 985 c 0,42,43
 776 871 776 871 712 788 c 0,44,45
 657 716 657 716 565 649 c 1,46,47
 657 422 657 422 795 240 c 1,48,49
 906 402 906 402 965 625 c 1,50,51
 948 664 948 664 836 664 c 1,52,-1
 836 707 l 1,53,-1
 1188 707 l 1,8,-1
682 117 m 1,54,55
 526 264 526 264 397 528 c 1,56,57
 335 479 335 479 307 431.5 c 128,-1,58
 279 384 279 384 279 315 c 0,59,60
 279 195 279 195 359 130.5 c 128,-1,61
 439 66 439 66 527.5 66 c 128,-1,62
 616 66 616 66 682 117 c 1,54,55
EndSplineSet
Validated: 1
EndChar

StartChar: quotesingle
Encoding: 39 39 8
Width: 368
Flags: MW
LayerCount: 2
Fore
SplineSet
184 766 m 128,-1,1
 153 766 153 766 107 969 c 128,-1,2
 61 1172 61 1172 61 1270 c 0,3,4
 61 1314 61 1314 99 1338 c 128,-1,5
 137 1362 137 1362 184 1362 c 128,-1,6
 231 1362 231 1362 269 1338 c 128,-1,7
 307 1314 307 1314 307 1270 c 0,8,9
 307 1171 307 1171 261 968.5 c 128,-1,0
 215 766 215 766 184 766 c 128,-1,1
EndSplineSet
Validated: 1
EndChar

StartChar: parenleft
Encoding: 40 40 9
Width: 514
Flags: MW
LayerCount: 2
Fore
SplineSet
432 -80 m 0,0,1
 432 -102 432 -102 409 -102 c 128,-1,2
 386 -102 386 -102 343 -55 c 128,-1,3
 300 -8 300 -8 238 88.5 c 128,-1,4
 176 185 176 185 118.5 340.5 c 128,-1,5
 61 496 61 496 61 644 c 128,-1,6
 61 792 61 792 119 948 c 0,7,8
 176 1100 176 1100 240 1201 c 0,9,10
 364 1393 364 1393 414 1393 c 0,11,12
 432 1393 432 1393 432 1370 c 0,13,14
 432 1368 432 1368 424 1354 c 0,15,16
 366 1256 366 1256 330.5 1031.5 c 128,-1,17
 295 807 295 807 295 645 c 128,-1,18
 295 483 295 483 322.5 309.5 c 128,-1,19
 350 136 350 136 371 69 c 128,-1,20
 392 2 392 2 404 -24.5 c 128,-1,21
 416 -51 416 -51 424 -64.5 c 128,-1,22
 432 -78 432 -78 432 -80 c 0,0,1
EndSplineSet
Validated: 1
EndChar

StartChar: parenright
Encoding: 41 41 10
Width: 512
Flags: MW
LayerCount: 2
Fore
SplineSet
80 1370 m 0,0,1
 80 1393 80 1393 98 1393 c 0,2,3
 148 1393 148 1393 242 1249 c 0,4,5
 451 929 451 929 451 645 c 0,6,7
 451 498 451 498 393 342 c 0,8,9
 334 186 334 186 272 89 c 0,10,11
 149 -102 149 -102 98 -102 c 0,12,13
 80 -102 80 -102 80 -80 c 0,14,15
 80 -78 80 -78 88 -64 c 0,16,17
 146 33 146 33 181.5 258 c 128,-1,18
 217 483 217 483 217 645 c 128,-1,19
 217 807 217 807 189.5 981 c 128,-1,20
 162 1155 162 1155 141 1222 c 128,-1,21
 120 1289 120 1289 108 1315 c 128,-1,22
 96 1341 96 1341 88 1354.5 c 128,-1,23
 80 1368 80 1368 80 1370 c 0,0,1
EndSplineSet
Validated: 1
EndChar

StartChar: asterisk
Encoding: 42 42 11
Width: 720
Flags: MW
LayerCount: 2
Fore
SplineSet
325.5 824 m 128,-1,1
 317 773 317 773 301.5 753 c 128,-1,2
 286 733 286 733 251.5 733 c 128,-1,3
 217 733 217 733 183.5 763 c 128,-1,4
 150 793 150 793 150 820.5 c 128,-1,5
 150 848 150 848 162 865.5 c 128,-1,6
 174 883 174 883 237.5 913.5 c 128,-1,7
 301 944 301 944 324 946 c 1,8,9
 305 962 305 962 305 974.5 c 128,-1,10
 305 987 305 987 306 991 c 128,-1,11
 307 995 307 995 307 997 c 1,12,13
 290 987 290 987 233.5 975 c 128,-1,14
 177 963 177 963 146 963 c 128,-1,15
 115 963 115 963 98.5 984 c 128,-1,16
 82 1005 82 1005 82 1040 c 128,-1,17
 82 1075 82 1075 107 1108 c 128,-1,18
 132 1141 132 1141 164 1141 c 0,19,20
 194 1141 194 1141 247.5 1085.5 c 128,-1,21
 301 1030 301 1030 309 1008 c 1,22,23
 322 1034 322 1034 354 1038 c 1,24,25
 337 1050 337 1050 302.5 1114 c 128,-1,26
 268 1178 268 1178 268 1204.5 c 128,-1,27
 268 1231 268 1231 293.5 1250.5 c 128,-1,28
 319 1270 319 1270 357.5 1270 c 128,-1,29
 396 1270 396 1270 422.5 1250.5 c 128,-1,30
 449 1231 449 1231 449 1204.5 c 128,-1,31
 449 1178 449 1178 414 1114 c 128,-1,32
 379 1050 379 1050 362 1038 c 1,33,34
 395 1035 395 1035 408 1006 c 1,35,36
 413 1025 413 1025 464 1078 c 128,-1,37
 515 1131 515 1131 533 1136 c 128,-1,38
 551 1141 551 1141 557 1141 c 0,39,40
 588 1141 588 1141 612.5 1109 c 128,-1,41
 637 1077 637 1077 637 1042 c 128,-1,42
 637 1007 637 1007 620 985 c 128,-1,43
 603 963 603 963 571 963 c 128,-1,44
 539 963 539 963 481 975 c 128,-1,45
 423 987 423 987 410 997 c 1,46,47
 412 993 412 993 412 979 c 128,-1,48
 412 965 412 965 393 946 c 1,49,50
 416 946 416 946 481.5 914.5 c 128,-1,51
 547 883 547 883 559 865.5 c 128,-1,52
 571 848 571 848 571 821.5 c 128,-1,53
 571 795 571 795 536 764 c 128,-1,54
 501 733 501 733 465.5 733 c 128,-1,55
 430 733 430 733 416 753 c 128,-1,56
 402 773 402 773 393.5 826.5 c 128,-1,57
 385 880 385 880 385 908 c 128,-1,58
 385 936 385 936 387 940 c 1,59,60
 376 932 376 932 360 932 c 128,-1,61
 344 932 344 932 332 938 c 1,62,63
 334 932 334 932 334 903.5 c 128,-1,0
 334 875 334 875 325.5 824 c 128,-1,1
EndSplineSet
Validated: 1
EndChar

StartChar: plus
Encoding: 43 43 12
Width: 827
Flags: MW
LayerCount: 2
Fore
SplineSet
467 598 m 1,0,-1
 467 309 l 1,1,-1
 360 309 l 1,2,-1
 360 598 l 1,3,-1
 72 598 l 1,4,-1
 72 705 l 1,5,-1
 360 705 l 1,6,-1
 360 993 l 1,7,-1
 467 993 l 1,8,-1
 467 705 l 1,9,-1
 756 705 l 1,10,-1
 756 598 l 1,11,-1
 467 598 l 1,0,-1
EndSplineSet
Validated: 1
EndChar

StartChar: comma
Encoding: 44 44 13
Width: 458
Flags: MW
LayerCount: 2
Fore
SplineSet
227.5 -13.5 m 128,-1,1
 213 -20 213 -20 179.5 -20 c 128,-1,2
 146 -20 146 -20 115 10 c 128,-1,3
 84 40 84 40 84 94.5 c 128,-1,4
 84 149 84 149 126.5 181 c 128,-1,5
 169 213 169 213 209 213 c 0,6,7
 383 213 383 213 383 -12 c 0,8,9
 383 -113 383 -113 299 -190.5 c 128,-1,10
 215 -268 215 -268 113 -274 c 1,11,-1
 113 -201 l 1,12,13
 187 -183 187 -183 231.5 -133.5 c 128,-1,14
 276 -84 276 -84 276 -39 c 128,-1,15
 276 6 276 6 260 6 c 0,16,17
 258 6 258 6 250 -0.5 c 128,-1,0
 242 -7 242 -7 227.5 -13.5 c 128,-1,1
EndSplineSet
Validated: 1
EndChar

StartChar: hyphen
Encoding: 45 45 14
Width: 761
Flags: W
HStem: 488 90<111 651>
VStem: 111 540<488 578>
LayerCount: 2
Back
SplineSet
227 498 m 1
 47 498 l 1
 47 567 l 1
 227 567 l 1
EndSplineSet
Fore
SplineSet
111 578 m 1,0,-1
 651 578 l 1,1,-1
 651 488 l 1,2,-1
 111 488 l 1,3,-1
 111 578 l 1,0,-1
EndSplineSet
EndChar

StartChar: period
Encoding: 46 46 15
Width: 450
Flags: MW
LayerCount: 2
Fore
SplineSet
130 14 m 128,-1,1
 84 48 84 48 84 107 c 128,-1,2
 84 166 84 166 126 202 c 128,-1,3
 168 238 168 238 220 238 c 128,-1,4
 272 238 272 238 319.5 204 c 128,-1,5
 367 170 367 170 367 111.5 c 128,-1,6
 367 53 367 53 323.5 16.5 c 128,-1,7
 280 -20 280 -20 228 -20 c 128,-1,0
 176 -20 176 -20 130 14 c 128,-1,1
EndSplineSet
Validated: 1
EndChar

StartChar: slash
Encoding: 47 47 16
Width: 970
Flags: MW
LayerCount: 2
Fore
SplineSet
37 -20 m 1,0,-1
 834 1253 l 1,1,-1
 934 1217 l 1,2,-1
 137 -57 l 1,3,-1
 37 -20 l 1,0,-1
EndSplineSet
Validated: 1
EndChar

StartChar: zero
Encoding: 48 48 17
Width: 1003
VWidth: 0
Flags: MW
LayerCount: 2
Fore
SplineSet
333 805.5 m 128,-1,1
 326 715 326 715 326 598.5 c 128,-1,2
 326 482 326 482 333 391 c 128,-1,3
 340 300 340 300 358.5 217 c 128,-1,4
 377 134 377 134 413 88.5 c 128,-1,5
 449 43 449 43 502 43 c 128,-1,6
 555 43 555 43 591 88 c 0,7,8
 628 134 628 134 646 217 c 0,9,10
 678 363 678 363 678 539 c 128,-1,11
 678 715 678 715 671 805.5 c 128,-1,12
 664 896 664 896 645.5 980 c 128,-1,13
 627 1064 627 1064 591 1109.5 c 128,-1,14
 555 1155 555 1155 502 1155 c 128,-1,15
 449 1155 449 1155 413 1109.5 c 128,-1,16
 377 1064 377 1064 358.5 980 c 128,-1,0
 340 896 340 896 333 805.5 c 128,-1,1
61 598 m 128,-1,18
 61 765 61 765 112 905 c 128,-1,19
 163 1045 163 1045 265 1132 c 128,-1,20
 367 1219 367 1219 485.5 1219 c 128,-1,21
 604 1219 604 1219 688 1168.5 c 128,-1,22
 772 1118 772 1118 827 1032 c 0,23,24
 942 852 942 852 942 598 c 0,25,26
 942 431 942 431 891.5 292 c 128,-1,27
 841 153 841 153 739 66.5 c 128,-1,28
 637 -20 637 -20 502 -20 c 128,-1,29
 367 -20 367 -20 265 66.5 c 128,-1,30
 163 153 163 153 112 292 c 128,-1,17
 61 431 61 431 61 598 c 128,-1,18
EndSplineSet
Validated: 1
EndChar

StartChar: one
Encoding: 49 49 18
Width: 1003
VWidth: 0
Flags: MW
LayerCount: 2
Fore
SplineSet
692 1198 m 1,0,-1
 692 125 l 2,1,2
 692 81 692 81 760 62 c 128,-1,3
 828 43 828 43 911 43 c 1,4,-1
 911 0 l 1,5,-1
 219 0 l 1,6,-1
 219 43 l 1,7,8
 302 43 302 43 370 62 c 128,-1,9
 438 81 438 81 438 125 c 2,10,-1
 438 891 l 1,11,12
 327 817 327 817 254 762 c 1,13,-1
 240 797 l 1,14,-1
 604 1198 l 1,15,-1
 692 1198 l 1,0,-1
EndSplineSet
Validated: 1
EndChar

StartChar: two
Encoding: 50 50 19
Width: 1003
VWidth: 0
Flags: MW
LayerCount: 2
Fore
SplineSet
82 0 m 1,0,1
 82 56 82 56 276 272 c 0,2,3
 356 362 356 362 436 458 c 128,-1,4
 516 554 516 554 572.5 659.5 c 128,-1,5
 629 765 629 765 629 834.5 c 128,-1,6
 629 904 629 904 609.5 960.5 c 128,-1,7
 590 1017 590 1017 550.5 1056.5 c 128,-1,8
 511 1096 511 1096 451 1096 c 128,-1,9
 391 1096 391 1096 332 1075.5 c 128,-1,10
 273 1055 273 1055 238.5 1026.5 c 128,-1,11
 204 998 204 998 180 969 c 128,-1,12
 156 940 156 940 141 919.5 c 128,-1,13
 126 899 126 899 119 899 c 0,14,15
 102 899 102 899 102 917.5 c 128,-1,16
 102 936 102 936 117 969 c 128,-1,17
 132 1002 132 1002 166.5 1045.5 c 128,-1,18
 201 1089 201 1089 247.5 1127.5 c 128,-1,19
 294 1166 294 1166 366 1192.5 c 128,-1,20
 438 1219 438 1219 528 1219 c 0,21,22
 617 1218 617 1218 691 1192 c 0,23,24
 763 1167 763 1167 806 1122 c 0,25,26
 888 1034 888 1034 889 911 c 0,27,28
 889 789 889 789 714 590 c 0,29,30
 641 506 641 506 568 430 c 0,31,32
 393 247 393 247 393 209 c 1,33,-1
 764 209 l 2,34,35
 812 209 812 209 860 283 c 0,36,37
 864 290 864 290 881 315 c 1,38,-1
 922 315 l 1,39,-1
 868 0 l 1,40,-1
 82 0 l 1,0,1
EndSplineSet
Validated: 1
EndChar

StartChar: three
Encoding: 51 51 20
Width: 1003
VWidth: 0
Flags: MW
LayerCount: 2
Fore
SplineSet
434 590 m 2,0,1
 420 590 420 590 407.5 598.5 c 128,-1,2
 395 607 395 607 395 616 c 128,-1,3
 395 625 395 625 410 631 c 1,4,5
 498 658 498 658 550 721 c 128,-1,6
 602 784 602 784 602 883 c 128,-1,7
 602 982 602 982 555 1039 c 128,-1,8
 508 1096 508 1096 416 1096 c 0,9,10
 310 1096 310 1096 254 1040 c 0,11,12
 225 1011 225 1011 201.5 973.5 c 128,-1,13
 178 936 178 936 170 936 c 0,14,15
 154 936 154 936 154 954 c 128,-1,16
 154 972 154 972 164.5 1001.5 c 128,-1,17
 175 1031 175 1031 200.5 1069 c 128,-1,18
 226 1107 226 1107 261 1140 c 0,19,20
 345 1219 345 1219 477 1219 c 0,21,22
 670 1219 670 1219 760 1137 c 128,-1,23
 850 1055 850 1055 850 916 c 128,-1,24
 850 777 850 777 664 670 c 1,25,26
 762 644 762 644 833.5 555 c 128,-1,27
 905 466 905 466 905 385.5 c 128,-1,28
 905 305 905 305 895 252 c 0,29,30
 884 200 884 200 856 148 c 128,-1,31
 828 96 828 96 782 60 c 0,32,33
 679 -20 679 -20 483 -20 c 1,34,35
 400 -20 400 -20 323.5 0.5 c 128,-1,36
 247 21 247 21 200 49.5 c 128,-1,37
 153 78 153 78 125.5 105 c 128,-1,38
 98 132 98 132 98 147 c 0,39,40
 98 209 98 209 114 233.5 c 128,-1,41
 130 258 130 258 163.5 258 c 128,-1,42
 197 258 197 258 218 242 c 128,-1,43
 239 226 239 226 253.5 202 c 128,-1,44
 268 178 268 178 286 150 c 128,-1,45
 304 122 304 122 324 99 c 0,46,47
 370 43 370 43 455.5 43 c 128,-1,48
 541 43 541 43 602.5 112 c 128,-1,49
 664 181 664 181 664 312.5 c 128,-1,50
 664 444 664 444 620.5 517 c 128,-1,51
 577 590 577 590 494 590 c 2,52,-1
 434 590 l 2,0,1
EndSplineSet
Validated: 1
EndChar

StartChar: four
Encoding: 52 52 21
Width: 1003
VWidth: 0
Flags: MW
LayerCount: 2
Fore
SplineSet
365 43 m 1,0,1
 477 43 477 43 494 84 c 1,2,-1
 494 358 l 1,3,-1
 90 358 l 1,4,-1
 655 1198 l 1,5,-1
 750 1198 l 1,6,-1
 750 420 l 1,7,-1
 915 420 l 1,8,-1
 915 358 l 1,9,-1
 750 358 l 1,10,-1
 750 84 l 1,11,12
 767 43 767 43 879 43 c 1,13,-1
 879 0 l 1,14,-1
 365 0 l 1,15,-1
 365 43 l 1,0,1
494 420 m 1,16,-1
 494 846 l 1,17,-1
 205 420 l 1,18,-1
 494 420 l 1,16,-1
EndSplineSet
Validated: 1
EndChar

StartChar: five
Encoding: 53 53 22
Width: 1003
VWidth: 0
Flags: MW
LayerCount: 2
Fore
SplineSet
293 788 m 1,0,1
 668 785 668 785 826 593 c 0,2,3
 905 497 905 497 905 389 c 0,4,5
 905 163 905 163 786 62 c 0,6,7
 690 -20 690 -20 508 -20 c 0,8,9
 297 -20 297 -20 163 72 c 0,10,11
 98 117 98 117 98 147 c 0,12,13
 98 209 98 209 114 233.5 c 128,-1,14
 130 258 130 258 161.5 258 c 128,-1,15
 193 258 193 258 211.5 236 c 128,-1,16
 230 214 230 214 250 182 c 128,-1,17
 270 150 270 150 296 118 c 0,18,19
 359 43 359 43 476 43 c 0,20,21
 478 43 478 43 479 43 c 0,22,23
 664 43 664 43 664 352 c 0,24,25
 664 411 664 411 657 452.5 c 128,-1,26
 650 494 650 494 623 540 c 0,27,28
 596 588 596 588 548 616 c 0,29,30
 437 682 437 682 209 682 c 1,31,-1
 276 1198 l 1,32,-1
 848 1198 l 1,33,-1
 799 1022 l 1,34,-1
 324 1022 l 1,35,-1
 293 788 l 1,0,1
EndSplineSet
Validated: 1
EndChar

StartChar: six
Encoding: 54 54 23
Width: 1003
VWidth: 0
Flags: MW
LayerCount: 2
Fore
SplineSet
354 725 m 1,0,1
 426 758 426 758 506 758 c 0,2,3
 926 758 926 758 926 385 c 0,4,5
 926 199 926 199 812.5 89.5 c 128,-1,6
 699 -20 699 -20 507.5 -20 c 128,-1,7
 316 -20 316 -20 197 116 c 128,-1,8
 78 252 78 252 78 459 c 0,9,10
 78 778 78 778 302 1018 c 0,11,12
 412 1136 412 1136 567 1202 c 0,13,14
 631 1229 631 1229 686 1235 c 1,15,-1
 713 1165 l 1,16,17
 421 1092 421 1092 354 725 c 1,0,1
344 659 m 1,18,19
 334 583 334 583 334 411 c 128,-1,20
 334 239 334 239 379 142 c 128,-1,21
 424 45 424 45 514 45 c 0,22,23
 670 45 670 45 670 401 c 0,24,25
 670 520 670 520 661 553.5 c 128,-1,26
 652 587 652 587 640 613 c 0,27,28
 628 640 628 640 612 654 c 0,29,30
 573 688 573 688 488.5 688 c 128,-1,31
 404 688 404 688 344 659 c 1,18,19
EndSplineSet
Validated: 1
EndChar

StartChar: seven
Encoding: 55 55 24
Width: 1003
VWidth: 0
Flags: MW
LayerCount: 2
Fore
SplineSet
356 33 m 0,0,1
 356 116 356 116 408 272 c 0,2,3
 460 426 460 426 521 568 c 0,4,5
 686 945 686 945 686 1004 c 1,6,-1
 281 1004 l 2,7,8
 255 1004 255 1004 218 965 c 128,-1,9
 181 926 181 926 160 872 c 1,10,-1
 119 872 l 1,11,-1
 197 1198 l 1,12,-1
 885 1198 l 1,13,14
 884 1158 884 1158 708 714 c 0,15,16
 642 546 642 546 587 349.5 c 128,-1,17
 532 153 532 153 532 33 c 0,18,19
 532 14 532 14 507 -3 c 128,-1,20
 482 -20 482 -20 442 -20 c 128,-1,21
 402 -20 402 -20 379 -2.5 c 128,-1,22
 356 15 356 15 356 33 c 0,0,1
EndSplineSet
Validated: 1
EndChar

StartChar: eight
Encoding: 56 56 25
Width: 1003
VWidth: 0
Flags: MW
LayerCount: 2
Fore
SplineSet
586 698 m 1,0,1
 719 789 719 789 719 979 c 0,2,3
 719 1061 719 1061 658 1106 c 128,-1,4
 597 1151 597 1151 524 1151 c 0,5,6
 319 1151 319 1151 319 985 c 0,7,8
 319 907 319 907 435 812 c 0,9,10
 500 759 500 759 586 698 c 1,0,1
666 639 m 1,11,12
 777 555 777 555 841 472 c 128,-1,13
 905 389 905 389 905 282.5 c 128,-1,14
 905 176 905 176 787.5 78 c 128,-1,15
 670 -20 670 -20 493.5 -20 c 128,-1,16
 317 -20 317 -20 199.5 66.5 c 128,-1,17
 82 153 82 153 82 283 c 0,18,19
 82 478 82 478 334 614 c 1,20,21
 226 696 226 696 165 776.5 c 128,-1,22
 104 857 104 857 104 958.5 c 128,-1,23
 104 1060 104 1060 209 1134 c 128,-1,24
 314 1208 314 1208 485 1208 c 0,25,26
 885 1208 885 1208 885 963 c 0,27,28
 885 857 885 857 822.5 776 c 128,-1,29
 760 695 760 695 666 639 c 1,11,12
412 555 m 1,30,31
 250 467 250 467 250 266 c 0,32,33
 250 203 250 203 286 153 c 0,34,35
 386 69 386 69 463 57 c 1,36,37
 465 57 465 57 467 57 c 0,38,39
 589 57 589 57 642 112 c 0,40,41
 690 161 690 161 690 260 c 0,42,43
 690 309 690 309 661 344 c 128,-1,44
 632 379 632 379 616 396.5 c 128,-1,45
 600 414 600 414 562 444 c 0,46,47
 495 497 495 497 412 555 c 1,30,31
EndSplineSet
Validated: 1
EndChar

StartChar: nine
Encoding: 57 57 26
Width: 1003
VWidth: 0
Flags: MW
LayerCount: 2
Fore
SplineSet
649 473 m 1,0,1
 578 440 578 440 498 440 c 0,2,3
 78 440 78 440 78 813 c 0,4,5
 78 999 78 999 191 1109 c 128,-1,6
 304 1219 304 1219 495.5 1219 c 128,-1,7
 687 1219 687 1219 806.5 1082.5 c 128,-1,8
 926 946 926 946 926 739 c 0,9,10
 926 601 926 601 883 476 c 128,-1,11
 840 351 840 351 773 263.5 c 128,-1,12
 706 176 706 176 624 108 c 0,13,14
 468 -20 468 -20 317 -37 c 1,15,-1
 291 33 l 1,16,17
 583 106 583 106 649 473 c 1,0,1
659 539 m 1,18,19
 670 623 670 623 670 739 c 0,20,21
 670 959 670 959 624.5 1056 c 128,-1,22
 579 1153 579 1153 489 1153 c 0,23,24
 334 1153 334 1153 334 797 c 0,25,26
 334 678 334 678 343 644.5 c 128,-1,27
 352 611 352 611 364 585 c 0,28,29
 376 558 376 558 392 544 c 0,30,31
 431 510 431 510 515 510 c 128,-1,32
 599 510 599 510 659 539 c 1,18,19
EndSplineSet
Validated: 1
EndChar

StartChar: colon
Encoding: 58 58 27
Width: 503
Flags: MW
LayerCount: 2
Fore
SplineSet
157 14 m 128,-1,1
 111 48 111 48 111 107 c 128,-1,2
 111 166 111 166 153 202 c 128,-1,3
 195 238 195 238 247 238 c 128,-1,4
 299 238 299 238 346 204 c 128,-1,5
 393 170 393 170 393 111.5 c 128,-1,6
 393 53 393 53 350 16.5 c 128,-1,7
 307 -20 307 -20 255 -20 c 128,-1,0
 203 -20 203 -20 157 14 c 128,-1,1
157.5 689.5 m 128,-1,9
 111 724 111 724 111 783 c 128,-1,10
 111 842 111 842 153 877.5 c 128,-1,11
 195 913 195 913 247 913 c 128,-1,12
 299 913 299 913 346 879 c 128,-1,13
 393 845 393 845 393 786.5 c 128,-1,14
 393 728 393 728 350 691.5 c 128,-1,15
 307 655 307 655 255.5 655 c 128,-1,8
 204 655 204 655 157.5 689.5 c 128,-1,9
EndSplineSet
Validated: 1
EndChar

StartChar: semicolon
Encoding: 59 59 28
Width: 526
Flags: MW
LayerCount: 2
Fore
SplineSet
259.5 -13.5 m 128,-1,1
 245 -20 245 -20 211.5 -20 c 128,-1,2
 178 -20 178 -20 147.5 10 c 128,-1,3
 117 40 117 40 117 94.5 c 128,-1,4
 117 149 117 149 159.5 181 c 128,-1,5
 202 213 202 213 242 213 c 0,6,7
 416 213 416 213 416 -12 c 0,8,9
 416 -113 416 -113 331.5 -190.5 c 128,-1,10
 247 -268 247 -268 145 -274 c 1,11,-1
 145 -201 l 1,12,13
 219 -183 219 -183 264 -133.5 c 128,-1,14
 309 -84 309 -84 309 -39 c 128,-1,15
 309 6 309 6 293 6 c 0,16,17
 291 6 291 6 282.5 -0.5 c 128,-1,0
 274 -7 274 -7 259.5 -13.5 c 128,-1,1
163.5 689.5 m 128,-1,19
 117 724 117 724 117 783 c 128,-1,20
 117 842 117 842 159 877.5 c 128,-1,21
 201 913 201 913 253 913 c 128,-1,22
 305 913 305 913 352 879 c 128,-1,23
 399 845 399 845 399 786.5 c 128,-1,24
 399 728 399 728 356 691.5 c 128,-1,25
 313 655 313 655 261.5 655 c 128,-1,18
 210 655 210 655 163.5 689.5 c 128,-1,19
EndSplineSet
Validated: 1
EndChar

StartChar: less
Encoding: 60 60 29
Width: 962
Flags: MW
LayerCount: 2
Fore
SplineSet
59 702 m 1,0,-1
 834 1065 l 1,1,-1
 834 961 l 1,2,-1
 193 651 l 1,3,-1
 834 342 l 1,4,-1
 834 238 l 1,5,-1
 59 600 l 1,6,-1
 59 702 l 1,0,-1
EndSplineSet
Validated: 1
EndChar

StartChar: equal
Encoding: 61 61 30
Width: 995
Flags: MW
LayerCount: 2
Fore
SplineSet
125 584 m 1,0,-1
 870 584 l 1,1,-1
 870 473 l 1,2,-1
 125 473 l 1,3,-1
 125 584 l 1,0,-1
125 829 m 1,4,-1
 870 829 l 1,5,-1
 870 719 l 1,6,-1
 125 719 l 1,7,-1
 125 829 l 1,4,-1
EndSplineSet
Validated: 1
EndChar

StartChar: greater
Encoding: 62 62 31
Width: 962
Flags: MW
LayerCount: 2
Fore
SplineSet
903 600 m 1,0,-1
 129 238 l 1,1,-1
 129 342 l 1,2,-1
 770 651 l 1,3,-1
 129 961 l 1,4,-1
 129 1065 l 1,5,-1
 903 702 l 1,6,-1
 903 600 l 1,0,-1
EndSplineSet
Validated: 1
EndChar

StartChar: question
Encoding: 63 63 32
Width: 872
Flags: MW
LayerCount: 2
Fore
SplineSet
298 14 m 128,-1,1
 252 48 252 48 252 107 c 128,-1,2
 252 166 252 166 294 202 c 128,-1,3
 336 238 336 238 388 238 c 128,-1,4
 440 238 440 238 487.5 204 c 128,-1,5
 535 170 535 170 535 111.5 c 128,-1,6
 535 53 535 53 491.5 16.5 c 128,-1,7
 448 -20 448 -20 396 -20 c 128,-1,0
 344 -20 344 -20 298 14 c 128,-1,1
350 410 m 0,8,9
 350 515 350 515 403 591 c 0,10,11
 461 675 461 675 493 729 c 0,12,13
 555 835 555 835 555 963 c 128,-1,14
 555 1091 555 1091 508.5 1160 c 128,-1,15
 462 1229 462 1229 383 1229 c 128,-1,16
 304 1229 304 1229 267.5 1184 c 128,-1,17
 231 1139 231 1139 231 1098.5 c 128,-1,18
 231 1058 231 1058 246.5 1031 c 128,-1,19
 262 1004 262 1004 262 975.5 c 128,-1,20
 262 947 262 947 233.5 919 c 128,-1,21
 205 891 205 891 158.5 891 c 128,-1,22
 112 891 112 891 84.5 924.5 c 128,-1,23
 57 958 57 958 57 1010.5 c 128,-1,24
 57 1063 57 1063 79.5 1110.5 c 128,-1,25
 102 1158 102 1158 144 1198 c 0,26,27
 239 1290 239 1290 420.5 1290 c 128,-1,28
 602 1290 602 1290 706.5 1204 c 128,-1,29
 811 1118 811 1118 811 973 c 0,30,31
 811 857 811 857 734 762 c 0,32,33
 674 688 674 688 604.5 631 c 128,-1,34
 535 574 535 574 501 542 c 0,35,36
 424 470 424 470 424 410 c 0,37,38
 424 400 424 400 410 390.5 c 128,-1,39
 396 381 396 381 387 381 c 128,-1,40
 378 381 378 381 364 390.5 c 128,-1,41
 350 400 350 400 350 410 c 0,8,9
EndSplineSet
Validated: 1
EndChar

StartChar: at
Encoding: 64 64 33
Width: 1267
Flags: MW
LayerCount: 2
Fore
SplineSet
664 401 m 1,0,1
 586 326 586 326 505 326 c 128,-1,2
 424 326 424 326 382 385.5 c 128,-1,3
 340 445 340 445 340 532 c 128,-1,4
 340 619 340 619 384 705 c 128,-1,5
 428 791 428 791 495 843 c 128,-1,6
 562 895 562 895 640 895 c 128,-1,7
 718 895 718 895 764 811 c 1,8,-1
 780 872 l 1,9,-1
 920 872 l 1,10,-1
 799 416 l 2,11,12
 797 408 797 408 797 404 c 0,13,14
 797 373 797 373 846.5 373 c 128,-1,15
 896 373 896 373 940 413 c 0,16,17
 984 452 984 452 1008 508 c 0,18,19
 1058 623 1058 623 1059 716 c 0,20,21
 1058 804 1058 804 1036 884 c 0,22,23
 1014 966 1014 966 979 1012.5 c 128,-1,24
 944 1059 944 1059 892 1087 c 0,25,26
 807 1133 807 1133 697.5 1133 c 128,-1,27
 588 1133 588 1133 497 1097.5 c 128,-1,28
 406 1062 406 1062 332.5 996 c 128,-1,29
 259 930 259 930 214.5 824.5 c 128,-1,30
 170 719 170 719 170 605 c 128,-1,31
 170 491 170 491 203 403.5 c 128,-1,32
 236 316 236 316 290 254 c 128,-1,33
 344 192 344 192 412 147 c 0,34,35
 544 59 544 59 686 59 c 0,36,37
 878 59 878 59 1004 162 c 0,38,39
 1046 197 1046 197 1069 219.5 c 128,-1,40
 1092 242 1092 242 1119 282 c 128,-1,41
 1146 322 1146 322 1152 333 c 128,-1,42
 1158 344 1158 344 1174 373 c 1,43,-1
 1206 356 l 1,44,45
 1105 126 1105 126 985 54 c 0,46,47
 862 -20 862 -20 674 -20 c 0,48,49
 498 -20 498 -20 346 87 c 0,50,51
 182 201 182 201 118 380 c 0,52,53
 84 476 84 476 84 588.5 c 128,-1,54
 84 701 84 701 116.5 804 c 128,-1,55
 149 907 149 907 205.5 982 c 128,-1,56
 262 1057 262 1057 337 1111 c 0,57,58
 487 1219 487 1219 678 1219 c 0,59,-1
 681 1219 l 0,60,61
 873 1219 873 1219 1005 1094 c 0,62,63
 1145 962 1145 962 1145 709 c 0,64,65
 1145 591 1145 591 1062 454 c 0,66,67
 1022 388 1022 388 951.5 343.5 c 128,-1,68
 881 299 881 299 795 299 c 0,69,70
 736 299 736 299 702 331.5 c 128,-1,71
 668 364 668 364 664 401 c 1,0,1
659.5 498 m 128,-1,73
 711 582 711 582 711 698.5 c 128,-1,74
 711 815 711 815 637 815 c 0,75,76
 594 815 594 815 537.5 727.5 c 128,-1,77
 481 640 481 640 481 566 c 0,78,79
 481 414 481 414 535 414 c 0,80,72
 608 414 608 414 659.5 498 c 128,-1,73
EndSplineSet
Validated: 1
EndChar

StartChar: A
Encoding: 65 65 34
Width: 1159
Flags: MW
AnchorPoint: "ogonek" 1020 0 basechar 0
AnchorPoint: "cedilla" 909 0 basechar 0
AnchorPoint: "below" 524 0 basechar 0
AnchorPoint: "mid" 508 590 basechar 0
AnchorPoint: "top" 582 1270 basechar 0
LayerCount: 2
Fore
SplineSet
178 80 m 1,0,1
 198 43 198 43 305 43 c 1,2,-1
 305 0 l 1,3,-1
 -31 0 l 1,4,-1
 -31 43 l 1,5,6
 82 43 82 43 98 86 c 2,7,-1
 496 1198 l 1,8,-1
 662 1198 l 1,9,-1
 1063 86 l 2,10,11
 1078 43 1078 43 1194 43 c 1,12,-1
 1194 0 l 1,13,-1
 674 0 l 1,14,-1
 674 43 l 1,15,16
 768 43 768 43 793 68 c 1,17,-1
 678 381 l 1,18,-1
 285 381 l 1,19,-1
 178 80 l 1,0,1
479 926 m 1,20,-1
 309 449 l 1,21,-1
 653 449 l 1,22,-1
 479 926 l 1,20,-1
EndSplineSet
Validated: 1
EndChar

StartChar: B
Encoding: 66 66 35
Width: 1226
Flags: MW
AnchorPoint: "top" 551 1270 basechar 0
AnchorPoint: "below" 563 0 basechar 0
AnchorPoint: "mid" 385 324 basechar 0
LayerCount: 2
Fore
SplineSet
1079 915 m 0,0,1
 1079 699 1079 699 846 627 c 1,2,3
 998 591 998 591 1083.5 512 c 128,-1,4
 1169 433 1169 433 1169 354 c 0,5,6
 1169 274 1169 274 1140 212 c 0,7,8
 1110 150 1110 150 1052 102 c 0,9,10
 928 0 928 0 678 0 c 2,11,-1
 74 0 l 1,12,-1
 74 43 l 1,13,14
 186 43 186 43 203 84 c 1,15,-1
 203 1114 l 1,16,17
 186 1155 186 1155 74 1155 c 1,18,-1
 74 1198 l 1,19,-1
 563 1198 l 2,20,21
 866 1198 866 1198 1002 1074 c 0,22,23
 1078 1004 1078 1004 1079 915 c 0,0,1
463 1128 m 1,24,-1
 463 653 l 1,25,-1
 557 653 l 2,26,27
 559 653 559 653 561 653 c 0,28,29
 711 653 711 653 760 724 c 0,30,31
 803 785 803 785 803 907 c 0,32,33
 803 910 803 910 803 913 c 0,34,35
 803 1128 803 1128 492 1128 c 2,36,-1
 463 1128 l 1,24,-1
463 594 m 1,37,-1
 463 70 l 1,38,-1
 606 70 l 2,39,40
 763 70 763 70 828 144 c 128,-1,41
 893 218 893 218 893 348 c 0,42,43
 893 525 893 525 709 578 c 0,44,45
 653 594 653 594 582 594 c 2,46,-1
 463 594 l 1,37,-1
EndSplineSet
Validated: 1
EndChar

StartChar: C
Encoding: 67 67 36
Width: 1150
Flags: MW
AnchorPoint: "cedilla" 700 0 basechar 0
AnchorPoint: "below" 700 0 basechar 0
AnchorPoint: "top" 705 1270 basechar 0
LayerCount: 2
Fore
SplineSet
717 1149 m 0,0,1
 546 1149 546 1149 452 1007 c 128,-1,2
 358 865 358 865 358 607 c 128,-1,3
 358 349 358 349 459 199 c 128,-1,4
 560 49 560 49 725 49 c 0,5,6
 825 49 825 49 908 117.5 c 128,-1,7
 991 186 991 186 1022 270 c 1,8,-1
 1106 246 l 1,9,10
 1064 144 1064 144 972 68 c 0,11,12
 865 -20 865 -20 684 -20 c 1,13,14
 356 -20 356 -20 180 236 c 0,15,16
 74 389 74 389 74 582 c 0,17,18
 74 726 74 726 128 848 c 0,19,20
 184 970 184 970 274 1050 c 0,21,22
 465 1219 465 1219 715 1219 c 0,23,24
 775 1219 775 1219 863.5 1188 c 128,-1,25
 952 1157 952 1157 963 1157 c 0,26,27
 987 1157 987 1157 987 1198 c 1,28,-1
 1034 1198 l 1,29,-1
 1051 909 l 1,30,-1
 1006 909 l 1,31,32
 994 993 994 993 899.5 1071 c 128,-1,33
 805 1149 805 1149 717 1149 c 0,0,1
EndSplineSet
Validated: 1
EndChar

StartChar: D
Encoding: 68 68 37
Width: 1255
Flags: MW
AnchorPoint: "cedilla" 510 0 basechar 0
AnchorPoint: "below" 510 0 basechar 0
AnchorPoint: "mid" 383 586 basechar 0
AnchorPoint: "top" 567 1270 basechar 0
LayerCount: 2
Fore
SplineSet
203 1112 m 1,0,1
 186 1153 186 1153 74 1153 c 1,2,-1
 74 1196 l 1,3,-1
 545 1196 l 2,4,5
 727 1196 727 1196 871.5 1121 c 128,-1,6
 1016 1046 1016 1046 1098 909.5 c 128,-1,7
 1180 773 1180 773 1180 599.5 c 128,-1,8
 1180 426 1180 426 1098.5 287.5 c 128,-1,9
 1017 149 1017 149 878 73.5 c 128,-1,10
 739 -2 739 -2 569 -2 c 2,11,-1
 74 -2 l 1,12,-1
 74 41 l 1,13,14
 186 41 186 41 203 82 c 1,15,-1
 203 1112 l 1,0,1
463 1137 m 1,16,-1
 463 68 l 1,17,-1
 569 68 l 2,18,19
 739 68 739 68 833 244 c 0,20,21
 903 375 903 375 903 598 c 0,22,23
 902 996 902 996 680 1106 c 0,24,25
 618 1137 618 1137 545 1137 c 2,26,-1
 463 1137 l 1,16,-1
EndSplineSet
Validated: 1
EndChar

StartChar: E
Encoding: 69 69 38
Width: 1030
Flags: MW
AnchorPoint: "ogonek" 819 0 basechar 0
AnchorPoint: "cedilla" 571 0 basechar 0
AnchorPoint: "below" 571 0 basechar 0
AnchorPoint: "mid" 334 336 basechar 0
AnchorPoint: "top" 567 1270 basechar 0
LayerCount: 2
Fore
SplineSet
739 459 m 1,0,1
 739 571 739 571 698 588 c 1,2,-1
 463 588 l 1,3,-1
 463 70 l 1,4,-1
 879 70 l 1,5,6
 928 90 928 90 971 199 c 1,7,-1
 1012 199 l 1,8,-1
 963 0 l 1,9,-1
 74 0 l 1,10,-1
 74 43 l 1,11,12
 186 43 186 43 203 84 c 1,13,-1
 203 1114 l 1,14,15
 186 1155 186 1155 74 1155 c 1,16,-1
 74 1198 l 1,17,-1
 920 1198 l 1,18,-1
 920 999 l 1,19,-1
 877 999 l 1,20,21
 877 1111 877 1111 836 1128 c 1,22,-1
 463 1128 l 1,23,-1
 463 657 l 1,24,-1
 698 657 l 1,25,26
 739 674 739 674 739 786 c 1,27,-1
 782 786 l 1,28,-1
 782 459 l 1,29,-1
 739 459 l 1,0,1
EndSplineSet
Validated: 1
EndChar

StartChar: F
Encoding: 70 70 39
Width: 956
Flags: MW
AnchorPoint: "top" 567 1270 basechar 0
LayerCount: 2
Fore
SplineSet
463 84 m 1,0,1
 480 43 480 43 592 43 c 1,2,-1
 592 0 l 1,3,-1
 74 0 l 1,4,-1
 74 43 l 1,5,6
 186 43 186 43 203 84 c 1,7,-1
 203 1114 l 1,8,9
 186 1155 186 1155 74 1155 c 1,10,-1
 74 1198 l 1,11,-1
 920 1198 l 5,12,-1
 920 999 l 5,13,-1
 877 999 l 5,14,15
 877 1111 877 1111 836 1128 c 5,16,-1
 463 1128 l 5,17,-1
 463 657 l 1,18,-1
 698 657 l 1,19,20
 739 674 739 674 739 786 c 1,21,-1
 782 786 l 1,22,-1
 782 459 l 1,23,-1
 739 459 l 1,24,25
 739 571 739 571 698 588 c 1,26,-1
 463 588 l 1,27,-1
 463 84 l 1,0,1
EndSplineSet
Validated: 1
EndChar

StartChar: G
Encoding: 71 71 40
Width: 1275
Flags: MW
AnchorPoint: "mid" 1006 362 basechar 0
AnchorPoint: "top" 735 1270 basechar 0
AnchorPoint: "below" 696 0 basechar 0
AnchorPoint: "cedilla" 696 0 basechar 0
LayerCount: 2
Fore
SplineSet
1010 52 m 1,0,1
 868 -20 868 -20 722 -20 c 0,2,3
 425 -20 425 -20 245 164 c 0,4,5
 162 249 162 249 115 357.5 c 128,-1,6
 68 466 68 466 68 582 c 0,7,8
 68 917 68 917 364 1108 c 0,9,10
 534 1218 534 1218 739 1219 c 0,11,12
 799 1219 799 1219 892.5 1188 c 128,-1,13
 986 1157 986 1157 997 1157 c 0,14,15
 1022 1157 1022 1157 1022 1198 c 1,16,-1
 1069 1198 l 1,17,-1
 1090 901 l 1,18,-1
 1044 901 l 1,19,20
 1032 984 1032 984 929.5 1066.5 c 128,-1,21
 827 1149 827 1149 727 1149 c 128,-1,22
 627 1149 627 1149 537.5 1073 c 128,-1,23
 448 997 448 997 400 869 c 128,-1,24
 352 741 352 741 352 592 c 128,-1,25
 352 443 352 443 386 324 c 0,26,27
 465 49 465 49 704 49 c 0,28,29
 794 49 794 49 868 68 c 1,30,-1
 868 508 l 1,31,32
 851 549 851 549 739 549 c 1,33,-1
 739 592 l 1,34,-1
 1257 592 l 1,35,-1
 1257 549 l 1,36,37
 1145 549 1145 549 1128 508 c 1,38,-1
 1128 164 l 1,39,40
 1078 86 1078 86 1010 52 c 1,0,1
EndSplineSet
Validated: 1
EndChar

StartChar: H
Encoding: 72 72 41
Width: 1378
Flags: MW
AnchorPoint: "cedilla" 684 0 basechar 0
AnchorPoint: "below" 684 0 basechar 0
AnchorPoint: "mid" 682 860 basechar 0
AnchorPoint: "top" 686 1270 basechar 0
LayerCount: 2
Fore
SplineSet
463 84 m 1,0,1
 480 43 480 43 592 43 c 1,2,-1
 592 0 l 1,3,-1
 74 0 l 1,4,-1
 74 43 l 1,5,6
 186 43 186 43 203 84 c 1,7,-1
 203 1114 l 1,8,9
 186 1155 186 1155 74 1155 c 1,10,-1
 74 1198 l 1,11,-1
 592 1198 l 1,12,-1
 592 1155 l 1,13,14
 480 1155 480 1155 463 1114 c 1,15,-1
 463 657 l 1,16,-1
 915 657 l 1,17,-1
 915 1114 l 1,18,19
 898 1155 898 1155 786 1155 c 1,20,-1
 786 1198 l 1,21,-1
 1305 1198 l 1,22,-1
 1305 1155 l 1,23,24
 1193 1155 1193 1155 1176 1114 c 1,25,-1
 1176 84 l 1,26,27
 1193 43 1193 43 1305 43 c 1,28,-1
 1305 0 l 1,29,-1
 786 0 l 1,30,-1
 786 43 l 1,31,32
 898 43 898 43 915 84 c 1,33,-1
 915 588 l 1,34,-1
 463 588 l 1,35,-1
 463 84 l 1,0,1
EndSplineSet
Validated: 1
EndChar

StartChar: I
Encoding: 73 73 42
Width: 665
Flags: MW
AnchorPoint: "mid" 350 602 basechar 0
AnchorPoint: "ogonek" 449 0 basechar 0
AnchorPoint: "cedilla" 344 0 basechar 0
AnchorPoint: "below" 342 0 basechar 0
AnchorPoint: "top" 342 1270 basechar 0
LayerCount: 2
Fore
SplineSet
463 84 m 1,0,1
 480 43 480 43 592 43 c 1,2,-1
 592 0 l 1,3,-1
 74 0 l 1,4,-1
 74 43 l 1,5,6
 186 43 186 43 203 84 c 1,7,-1
 203 1114 l 1,8,9
 186 1155 186 1155 74 1155 c 1,10,-1
 74 1198 l 1,11,-1
 592 1198 l 1,12,-1
 592 1155 l 1,13,14
 480 1155 480 1155 463 1114 c 1,15,-1
 463 84 l 1,0,1
EndSplineSet
Validated: 1
EndChar

StartChar: J
Encoding: 74 74 43
Width: 868
Flags: MW
AnchorPoint: "top" 578 1270 basechar 0
LayerCount: 2
Fore
SplineSet
829 1155 m 1,0,1
 717 1155 717 1155 700 1114 c 1,2,-1
 700 446 l 2,3,4
 700 209 700 209 604.5 94.5 c 128,-1,5
 509 -20 509 -20 309 -20 c 0,6,7
 164 -20 164 -20 83 38 c 128,-1,8
 2 96 2 96 2 164 c 0,9,10
 2 211 2 211 31.5 249 c 128,-1,11
 61 287 61 287 98 287 c 128,-1,12
 135 287 135 287 169 259 c 128,-1,13
 203 231 203 231 203 195 c 0,14,15
 203 125 203 125 152 109 c 1,16,17
 153 108 153 108 160.5 98.5 c 128,-1,18
 168 89 168 89 175.5 83 c 128,-1,19
 183 77 183 77 197 69 c 0,20,21
 225 53 225 53 280.5 53 c 128,-1,22
 336 53 336 53 366 81.5 c 128,-1,23
 396 110 396 110 412 173 c 0,24,25
 440 283 440 283 440 520 c 2,26,-1
 440 1114 l 1,27,28
 423 1155 423 1155 311 1155 c 1,29,-1
 311 1198 l 1,30,-1
 829 1198 l 1,31,-1
 829 1155 l 1,0,1
EndSplineSet
Validated: 1
EndChar

StartChar: K
Encoding: 75 75 44
Width: 1284
Flags: MW
AnchorPoint: "mid" 379 946 basechar 0
AnchorPoint: "below" 709 0 basechar 0
AnchorPoint: "cedilla" 709 0 basechar 0
AnchorPoint: "top" 727 1270 basechar 0
LayerCount: 2
Fore
SplineSet
459 84 m 5,0,1
 476 43 476 43 588 43 c 5,2,-1
 588 0 l 5,3,-1
 74 0 l 5,4,-1
 74 43 l 5,5,6
 186 43 186 43 203 84 c 5,7,-1
 203 1114 l 5,8,9
 186 1155 186 1155 74 1155 c 5,10,-1
 74 1198 l 5,11,-1
 588 1198 l 5,12,-1
 588 1155 l 5,13,14
 476 1155 476 1155 459 1114 c 5,15,-1
 459 84 l 5,0,1
860 0 m 5,16,-1
 860 43 l 5,17,18
 909 43 909 43 936 49 c 5,19,-1
 469 643 l 5,20,-1
 971 1141 l 5,21,22
 943 1155 943 1155 866 1155 c 5,23,-1
 866 1198 l 5,24,-1
 1188 1198 l 5,25,-1
 1188 1155 l 5,26,27
 1124 1155 1124 1155 1103.5 1141.5 c 132,-1,28
 1083 1128 1083 1128 1080 1126 c 4,29,30
 1071 1118 1071 1118 1061 1108 c 6,31,-1
 688 741 l 5,32,-1
 1202 76 l 6,33,34
 1228 43 1228 43 1331 43 c 5,35,-1
 1331 0 l 5,36,-1
 860 0 l 5,16,-1
EndSplineSet
Validated: 1
EndChar

StartChar: L
Encoding: 76 76 45
Width: 1019
Flags: MW
AnchorPoint: "mid" 338 698 basechar 0
AnchorPoint: "cedilla" 569 0 basechar 0
AnchorPoint: "below" 569 0 basechar 0
AnchorPoint: "top" 334 1270 basechar 0
LayerCount: 2
Fore
SplineSet
592 1155 m 1,0,1
 480 1155 480 1155 463 1114 c 1,2,-1
 463 70 l 1,3,-1
 889 70 l 1,4,5
 938 90 938 90 981 199 c 1,6,-1
 1022 199 l 1,7,-1
 973 0 l 1,8,-1
 74 0 l 1,9,-1
 74 43 l 1,10,11
 186 43 186 43 203 84 c 1,12,-1
 203 1114 l 1,13,14
 186 1155 186 1155 74 1155 c 1,15,-1
 74 1198 l 1,16,-1
 592 1198 l 1,17,-1
 592 1155 l 1,0,1
EndSplineSet
Validated: 1
EndChar

StartChar: M
Encoding: 77 77 46
Width: 1765
Flags: MW
AnchorPoint: "below" 793 0 basechar 0
AnchorPoint: "cedilla" 793 0 basechar 0
AnchorPoint: "top" 858 1270 basechar 0
LayerCount: 2
Fore
SplineSet
272 84 m 1,0,1
 289 43 289 43 401 43 c 1,2,-1
 401 0 l 1,3,-1
 74 0 l 1,4,-1
 74 43 l 1,5,6
 186 43 186 43 203 84 c 1,7,-1
 203 1114 l 1,8,9
 186 1155 186 1155 74 1155 c 1,10,-1
 74 1198 l 1,11,-1
 444 1198 l 1,12,-1
 881 246 l 1,13,-1
 1317 1198 l 1,14,-1
 1692 1198 l 1,15,-1
 1692 1155 l 1,16,17
 1580 1155 1580 1155 1563 1114 c 1,18,-1
 1563 84 l 1,19,20
 1580 43 1580 43 1692 43 c 1,21,-1
 1692 0 l 1,22,-1
 1174 0 l 1,23,-1
 1174 43 l 1,24,25
 1286 43 1286 43 1303 84 c 1,26,-1
 1303 1004 l 1,27,-1
 844 0 l 1,28,-1
 741 0 l 1,29,-1
 272 1016 l 1,30,-1
 272 84 l 1,0,1
EndSplineSet
Validated: 1
EndChar

StartChar: N
Encoding: 78 78 47
Width: 1275
Flags: MW
AnchorPoint: "mid" 662 676 basechar 0
AnchorPoint: "cedilla" 639 0 basechar 0
AnchorPoint: "below" 639 0 basechar 0
AnchorPoint: "top" 639 1270 basechar 0
LayerCount: 2
Fore
SplineSet
272 84 m 1,0,1
 289 43 289 43 401 43 c 1,2,-1
 401 0 l 1,3,-1
 74 0 l 1,4,-1
 74 43 l 1,5,6
 186 43 186 43 203 84 c 1,7,-1
 203 1114 l 1,8,9
 186 1155 186 1155 74 1155 c 1,10,-1
 74 1198 l 1,11,-1
 420 1198 l 1,12,-1
 1026 369 l 1,13,-1
 1026 1114 l 1,14,15
 1009 1155 1009 1155 897 1155 c 1,16,-1
 897 1198 l 1,17,-1
 1225 1198 l 1,18,-1
 1225 1155 l 1,19,20
 1113 1155 1113 1155 1096 1114 c 1,21,-1
 1096 0 l 1,22,-1
 1006 0 l 1,23,-1
 272 1014 l 1,24,-1
 272 84 l 1,0,1
EndSplineSet
Validated: 1
EndChar

StartChar: O
Encoding: 79 79 48
Width: 1359
Flags: MW
AnchorPoint: "ogonek" 750 0 basechar 0
AnchorPoint: "cedilla" 690 0 basechar 0
AnchorPoint: "below" 690 0 basechar 0
AnchorPoint: "mid" 700 602 basechar 0
AnchorPoint: "top" 688 1270 basechar 0
LayerCount: 2
Fore
SplineSet
357 761.5 m 128,-1,1
 348 691 348 691 348 612.5 c 128,-1,2
 348 534 348 534 358.5 458 c 128,-1,3
 369 382 369 382 394.5 306.5 c 128,-1,4
 420 231 420 231 457.5 175 c 128,-1,5
 495 119 495 119 554.5 84 c 128,-1,6
 614 49 614 49 696.5 49 c 128,-1,7
 779 49 779 49 845.5 97.5 c 128,-1,8
 912 146 912 146 946 228 c 0,9,10
 1012 383 1012 383 1012 582 c 0,11,12
 1012 789 1012 789 937 959 c 0,13,14
 899 1045 899 1045 830.5 1097 c 128,-1,15
 762 1149 762 1149 680 1149 c 128,-1,16
 598 1149 598 1149 540 1115.5 c 128,-1,17
 482 1082 482 1082 447 1029.5 c 128,-1,18
 412 977 412 977 389 904.5 c 128,-1,0
 366 832 366 832 357 761.5 c 128,-1,1
152 291 m 128,-1,20
 72 433 72 433 72 577 c 128,-1,21
 72 721 72 721 120 835.5 c 128,-1,22
 168 950 168 950 249 1034 c 128,-1,23
 330 1118 330 1118 443 1168.5 c 128,-1,24
 556 1219 556 1219 680 1219 c 128,-1,25
 804 1219 804 1219 917 1168.5 c 128,-1,26
 1030 1118 1030 1118 1111 1034 c 128,-1,27
 1192 950 1192 950 1240 835.5 c 128,-1,28
 1288 721 1288 721 1288 577.5 c 128,-1,29
 1288 434 1288 434 1206.5 291.5 c 128,-1,30
 1125 149 1125 149 984.5 64.5 c 128,-1,31
 844 -20 844 -20 678.5 -20 c 128,-1,32
 513 -20 513 -20 372.5 64.5 c 128,-1,19
 232 149 232 149 152 291 c 128,-1,20
EndSplineSet
Validated: 1
EndChar

StartChar: P
Encoding: 80 80 49
Width: 1157
Flags: MW
AnchorPoint: "cedilla" 334 0 basechar 0
AnchorPoint: "mid" 340 328 basechar 0
AnchorPoint: "below" 334 0 basechar 0
AnchorPoint: "top" 522 1270 basechar 0
LayerCount: 2
Fore
SplineSet
463 84 m 1,0,1
 480 43 480 43 592 43 c 1,2,-1
 592 0 l 1,3,-1
 74 0 l 1,4,-1
 74 43 l 1,5,6
 186 43 186 43 203 84 c 1,7,-1
 203 1114 l 1,8,9
 186 1155 186 1155 74 1155 c 1,10,-1
 74 1198 l 1,11,-1
 618 1198 l 2,12,13
 749 1198 749 1198 852.5 1169 c 128,-1,14
 956 1140 956 1140 1016 1094 c 0,15,16
 1135 1002 1135 1002 1135 889 c 0,17,18
 1134 733 1134 733 1012 639 c 0,19,20
 889 545 889 545 643 545 c 2,21,-1
 463 545 l 1,22,-1
 463 84 l 1,0,1
463 1128 m 1,23,-1
 463 614 l 1,24,-1
 571 614 l 2,25,26
 728 614 728 614 793 677 c 128,-1,27
 858 740 858 740 858 885 c 0,28,29
 858 1128 858 1128 547 1128 c 2,30,-1
 463 1128 l 1,23,-1
EndSplineSet
Validated: 1
EndChar

StartChar: Q
Encoding: 81 81 50
Width: 1359
Flags: MW
LayerCount: 2
Fore
SplineSet
152 291 m 128,-1,1
 72 433 72 433 72 577 c 128,-1,2
 72 721 72 721 120 835.5 c 128,-1,3
 168 950 168 950 249 1034 c 128,-1,4
 330 1118 330 1118 443 1168.5 c 128,-1,5
 556 1219 556 1219 680 1219 c 128,-1,6
 804 1219 804 1219 917 1168.5 c 128,-1,7
 1030 1118 1030 1118 1111 1034 c 128,-1,8
 1192 950 1192 950 1240 835.5 c 128,-1,9
 1288 721 1288 721 1288 575 c 128,-1,10
 1288 429 1288 429 1201 283.5 c 128,-1,11
 1114 138 1114 138 971 57 c 1,12,13
 976 45 976 45 987.5 15.5 c 128,-1,14
 999 -14 999 -14 1004 -26 c 128,-1,15
 1009 -38 1009 -38 1020 -60 c 0,16,17
 1032 -82 1032 -82 1040 -92 c 128,-1,18
 1048 -102 1048 -102 1060 -114 c 0,19,20
 1082 -136 1082 -136 1116.5 -135.5 c 128,-1,21
 1151 -135 1151 -135 1179.5 -125.5 c 128,-1,22
 1208 -116 1208 -116 1226 -102 c 0,23,24
 1264 -72 1264 -72 1284 -41 c 1,25,-1
 1315 -63 l 1,26,27
 1309 -80 1309 -80 1288.5 -109.5 c 128,-1,28
 1268 -139 1268 -139 1247 -158 c 0,29,30
 1191 -209 1191 -209 1119.5 -209 c 128,-1,31
 1048 -209 1048 -209 992 -193 c 0,32,33
 934 -176 934 -176 896 -146 c 0,34,35
 831 -94 831 -94 788 -10 c 1,36,37
 730 -20 730 -20 680 -20 c 0,38,39
 513 -20 513 -20 372.5 64.5 c 128,-1,0
 232 149 232 149 152 291 c 128,-1,1
758 57 m 1,40,41
 713 158 713 158 694 174 c 0,42,43
 652 209 652 209 612 209 c 0,44,45
 530 209 530 209 465 166 c 1,46,47
 551 49 551 49 688 49 c 0,48,49
 731 49 731 49 758 57 c 1,40,41
911 168 m 1,50,51
 1012 313 1012 313 1012 582 c 0,52,53
 1012 789 1012 789 937 959 c 0,54,55
 899 1045 899 1045 830.5 1097 c 128,-1,56
 762 1149 762 1149 680 1149 c 128,-1,57
 598 1149 598 1149 540 1115.5 c 128,-1,58
 482 1082 482 1082 447 1030 c 0,59,60
 412 976 412 976 389 904 c 0,61,62
 348 775 348 775 348 614 c 0,63,64
 348 380 348 380 432 219 c 1,65,66
 512 299 512 299 625 299 c 0,67,68
 817 299 817 299 911 168 c 1,50,51
EndSplineSet
Validated: 1
EndChar

StartChar: R
Encoding: 82 82 51
Width: 1206
Flags: MW
AnchorPoint: "top" 612 1270 basechar 0
AnchorPoint: "below" 690 0 basechar 0
AnchorPoint: "mid" 340 328 basechar 0
AnchorPoint: "cedilla" 690 0 basechar 0
LayerCount: 2
Fore
SplineSet
463 84 m 1,0,1
 480 43 480 43 592 43 c 1,2,-1
 592 0 l 1,3,-1
 74 0 l 1,4,-1
 74 43 l 1,5,6
 186 43 186 43 203 84 c 1,7,-1
 203 1114 l 1,8,9
 186 1155 186 1155 74 1155 c 1,10,-1
 74 1198 l 1,11,-1
 578 1198 l 2,12,13
 842 1198 842 1198 974 1098 c 0,14,15
 1094 1007 1094 1007 1094 894.5 c 128,-1,16
 1094 782 1094 782 1026.5 696.5 c 128,-1,17
 959 611 959 611 825 573 c 1,18,-1
 1098 86 l 1,19,20
 1119 43 1119 43 1233 43 c 1,21,-1
 1233 0 l 1,22,-1
 1145 0 l 2,23,24
 983 0 983 0 906.5 18.5 c 128,-1,25
 830 37 830 37 791 106 c 2,26,-1
 543 545 l 1,27,-1
 463 545 l 1,28,-1
 463 84 l 1,0,1
463 1128 m 1,29,-1
 463 614 l 1,30,-1
 530 614 l 2,31,32
 668 614 668 614 742.5 676.5 c 128,-1,33
 817 739 817 739 817 893 c 0,34,35
 817 1012 817 1012 734 1070 c 128,-1,36
 651 1128 651 1128 506 1128 c 2,37,-1
 463 1128 l 1,29,-1
EndSplineSet
Validated: 1
EndChar

StartChar: S
Encoding: 83 83 52
Width: 962
Flags: MW
AnchorPoint: "cedilla" 496 0 basechar 0
AnchorPoint: "below" 496 0 basechar 0
AnchorPoint: "mid" 506 602 basechar 0
AnchorPoint: "top" 471 1270 basechar 0
LayerCount: 2
Fore
SplineSet
702 1157 m 4,0,1
 727 1157 727 1157 727 1198 c 5,2,-1
 774 1198 l 5,3,-1
 795 889 l 5,4,-1
 750 889 l 5,5,6
 738 974 738 974 639.5 1061.5 c 132,-1,7
 541 1149 541 1149 467 1149 c 4,8,9
 392 1149 392 1149 348 1117 c 4,10,11
 270 1061 270 1061 270 967 c 4,12,13
 270 893 270 893 450 789 c 4,14,15
 648 675 648 675 706 630 c 4,16,17
 764 584 764 584 810 536 c 4,18,19
 902 437 902 437 903 303 c 4,20,21
 903 226 903 226 867 162 c 4,22,23
 830 98 830 98 772 60 c 4,24,25
 651 -20 651 -20 500 -20 c 4,26,27
 372 -20 372 -20 243 26 c 4,28,29
 199 42 199 42 186 41.5 c 132,-1,30
 173 41 173 41 157 29 c 132,-1,31
 141 17 141 17 141 0 c 5,32,-1
 94 0 l 5,33,-1
 94 324 l 5,34,-1
 139 324 l 5,35,36
 151 261 151 261 191 207 c 4,37,38
 230 153 230 153 282 120 c 4,39,40
 393 49 393 49 491 49 c 132,-1,41
 589 49 589 49 652 103 c 132,-1,42
 715 157 715 157 715 246 c 4,43,44
 715 307 715 307 635 368 c 4,45,46
 571 417 571 417 486 466.5 c 132,-1,47
 401 516 401 516 375 532 c 4,48,49
 96 704 96 704 96 901 c 4,50,51
 96 980 96 980 147 1054 c 132,-1,52
 198 1128 198 1128 281.5 1173.5 c 132,-1,53
 365 1219 365 1219 440 1219 c 132,-1,54
 515 1219 515 1219 603 1188 c 132,-1,55
 691 1157 691 1157 702 1157 c 4,0,1
EndSplineSet
Validated: 1
EndChar

StartChar: T
Encoding: 84 84 53
Width: 1112
Flags: MW
AnchorPoint: "below" 561 0 basechar 0
AnchorPoint: "cedilla" 561 0 basechar 0
AnchorPoint: "mid" 559 647 basechar 0
AnchorPoint: "top" 561 1270 basechar 0
LayerCount: 2
Fore
SplineSet
297 43 m 1,0,1
 409 43 409 43 426 84 c 1,2,-1
 426 1128 l 1,3,-1
 141 1128 l 1,4,5
 70 1099 70 1099 70 999 c 1,6,-1
 27 999 l 1,7,-1
 27 1198 l 1,8,-1
 1085 1198 l 1,9,-1
 1085 999 l 1,10,-1
 1042 999 l 1,11,12
 1042 1099 1042 1099 971 1128 c 1,13,-1
 686 1128 l 1,14,-1
 686 84 l 1,15,16
 703 43 703 43 815 43 c 1,17,-1
 815 0 l 1,18,-1
 297 0 l 1,19,-1
 297 43 l 1,0,1
EndSplineSet
Validated: 1
EndChar

StartChar: U
Encoding: 85 85 54
Width: 1236
Flags: MW
AnchorPoint: "mid" 707 694 basechar 0
AnchorPoint: "ogonek" 662 0 basechar 0
AnchorPoint: "below" 662 0 basechar 0
AnchorPoint: "cedilla" 662 0 basechar 0
AnchorPoint: "top" 719 1270 basechar 0
LayerCount: 2
Fore
SplineSet
555 1155 m 1,0,1
 443 1155 443 1155 426 1114 c 1,2,-1
 426 479 l 2,3,4
 426 269 426 269 498 159 c 128,-1,5
 570 49 570 49 706.5 49 c 128,-1,6
 843 49 843 49 922 161.5 c 128,-1,7
 1001 274 1001 274 1001 467 c 2,8,-1
 1001 1114 l 1,9,10
 984 1155 984 1155 872 1155 c 1,11,-1
 872 1198 l 1,12,-1
 1200 1198 l 1,13,-1
 1200 1155 l 1,14,15
 1088 1155 1088 1155 1071 1114 c 1,16,-1
 1071 508 l 2,17,18
 1070 118 1070 118 814 10 c 0,19,20
 742 -20 742 -20 657 -20 c 0,21,22
 166 -20 166 -20 166 508 c 2,23,-1
 166 1114 l 1,24,25
 149 1155 149 1155 37 1155 c 1,26,-1
 37 1198 l 1,27,-1
 555 1198 l 1,28,-1
 555 1155 l 1,0,1
EndSplineSet
Validated: 1
EndChar

StartChar: V
Encoding: 86 86 55
Width: 1159
Flags: MW
AnchorPoint: "mid" 676 901 basechar 0
AnchorPoint: "cedilla" 588 0 basechar 0
AnchorPoint: "below" 588 0 basechar 0
AnchorPoint: "top" 678 1270 basechar 0
LayerCount: 2
Fore
SplineSet
981 1118 m 1,0,1
 961 1155 961 1155 854 1155 c 1,2,-1
 854 1198 l 1,3,-1
 1190 1198 l 1,4,-1
 1190 1155 l 1,5,6
 1077 1155 1077 1155 1061 1112 c 2,7,-1
 664 0 l 1,8,-1
 498 0 l 1,9,-1
 96 1112 l 2,10,11
 81 1155 81 1155 -35 1155 c 1,12,-1
 -35 1198 l 1,13,-1
 485 1198 l 1,14,-1
 485 1155 l 1,15,16
 392 1155 392 1155 367 1130 c 1,17,-1
 680 272 l 1,18,-1
 981 1118 l 1,0,1
EndSplineSet
Validated: 1
EndChar

StartChar: W
Encoding: 87 87 56
Width: 1837
Flags: MW
AnchorPoint: "mid" 922 602 basechar 0
AnchorPoint: "ogonek" 1255 0 basechar 0
AnchorPoint: "cedilla" 934 0 basechar 0
AnchorPoint: "below" 934 0 basechar 0
AnchorPoint: "top" 879 1270 basechar 0
LayerCount: 2
Fore
SplineSet
1661 1118 m 1,0,1
 1641 1155 1641 1155 1534 1155 c 1,2,-1
 1534 1198 l 1,3,-1
 1870 1198 l 1,4,-1
 1870 1155 l 1,5,6
 1757 1155 1757 1155 1741 1112 c 2,7,-1
 1343 0 l 1,8,-1
 1174 0 l 1,9,-1
 918 715 l 1,10,-1
 664 0 l 1,11,-1
 494 0 l 1,12,-1
 96 1112 l 2,13,14
 81 1155 81 1155 -35 1155 c 1,15,-1
 -35 1198 l 1,16,-1
 485 1198 l 1,17,-1
 485 1155 l 1,18,19
 392 1155 392 1155 367 1130 c 1,20,-1
 680 274 l 1,21,-1
 877 829 l 1,22,-1
 776 1112 l 2,23,24
 761 1155 761 1155 645 1155 c 1,25,-1
 645 1198 l 1,26,-1
 1165 1198 l 1,27,-1
 1165 1155 l 1,28,29
 1072 1155 1072 1155 1047 1130 c 1,30,-1
 1360 272 l 1,31,-1
 1661 1118 l 1,0,1
EndSplineSet
Validated: 1
EndChar

StartChar: X
Encoding: 88 88 57
Width: 1095
Flags: MW
LayerCount: 2
Fore
SplineSet
512 1198 m 1,0,-1
 512 1155 l 1,1,2
 415 1155 415 1155 393 1130 c 1,3,-1
 602 764 l 1,4,-1
 848 1124 l 1,5,6
 829 1155 829 1155 725 1155 c 1,7,-1
 725 1198 l 1,8,-1
 1061 1198 l 1,9,-1
 1061 1155 l 1,10,11
 999 1155 999 1155 971.5 1146 c 128,-1,12
 944 1137 944 1137 930 1114 c 1,13,-1
 643 694 l 1,14,-1
 991 86 l 1,15,16
 1013 43 1013 43 1122 43 c 1,17,-1
 1122 0 l 1,18,-1
 602 0 l 1,19,-1
 602 43 l 1,20,21
 699 43 699 43 721 68 c 1,22,-1
 492 471 l 1,23,-1
 219 72 l 1,24,25
 242 43 242 43 342 43 c 1,26,-1
 342 0 l 1,27,-1
 6 0 l 1,28,-1
 6 43 l 1,29,30
 113 43 113 43 137 82 c 1,31,-1
 451 541 l 1,32,-1
 123 1114 l 2,33,34
 99 1155 99 1155 -8 1155 c 1,35,-1
 -8 1198 l 1,36,-1
 512 1198 l 1,0,-1
EndSplineSet
Validated: 1
EndChar

StartChar: Y
Encoding: 89 89 58
Width: 1196
Flags: MW
AnchorPoint: "ogonek" 684 0 basechar 0
AnchorPoint: "cedilla" 623 0 basechar 0
AnchorPoint: "mid" 614 410 basechar 0
AnchorPoint: "below" 618 0 basechar 0
AnchorPoint: "top" 700 1270 basechar 0
LayerCount: 2
Fore
SplineSet
348 43 m 1,0,1
 460 43 460 43 477 84 c 1,2,-1
 477 451 l 1,3,-1
 98 1114 l 2,4,5
 75 1155 75 1155 -33 1155 c 1,6,-1
 -33 1198 l 1,7,-1
 487 1198 l 1,8,-1
 487 1155 l 1,9,10
 391 1155 391 1155 369 1130 c 1,11,-1
 686 575 l 1,12,-1
 1014 1118 l 1,13,14
 993 1155 993 1155 887 1155 c 1,15,-1
 887 1198 l 1,16,-1
 1223 1198 l 1,17,-1
 1223 1155 l 1,18,19
 1122 1155 1122 1155 1106 1128 c 2,20,-1
 737 516 l 1,21,-1
 737 84 l 1,22,23
 754 43 754 43 866 43 c 1,24,-1
 866 0 l 1,25,-1
 348 0 l 1,26,-1
 348 43 l 1,0,1
EndSplineSet
Validated: 1
EndChar

StartChar: Z
Encoding: 90 90 59
Width: 1007
Flags: MW
AnchorPoint: "mid" 475 602 basechar 0
AnchorPoint: "cedilla" 520 0 basechar 0
AnchorPoint: "below" 520 0 basechar 0
AnchorPoint: "top" 500 1270 basechar 0
LayerCount: 2
Fore
SplineSet
913 0 m 1,0,-1
 29 0 l 1,1,-1
 608 1137 l 1,2,-1
 213 1137 l 1,3,4
 189 1127 189 1127 165 1077 c 128,-1,5
 141 1027 141 1027 141 967 c 1,6,-1
 98 967 l 1,7,-1
 98 1198 l 1,8,-1
 924 1198 l 1,9,-1
 344 61 l 1,10,-1
 799 61 l 1,11,12
 823 71 823 71 863.5 130.5 c 128,-1,13
 904 190 904 190 922 250 c 1,14,-1
 965 250 l 1,15,-1
 913 0 l 1,0,-1
EndSplineSet
Validated: 1
EndChar

StartChar: bracketleft
Encoding: 91 91 60
Width: 567
Flags: MW
LayerCount: 2
Fore
SplineSet
360 1186 m 1,0,-1
 360 -246 l 1,1,-1
 526 -246 l 1,2,-1
 526 -319 l 1,3,-1
 125 -319 l 1,4,-1
 125 1260 l 1,5,-1
 526 1260 l 1,6,-1
 526 1186 l 1,7,-1
 360 1186 l 1,0,-1
EndSplineSet
Validated: 1
EndChar

StartChar: backslash
Encoding: 92 92 61
Width: 970
Flags: MW
LayerCount: 2
Fore
SplineSet
934 -20 m 1,0,-1
 834 -57 l 1,1,-1
 37 1217 l 1,2,-1
 137 1253 l 1,3,-1
 934 -20 l 1,0,-1
EndSplineSet
Validated: 1
EndChar

StartChar: bracketright
Encoding: 93 93 62
Width: 567
Flags: MW
LayerCount: 2
Fore
SplineSet
207 -246 m 1,0,-1
 207 1186 l 1,1,-1
 41 1186 l 1,2,-1
 41 1260 l 1,3,-1
 442 1260 l 1,4,-1
 442 -319 l 1,5,-1
 41 -319 l 1,6,-1
 41 -246 l 1,7,-1
 207 -246 l 1,0,-1
EndSplineSet
Validated: 1
EndChar

StartChar: asciicircum
Encoding: 94 94 63
Width: 933
Flags: MW
LayerCount: 2
Fore
SplineSet
494 1122 m 1,0,-1
 831 721 l 1,1,-1
 762 631 l 1,2,-1
 467 983 l 1,3,-1
 172 631 l 1,4,-1
 102 721 l 1,5,-1
 438 1122 l 1,6,-1
 494 1122 l 1,0,-1
EndSplineSet
Validated: 1
EndChar

StartChar: underscore
Encoding: 95 95 64
Width: 933
Flags: MW
LayerCount: 2
Fore
SplineSet
94 -102 m 1,0,-1
 840 -102 l 1,1,-1
 840 -193 l 1,2,-1
 94 -193 l 1,3,-1
 94 -102 l 1,0,-1
EndSplineSet
Validated: 1
EndChar

StartChar: grave
Encoding: 96 96 65
Width: 614
Flags: MW
LayerCount: 2
Fore
SplineSet
381 1356 m 1,0,-1
 492 1024 l 1,1,-1
 397 1024 l 1,2,-1
 123 1356 l 1,3,-1
 381 1356 l 1,0,-1
EndSplineSet
Validated: 1
EndChar

StartChar: a
Encoding: 97 97 66
Width: 1030
Flags: MW
AnchorPoint: "mid" 467 242 basechar 0
AnchorPoint: "ogonek" 864 0 basechar 0
AnchorPoint: "cedilla" 426 0 basechar 0
AnchorPoint: "below" 506 0 basechar 0
AnchorPoint: "top" 475 1055 basechar 0
LayerCount: 2
Fore
SplineSet
266 750 m 1,0,1
 313 750 313 750 313 666 c 0,2,3
 313 631 313 631 278.5 612.5 c 128,-1,4
 244 594 244 594 204 594 c 128,-1,5
 164 594 164 594 132 623 c 128,-1,6
 100 652 100 652 100 696 c 0,7,8
 100 801 100 801 204 861.5 c 128,-1,9
 308 922 308 922 487.5 922 c 128,-1,10
 667 922 667 922 776 824.5 c 128,-1,11
 885 727 885 727 885 578 c 2,12,-1
 885 172 l 2,13,14
 885 107 885 107 906.5 76 c 128,-1,15
 928 45 928 45 956.5 45 c 128,-1,16
 985 45 985 45 1006.5 59 c 128,-1,17
 1028 73 1028 73 1028 94 c 1,18,-1
 1065 94 l 1,19,20
 1065 -16 1065 -16 840 -16 c 0,21,22
 735 -16 735 -16 678 57 c 1,23,24
 558 -20 558 -20 393 -20 c 0,25,26
 51 -20 51 -20 51 229 c 0,27,28
 51 348 51 348 258 415 c 0,29,30
 347 444 347 444 418 459 c 0,31,32
 552 487 552 487 629 506 c 1,33,34
 629 742 629 742 585 796 c 0,35,36
 543 848 543 848 464 848 c 128,-1,37
 385 848 385 848 330.5 820.5 c 128,-1,38
 276 793 276 793 266 750 c 1,0,1
649 106 m 1,39,40
 629 161 629 161 629 229 c 2,41,-1
 629 461 l 1,42,43
 493 420 493 420 450 400 c 0,44,45
 313 336 313 336 313 233.5 c 128,-1,46
 313 131 313 131 353 90 c 0,47,48
 392 49 392 49 438 49 c 0,49,50
 534 49 534 49 649 106 c 1,39,40
EndSplineSet
Validated: 1
EndChar

StartChar: b
Encoding: 98 98 67
Width: 1132
Flags: MW
AnchorPoint: "mid" 285 1044 basechar 0
AnchorPoint: "below" 526 0 basechar 0
AnchorPoint: "top" 600 1055 basechar 0
LayerCount: 2
Fore
SplineSet
117 1147 m 1,0,1
 7 1155 7 1155 -12 1155 c 1,2,-1
 -12 1202 l 1,3,4
 27 1202 27 1202 176.5 1246 c 128,-1,5
 326 1290 326 1290 373 1290 c 1,6,-1
 373 872 l 1,7,8
 466 930 466 930 602 930 c 0,9,10
 722 930 722 930 836 870 c 0,11,12
 902 836 902 836 952.5 784.5 c 128,-1,13
 1003 733 1003 733 1037 647.5 c 128,-1,14
 1071 562 1071 562 1071 462.5 c 128,-1,15
 1071 363 1071 363 1043 285 c 128,-1,16
 1015 207 1015 207 966.5 151.5 c 128,-1,17
 918 96 918 96 853 57 c 0,18,19
 725 -20 725 -20 572 -20 c 129,-1,20
 419 -20 419 -20 330 45 c 1,21,22
 171 -20 171 -20 117 -20 c 1,23,-1
 117 1147 l 1,0,1
373 807 m 1,24,-1
 373 86 l 1,25,26
 445 49 445 49 550.5 49 c 128,-1,27
 656 49 656 49 730.5 155.5 c 128,-1,28
 805 262 805 262 805 451 c 128,-1,29
 805 640 805 640 746.5 750 c 128,-1,30
 688 860 688 860 571.5 860 c 128,-1,31
 455 860 455 860 373 807 c 1,24,-1
EndSplineSet
Validated: 1
EndChar

StartChar: c
Encoding: 99 99 68
Width: 985
Flags: MW
AnchorPoint: "top" 551 1055 basechar 0
AnchorPoint: "below" 543 0 basechar 0
AnchorPoint: "cedilla" 543 0 basechar 0
LayerCount: 2
Fore
SplineSet
561 860 m 0,0,1
 464 860 464 860 397 762.5 c 128,-1,2
 330 665 330 665 330 525.5 c 128,-1,3
 330 386 330 386 361.5 285 c 128,-1,4
 393 184 393 184 455 120.5 c 128,-1,5
 517 57 517 57 601.5 57 c 128,-1,6
 686 57 686 57 747.5 91.5 c 128,-1,7
 809 126 809 126 856 205 c 1,8,-1
 932 168 l 1,9,10
 872 71 872 71 777.5 25.5 c 128,-1,11
 683 -20 683 -20 526 -20 c 0,12,13
 394 -20 394 -20 282 43 c 0,14,15
 63 166 63 166 63 493 c 0,16,17
 63 610 63 610 122.5 707 c 128,-1,18
 182 804 182 804 292.5 863 c 128,-1,19
 403 922 403 922 555 922 c 128,-1,20
 707 922 707 922 808 865.5 c 128,-1,21
 909 809 909 809 909 705 c 0,22,23
 909 655 909 655 884 621.5 c 128,-1,24
 859 588 859 588 808.5 588 c 128,-1,25
 758 588 758 588 728 612 c 128,-1,26
 698 636 698 636 698 676.5 c 128,-1,27
 698 717 698 717 719.5 737.5 c 128,-1,28
 741 758 741 758 770 758 c 1,29,30
 744 860 744 860 561 860 c 0,0,1
EndSplineSet
Validated: 1
EndChar

StartChar: d
Encoding: 100 100 69
Width: 1181
Flags: MW
AnchorPoint: "mid" 821 1040 basechar 0
AnchorPoint: "below" 543 0 basechar 0
AnchorPoint: "top" 494 1055 basechar 0
LayerCount: 2
Fore
SplineSet
768 881 m 1,0,-1
 768 1147 l 1,1,2
 658 1155 658 1155 639 1155 c 1,3,-1
 639 1202 l 1,4,5
 678 1202 678 1202 827.5 1246 c 128,-1,6
 977 1290 977 1290 1024 1290 c 1,7,-1
 1024 123 l 1,8,9
 1134 115 1134 115 1153 115 c 1,10,-1
 1153 68 l 1,11,12
 1114 68 1114 68 964.5 24 c 128,-1,13
 815 -20 815 -20 768 -20 c 1,14,-1
 768 47 l 1,15,16
 672 -20 672 -20 522 -20 c 0,17,18
 434 -20 434 -20 356.5 10 c 128,-1,19
 279 40 279 40 232 78 c 0,20,21
 184 116 184 116 146 166 c 0,22,23
 63 273 63 273 63 451 c 0,24,25
 63 570 63 570 104 662 c 0,26,27
 146 754 146 754 216 812 c 0,28,29
 361 930 361 930 567 930 c 0,30,31
 686 930 686 930 768 881 c 1,0,-1
768 815 m 1,32,33
 692 860 692 860 580 860 c 0,34,35
 494 860 494 860 416 758 c 0,36,37
 330 646 330 646 330 465.5 c 128,-1,38
 330 285 330 285 397.5 167 c 128,-1,39
 465 49 465 49 543 49 c 0,40,41
 683 49 683 49 768 115 c 1,42,-1
 768 815 l 1,32,33
EndSplineSet
Validated: 1
EndChar

StartChar: e
Encoding: 101 101 70
Width: 1026
Flags: MW
AnchorPoint: "mid" 524 692 basechar 0
AnchorPoint: "ogonek" 625 0 basechar 0
AnchorPoint: "cedilla" 549 0 basechar 0
AnchorPoint: "below" 549 0 basechar 0
AnchorPoint: "top" 514 1055 basechar 0
LayerCount: 2
Fore
SplineSet
330 494 m 1,0,1
 332 379 332 379 366.5 279.5 c 128,-1,2
 401 180 401 180 464.5 118.5 c 128,-1,3
 528 57 528 57 613 57 c 0,4,5
 783 57 783 57 893 193 c 1,6,-1
 942 168 l 1,7,8
 882 71 882 71 787.5 25.5 c 128,-1,9
 693 -20 693 -20 537 -20 c 0,10,11
 404 -20 404 -20 290 43 c 0,12,13
 150 120 150 120 94 284 c 0,14,15
 63 374 63 374 63 489 c 0,16,17
 63 493 63 493 63 496 c 0,18,19
 63 673 63 673 189.5 797.5 c 128,-1,20
 316 922 316 922 516 922 c 0,21,22
 741 922 741 922 862 792 c 0,23,24
 977 669 977 669 977 494 c 1,25,-1
 330 494 l 1,0,1
332 557 m 1,26,-1
 705 557 l 1,27,28
 685 784 685 784 608 838 c 0,29,30
 576 860 576 860 532 860 c 0,31,32
 458 860 458 860 400 785.5 c 128,-1,33
 342 711 342 711 332 557 c 1,26,-1
EndSplineSet
Validated: 1
EndChar

StartChar: f
Encoding: 102 102 71
Width: 616
Flags: MW
AnchorPoint: "top" 481 1341 basechar 0
LayerCount: 2
Fore
SplineSet
43 43 m 1,0,1
 155 43 155 43 172 84 c 1,2,-1
 172 840 l 1,3,-1
 70 840 l 1,4,-1
 70 901 l 1,5,-1
 172 901 l 1,6,-1
 172 971 l 2,7,8
 172 1216 172 1216 362 1274 c 0,9,10
 416 1290 416 1290 509 1290 c 128,-1,11
 602 1290 602 1290 664.5 1252.5 c 128,-1,12
 727 1215 727 1215 727 1169 c 0,13,14
 727 1077 727 1077 645 1077 c 0,15,16
 644 1077 644 1077 642 1077 c 0,17,18
 570 1077 570 1077 560 1130 c 0,19,20
 556 1152 556 1152 554 1176 c 0,21,22
 549 1229 549 1229 504 1229 c 0,23,-1
 502 1229 l 0,24,25
 428 1229 428 1229 428 999 c 2,26,-1
 428 901 l 1,27,-1
 586 901 l 1,28,-1
 586 840 l 1,29,-1
 428 840 l 1,30,-1
 428 84 l 1,31,32
 445 43 445 43 557 43 c 1,33,-1
 557 0 l 1,34,-1
 43 0 l 1,35,-1
 43 43 l 1,0,1
EndSplineSet
Validated: 1
EndChar

StartChar: g
Encoding: 103 103 72
Width: 1099
Flags: W
HStem: -410 74<319.076 620.732> -20 69<443.708 705.506> 852 70<458.033 725.286>
VStem: 66 266<218.143 664.651> 135 205<-250.917 -126.878> 727 256<-161.751 24 70.1807 838.909>
AnchorPoint: "mid" 856 467 basechar 0
AnchorPoint: "below" 508 0 basechar 0
AnchorPoint: "top" 569 1055 basechar 0
LayerCount: 2
Back
SplineSet
493 -336 m 132
 437 -336 350 -324 289 -281 c 5
 327 -266 340 -246 340 -194 c 132
 340 -141 299 -98 246 -98 c 4
 172 -98 135 -142 135 -229 c 4
 135 -284 172 -328 246 -361 c 132
 320 -394 421 -410 550 -410 c 132
 812 -410 983 -205 983 59 c 6
 983 922 l 5
 948 922 881 901 780 860 c 5
 720 901 646 922 559 922 c 4
 273 922 66 747 66 446 c 4
 66 325 93 229 146 159 c 4
 221 62 340 -20 514 -20 c 4
 598 -20 692 0 743 35 c 5
 743 100 l 5
 698 67 610 49 535 49 c 4
 500 49 466 63 434 91 c 4
 366 151 332 269 332 446 c 4
 332 593 357 735 438 804 c 132
 484 843 513 852 597 852 c 132
 639 852 682 842 727 823 c 13
 727 105 l 22
 727 -166 693 -336 493 -336 c 132
EndSplineSet
Fore
SplineSet
514 -20 m 0,0,1
 284 -20 284 -20 146 159 c 1,2,3
 66 265 66 265 66 446 c 0,4,5
 66 667 66 667 203 794.5 c 128,-1,6
 340 922 340 922 559 922 c 0,7,8
 689 922 689 922 780 860 c 1,9,10
 933 922 933 922 983 922 c 1,11,-1
 983 59 l 2,12,13
 983 -143 983 -143 863 -276.5 c 128,-1,14
 743 -410 743 -410 549.5 -410 c 128,-1,15
 356 -410 356 -410 245.5 -360.5 c 128,-1,16
 135 -311 135 -311 135 -229 c 0,17,18
 135 -98 135 -98 246 -98 c 0,19,20
 286 -98 286 -98 313 -126 c 128,-1,21
 340 -154 340 -154 340 -193.5 c 128,-1,22
 340 -233 340 -233 329 -251.5 c 128,-1,23
 318 -270 318 -270 289 -281 c 1,24,25
 367 -336 367 -336 487 -336 c 128,-1,26
 607 -336 607 -336 663.5 -258.5 c 128,-1,27
 720 -181 720 -181 726 24 c 1,28,29
 645 -20 645 -20 514 -20 c 0,0,1
727 90 m 1,30,31
 727 823 l 1,32,33
 658 852 658 852 596 852 c 128,-1,34
 534 852 534 852 503.5 842.5 c 128,-1,35
 473 833 473 833 438 804 c 0,36,37
 332 714 332 714 332 447.5 c 128,-1,38
 332 181 332 181 434 91 c 0,39,40
 482 49 482 49 535 49 c 0,41,42
 656 49 656 49 727 90 c 1,30,31
EndSplineSet
Validated: 1
Substitution2: "'ss05' Binocular g subtable" g.ss05
EndChar

StartChar: h
Encoding: 104 104 73
Width: 1220
Flags: MW
AnchorPoint: "cedilla" 909 0 basechar 0
AnchorPoint: "below" 610 0 basechar 0
AnchorPoint: "mid" 383 1057 basechar 0
AnchorPoint: "top" 276 1341 basechar 0
LayerCount: 2
Fore
SplineSet
414 84 m 1,0,1
 431 43 431 43 543 43 c 1,2,-1
 543 0 l 1,3,-1
 29 0 l 1,4,-1
 29 43 l 1,5,6
 141 43 141 43 158 84 c 1,7,-1
 158 1147 l 1,8,9
 48 1155 48 1155 29 1155 c 1,10,-1
 29 1202 l 1,11,12
 68 1202 68 1202 217 1246 c 128,-1,13
 366 1290 366 1290 414 1290 c 1,14,-1
 414 842 l 1,15,16
 537 922 537 922 657 922 c 0,17,18
 860 922 860 922 964.5 856 c 128,-1,19
 1069 790 1069 790 1069 639 c 2,20,-1
 1069 84 l 1,21,22
 1086 43 1086 43 1198 43 c 1,23,-1
 1198 0 l 1,24,-1
 684 0 l 1,25,-1
 684 43 l 1,26,27
 796 43 796 43 813 84 c 1,28,-1
 813 590 l 2,29,30
 813 732 813 732 771 792 c 128,-1,31
 729 852 729 852 645 852 c 0,32,33
 522 852 522 852 414 778 c 1,34,-1
 414 84 l 1,0,1
EndSplineSet
Validated: 1
EndChar

StartChar: i
Encoding: 105 105 74
Width: 591
Flags: MW
AnchorPoint: "mid" 301 532 basechar 0
AnchorPoint: "ogonek" 410 0 basechar 0
AnchorPoint: "cedilla" 289 0 basechar 0
AnchorPoint: "below" 289 0 basechar 0
AnchorPoint: "top" 293 1270 basechar 0
LayerCount: 2
Fore
SplineSet
434 84 m 1,0,1
 451 43 451 43 563 43 c 1,2,-1
 563 0 l 1,3,-1
 49 0 l 1,4,-1
 49 43 l 1,5,6
 161 43 161 43 178 84 c 1,7,-1
 178 778 l 1,8,9
 72 786 72 786 49 786 c 1,10,-1
 49 834 l 1,11,12
 88 834 88 834 237 878 c 128,-1,13
 386 922 386 922 434 922 c 1,14,-1
 434 84 l 1,0,1
398 1088.5 m 128,-1,16
 352 1053 352 1053 301.5 1053 c 128,-1,17
 251 1053 251 1053 201.5 1088.5 c 128,-1,18
 152 1124 152 1124 152 1170.5 c 128,-1,19
 152 1217 152 1217 198 1253.5 c 128,-1,20
 244 1290 244 1290 294 1290 c 128,-1,21
 344 1290 344 1290 394 1253.5 c 128,-1,22
 444 1217 444 1217 444 1170.5 c 128,-1,15
 444 1124 444 1124 398 1088.5 c 128,-1,16
EndSplineSet
Validated: 1
EndChar

StartChar: j
Encoding: 106 106 75
Width: 528
Flags: MW
AnchorPoint: "top" 272 1270 basechar 0
LayerCount: 2
Fore
SplineSet
374.5 1090.5 m 128,-1,1
 327 1055 327 1055 277 1055 c 128,-1,2
 227 1055 227 1055 178 1090.5 c 128,-1,3
 129 1126 129 1126 129 1172.5 c 128,-1,4
 129 1219 129 1219 174.5 1255.5 c 128,-1,5
 220 1292 220 1292 270 1292 c 128,-1,6
 320 1292 320 1292 371 1255.5 c 128,-1,7
 422 1219 422 1219 422 1172.5 c 128,-1,0
 422 1126 422 1126 374.5 1090.5 c 128,-1,1
86 -408 m 0,8,9
 -180 -408 -180 -408 -180 -229 c 0,10,11
 -180 -185 -180 -185 -155 -154 c 128,-1,12
 -130 -123 -130 -123 -84.5 -123 c 128,-1,13
 -39 -123 -39 -123 -15.5 -154.5 c 128,-1,14
 8 -186 8 -186 8 -221 c 128,-1,15
 8 -256 8 -256 -12 -276 c 1,16,17
 -12 -346 -12 -346 66 -346 c 0,18,19
 105 -346 105 -346 130.5 -287.5 c 128,-1,20
 156 -229 156 -229 156 -117 c 2,21,-1
 156 780 l 1,22,23
 50 788 50 788 27 788 c 1,24,-1
 27 836 l 1,25,26
 66 836 66 836 215 880 c 128,-1,27
 364 924 364 924 412 924 c 1,28,-1
 412 -88 l 2,29,30
 412 -260 412 -260 300 -338 c 0,31,32
 202 -408 202 -408 86 -408 c 0,8,9
EndSplineSet
Validated: 1
EndChar

StartChar: k
Encoding: 107 107 76
Width: 1126
Flags: MW
AnchorPoint: "below" 602 0 basechar 0
AnchorPoint: "cedilla" 274 0 basechar 0
AnchorPoint: "mid" 279 532 basechar 0
AnchorPoint: "top" 281 1341 basechar 0
LayerCount: 2
Fore
SplineSet
414 84 m 1,0,1
 431 43 431 43 543 43 c 1,2,-1
 543 0 l 1,3,-1
 29 0 l 1,4,-1
 29 43 l 1,5,6
 141 43 141 43 158 84 c 1,7,-1
 158 1147 l 1,8,9
 48 1155 48 1155 29 1155 c 1,10,-1
 29 1202 l 1,11,12
 68 1202 68 1202 217 1246 c 128,-1,13
 366 1290 366 1290 414 1290 c 1,14,-1
 414 84 l 1,0,1
692 0 m 1,15,-1
 692 43 l 1,16,17
 743 43 743 43 770 49 c 1,18,-1
 428 520 l 1,19,-1
 791 846 l 1,20,21
 761 858 761 858 690 858 c 1,22,-1
 690 901 l 1,23,-1
 1012 901 l 1,24,-1
 1012 858 l 1,25,26
 931 858 931 858 901 831 c 2,27,-1
 653 610 l 1,28,-1
 1034 82 l 2,29,30
 1049 60 1049 60 1077 51.5 c 128,-1,31
 1105 43 1105 43 1163 43 c 1,32,-1
 1163 0 l 1,33,-1
 692 0 l 1,15,-1
EndSplineSet
Validated: 1
EndChar

StartChar: l
Encoding: 108 108 77
Width: 571
Flags: MW
AnchorPoint: "mid" 281 698 basechar 0
AnchorPoint: "below" 279 0 basechar 0
AnchorPoint: "cedilla" 279 0 basechar 0
AnchorPoint: "top" 281 1341 basechar 0
LayerCount: 2
Fore
SplineSet
414 84 m 1,0,1
 431 43 431 43 543 43 c 1,2,-1
 543 0 l 1,3,-1
 29 0 l 1,4,-1
 29 43 l 1,5,6
 141 43 141 43 158 84 c 1,7,-1
 158 1147 l 1,8,9
 48 1155 48 1155 29 1155 c 1,10,-1
 29 1202 l 1,11,12
 68 1202 68 1202 217 1246 c 128,-1,13
 366 1290 366 1290 414 1290 c 1,14,-1
 414 84 l 1,0,1
EndSplineSet
Validated: 1
EndChar

StartChar: m
Encoding: 109 109 78
Width: 1794
Flags: W
HStem: 0 43<49 160.923 451.077 563 659 770.923 1061.16 1174 1270 1381.92 1672.16 1785> 786 48<49 163.785> 852 70<540.055 742.125 1152.88 1355.69>
VStem: 178 256<52.0088 767.569> 788 256<52.6194 765.594> 1399 256<52.6194 786.337>
AnchorPoint: "mid" 915 455 basechar 0
AnchorPoint: "cedilla" 915 0 basechar 0
AnchorPoint: "below" 915 0 basechar 0
AnchorPoint: "top" 920 1055 basechar 0
LayerCount: 2
Back
SplineSet
1655 612 m 6
 1655 84 l 5
 1666 57 1710 43 1785 43 c 5
 1785 0 l 5
 1270 0 l 5
 1270 43 l 5
 1345 43 1388 57 1399 84 c 5
 1399 597 l 6
 1399 769 1369 852 1279 852 c 132
 1127 852 1068 743 1013 661 c 5
 963 713 l 5
 1004 774 1118 922 1295 922 c 4
 1548 922 1655 801 1655 612 c 6
49 0 m 5
 49 43 l 5
 124 43 167 57 178 84 c 5
 178 778 l 5
 105 783 62 786 49 786 c 5
 49 834 l 5
 75 834 138 849 237 878 c 132
 336 907 402 922 434 922 c 5
 434 84 l 5
 445 57 488 43 563 43 c 5
 563 0 l 5
1044 701 m 6
 1044 84 l 5
 1055 57 1099 43 1174 43 c 5
 1174 0 l 5
 659 0 l 5
 659 43 l 5
 734 43 777 57 788 84 c 5
 788 597 l 6
 788 769 758 852 668 852 c 132
 516 852 457 743 402 661 c 5
 352 713 l 5
 393 774 507 922 684 922 c 4
 805 922 1044 890 1044 701 c 6
EndSplineSet
Fore
SplineSet
1022 788 m 1,0,1
 1150 922 1150 922 1295 922 c 0,2,3
 1479 922 1479 922 1567 840.5 c 128,-1,4
 1655 759 1655 759 1655 612 c 2,5,-1
 1655 84 l 1,6,7
 1672 43 1672 43 1785 43 c 1,8,-1
 1785 0 l 1,9,-1
 1270 0 l 1,10,-1
 1270 43 l 1,11,12
 1382 43 1382 43 1399 84 c 1,13,-1
 1399 597 l 2,14,15
 1399 730 1399 730 1372 791 c 128,-1,16
 1345 852 1345 852 1277.5 852 c 128,-1,17
 1210 852 1210 852 1178.5 834 c 128,-1,18
 1147 816 1147 816 1133.5 807.5 c 128,-1,19
 1120 799 1120 799 1082 759 c 128,-1,20
 1044 719 1044 719 1044 701 c 2,21,-1
 1044 84 l 1,22,23
 1061 43 1061 43 1174 43 c 1,24,-1
 1174 0 l 1,25,-1
 659 0 l 1,26,-1
 659 43 l 1,27,28
 771 43 771 43 788 84 c 1,29,-1
 788 597 l 2,30,31
 788 730 788 730 761 791 c 128,-1,32
 734 852 734 852 666.5 852 c 128,-1,33
 599 852 599 852 567.5 834 c 128,-1,34
 536 816 536 816 522 807.5 c 128,-1,35
 508 799 508 799 476.5 765.5 c 128,-1,36
 445 732 445 732 434 709 c 1,37,-1
 434 84 l 1,38,39
 451 43 451 43 563 43 c 1,40,-1
 563 0 l 1,41,-1
 49 0 l 1,42,-1
 49 43 l 1,43,44
 161 43 161 43 178 84 c 1,45,-1
 178 778 l 1,46,47
 61 786 61 786 49 786 c 1,48,-1
 49 834 l 1,49,50
 87 834 87 834 237 878 c 128,-1,51
 387 922 387 922 434 922 c 1,52,-1
 434 811 l 1,53,54
 548 922 548 922 684 922 c 0,55,56
 947 922 947 922 1022 788 c 1,0,1
EndSplineSet
EndChar

StartChar: n
Encoding: 110 110 79
Width: 1222
Flags: W
HStem: 0 43<49 160.923 451.077 563 688 799.923 1090.16 1203> 786 48<49 163.785> 852 70<571.224 773.758>
VStem: 178 256<52.0088 731.637> 817 256<52.6194 775.811>
AnchorPoint: "below" 616 0 basechar 0
AnchorPoint: "cedilla" 940 0 basechar 0
AnchorPoint: "mid" 616 455 basechar 0
AnchorPoint: "top" 639 1057 basechar 0
LayerCount: 2
Back
SplineSet
49 0 m 5
 49 43 l 5
 124 43 167 57 178 84 c 5
 178 778 l 5
 105 783 62 786 49 786 c 5
 49 834 l 5
 75 834 138 849 237 878 c 132
 336 907 402 922 434 922 c 5
 434 84 l 5
 445 57 488 43 563 43 c 5
 563 0 l 5
1073 606 m 6
 1073 84 l 5
 1084 57 1128 43 1203 43 c 5
 1203 0 l 5
 688 0 l 5
 688 43 l 5
 763 43 806 57 817 84 c 5
 817 597 l 6
 817 769 787 852 697 852 c 132
 545 852 486 743 431 661 c 5
 381 713 l 5
 422 774 536 922 713 922 c 4
 834 922 1073 882 1073 606 c 6
EndSplineSet
Fore
SplineSet
434 781 m 1,0,1
 564 922 564 922 713 922 c 0,2,3
 966 922 966 922 1046 744 c 0,4,5
 1072 684 1072 684 1073 606 c 1,6,-1
 1073 84 l 1,7,8
 1090 43 1090 43 1203 43 c 1,9,-1
 1203 0 l 1,10,-1
 688 0 l 1,11,-1
 688 43 l 1,12,13
 800 43 800 43 817 84 c 1,14,-1
 817 597 l 2,15,16
 817 730 817 730 790 791 c 128,-1,17
 763 852 763 852 695.5 852 c 128,-1,18
 628 852 628 852 596.5 834 c 128,-1,19
 565 816 565 816 553.5 809 c 128,-1,20
 542 802 542 802 527 787 c 128,-1,21
 512 772 512 772 504.5 764 c 128,-1,22
 497 756 497 756 483.5 738 c 128,-1,23
 470 720 470 720 465.5 713 c 128,-1,24
 461 706 461 706 449.5 689 c 128,-1,25
 438 672 438 672 434 666 c 1,26,-1
 434 84 l 1,27,28
 451 43 451 43 563 43 c 1,29,-1
 563 0 l 1,30,-1
 49 0 l 1,31,-1
 49 43 l 1,32,33
 161 43 161 43 178 84 c 1,34,-1
 178 778 l 1,35,36
 61 786 61 786 49 786 c 1,37,-1
 49 834 l 1,38,39
 87 834 87 834 237 878 c 128,-1,40
 387 922 387 922 434 922 c 1,41,-1
 434 781 l 1,0,1
EndSplineSet
EndChar

StartChar: o
Encoding: 111 111 80
Width: 1116
Flags: MW
AnchorPoint: "top" 561 1055 basechar 0
AnchorPoint: "ogonek" 573 0 basechar 0
AnchorPoint: "cedilla" 573 0 basechar 0
AnchorPoint: "below" 573 0 basechar 0
AnchorPoint: "mid" 557 471 basechar 0
LayerCount: 2
Fore
SplineSet
594 41 m 0,0,1
 686 41 686 41 735 138 c 128,-1,2
 784 235 784 235 784 395 c 0,3,4
 784 646 784 646 726 752 c 128,-1,5
 668 858 668 858 518 858 c 0,6,7
 459 858 459 858 416 808 c 0,8,9
 332 710 332 710 332 488 c 0,10,11
 332 41 332 41 594 41 c 0,0,1
199 114.5 m 128,-1,13
 63 249 63 249 63 467 c 0,14,15
 63 656 63 656 180 785 c 0,16,17
 304 922 304 922 550 922 c 128,-1,18
 796 922 796 922 924 792 c 0,19,20
 1052 663 1052 663 1053 439 c 0,21,22
 1053 251 1053 251 938 120 c 0,23,24
 815 -21 815 -21 577 -21 c 0,25,26
 576 -20 576 -20 575 -20 c 1,27,12
 335 -20 335 -20 199 114.5 c 128,-1,13
EndSplineSet
Validated: 1
EndChar

StartChar: p
Encoding: 112 112 81
Width: 1173
Flags: MW
AnchorPoint: "mid" 305 446 basechar 0
AnchorPoint: "below" 643 0 basechar 0
AnchorPoint: "top" 631 1055 basechar 0
LayerCount: 2
Fore
SplineSet
414 -309 m 1,0,1
 431 -350 431 -350 543 -350 c 1,2,-1
 543 -393 l 1,3,-1
 29 -393 l 1,4,-1
 29 -350 l 1,5,6
 141 -350 141 -350 158 -309 c 1,7,-1
 158 776 l 1,8,9
 30 786 30 786 29 786 c 1,10,-1
 29 834 l 1,11,12
 68 834 68 834 217 878 c 128,-1,13
 366 922 366 922 414 922 c 1,14,-1
 414 866 l 1,15,16
 506 922 506 922 639 922 c 0,17,18
 990 922 990 922 1081 638 c 0,19,20
 1108 554 1108 554 1108 446 c 0,21,22
 1108 214 1108 214 974 97 c 128,-1,23
 840 -20 840 -20 594 -20 c 0,24,25
 490 -20 490 -20 414 14 c 1,26,-1
 414 -309 l 1,0,1
414 801 m 1,27,-1
 414 80 l 1,28,29
 490 49 490 49 591.5 49 c 128,-1,30
 693 49 693 49 767.5 152.5 c 128,-1,31
 842 256 842 256 842 446 c 0,32,33
 842 523 842 523 817 614.5 c 128,-1,34
 792 706 792 706 738.5 779 c 128,-1,35
 685 852 685 852 618 852 c 0,36,37
 493 852 493 852 414 801 c 1,27,-1
EndSplineSet
Validated: 1
EndChar

StartChar: q
Encoding: 113 113 82
Width: 1122
Flags: MW
LayerCount: 2
Fore
SplineSet
1006 -309 m 1,0,1
 1023 -350 1023 -350 1135 -350 c 1,2,-1
 1135 -393 l 1,3,-1
 621 -393 l 1,4,-1
 621 -350 l 1,5,6
 733 -350 733 -350 750 -309 c 1,7,-1
 750 29 l 1,8,9
 664 -20 664 -20 530 -20 c 0,10,11
 410 -20 410 -20 320 25 c 128,-1,12
 230 70 230 70 179.5 120 c 128,-1,13
 129 170 129 170 95 255 c 128,-1,14
 61 340 61 340 61 450 c 128,-1,15
 61 560 61 560 103.5 652.5 c 128,-1,16
 146 745 146 745 218 803 c 0,17,18
 367 922 367 922 575 922 c 0,19,20
 709 922 709 922 799 860 c 1,21,22
 950 922 950 922 1006 922 c 1,23,-1
 1006 -309 l 1,0,1
750 94 m 1,24,-1
 750 821 l 1,25,26
 674 852 674 852 588 852 c 0,27,28
 477 852 477 852 402.5 745.5 c 128,-1,29
 328 639 328 639 328 450.5 c 128,-1,30
 328 262 328 262 386.5 155.5 c 128,-1,31
 445 49 445 49 557 49 c 128,-1,32
 669 49 669 49 750 94 c 1,24,-1
EndSplineSet
Validated: 1
EndChar

StartChar: r
Encoding: 114 114 83
Width: 892
Flags: MW
AnchorPoint: "below" 311 0 basechar 0
AnchorPoint: "top" 514 1055 basechar 0
LayerCount: 2
Fore
SplineSet
434 84 m 1,0,1
 451 43 451 43 563 43 c 1,2,-1
 563 0 l 1,3,-1
 49 0 l 1,4,-1
 49 43 l 1,5,6
 161 43 161 43 178 84 c 1,7,-1
 178 778 l 1,8,9
 68 786 68 786 49 786 c 1,10,-1
 49 834 l 1,11,12
 88 834 88 834 237 878 c 128,-1,13
 386 922 386 922 434 922 c 1,14,-1
 434 836 l 1,15,16
 539 922 539 922 637 922 c 0,17,18
 773 922 773 922 832 887 c 128,-1,19
 891 852 891 852 891 801.5 c 128,-1,20
 891 751 891 751 861.5 721.5 c 128,-1,21
 832 692 832 692 791 692 c 128,-1,22
 750 692 750 692 727 708 c 128,-1,23
 704 724 704 724 694 748 c 0,24,-1
 678 796 l 0,25,26
 660 852 660 852 612 852 c 0,27,28
 534 852 534 852 434 766 c 1,29,-1
 434 84 l 1,0,1
EndSplineSet
Validated: 1
EndChar

StartChar: s
Encoding: 115 115 84
Width: 813
Flags: MW
AnchorPoint: "top" 414 1055 basechar 0
AnchorPoint: "below" 358 0 basechar 0
AnchorPoint: "cedilla" 358 0 basechar 0
AnchorPoint: "mid" 399 469 basechar 0
LayerCount: 2
Back
SplineSet
172 41 m 4
 155.333 41 147 27.3333 147 0 c 5
 98 0 l 5
 78 313 l 5
 123 313 l 5
 132.333 277.667 155 240 191 200 c 132
 227 160 266.833 126.833 310.5 100.5 c 132
 354.167 74.1667 391.333 61 422 61 c 4
 514.667 61 561 103.333 561 188 c 4
 561 220 529.667 252.667 467 286 c 4
 439 300.667 408.167 316.333 374.5 333 c 132
 340.833 349.667 307 368.667 273 390 c 4
 239 412.667 208 436.667 180 462 c 4
 117.333 519.333 86 588.167 86 668.5 c 132
 86 748.833 115 811.167 173 855.5 c 132
 231 899.833 300.333 922 381 922 c 4
 436.334 922 496.667 906.667 562 876 c 4
 583.333 865.333 598.667 860 608 860 c 4
 624.667 860 633 873.667 633 901 c 5
 680 901 l 5
 700 602 l 5
 655 602 l 5
 641 659.333 605.667 715.333 549 770 c 132
 492.333 824.667 440 852 392 852 c 4
 292 852 242 816.333 242 745 c 4
 242 716.333 275.667 684 343 648 c 4
 373 632 406 614.667 442 596 c 132
 478 577.333 514 556.5 550 533.5 c 132
 586 510.5 619 486 649 460 c 4
 716.333 401.333 750 331.167 750 249.5 c 132
 750 167.833 718 102.5 654 53.5 c 132
 590 4.5 507.333 -20 406 -20 c 4
 346 -20 283.667 -4.66667 219 26 c 4
 197 36.6667 181.333 41.6667 172 41 c 4
EndSplineSet
Fore
SplineSet
172 41 m 4,0,1
 147 41 147 41 147 0 c 5,2,-1
 98 0 l 5,3,-1
 78 313 l 5,4,-1
 123 313 l 5,5,6
 137 260 137 260 191 200 c 132,-1,7
 245 140 245 140 310.5 100.5 c 132,-1,8
 376 61 376 61 422 61 c 4,9,10
 561 61 561 61 561 188 c 4,11,12
 561 236 561 236 467 286 c 4,13,14
 425 308 425 308 374.5 333 c 132,-1,15
 324 358 324 358 273 390 c 4,16,17
 222 424 222 424 180 462 c 4,18,19
 86 548 86 548 86 668.5 c 132,-1,20
 86 789 86 789 173 855.5 c 132,-1,21
 260 922 260 922 381 922 c 4,22,23
 464 922 464 922 562 876 c 4,24,25
 594 860 594 860 608 860 c 4,26,27
 633 860 633 860 633 901 c 5,28,-1
 680 901 l 5,29,-1
 700 602 l 5,30,-1
 655 602 l 5,31,32
 634 688 634 688 549 770 c 132,-1,33
 464 852 464 852 392 852 c 4,34,35
 242 852 242 852 242 745 c 4,36,37
 242 702 242 702 343 648 c 4,38,39
 388 624 388 624 442 596 c 132,-1,40
 496 568 496 568 550 533.5 c 132,-1,41
 604 499 604 499 649 460 c 4,42,43
 750 372 750 372 750 249.5 c 132,-1,44
 750 127 750 127 654 53.5 c 132,-1,45
 558 -20 558 -20 406 -20 c 4,46,47
 316 -20 316 -20 219 26 c 4,48,49
 186 42 186 42 172 41 c 4,0,1
EndSplineSet
Validated: 1
EndChar

StartChar: t
Encoding: 116 116 85
Width: 724
Flags: MW
AnchorPoint: "top" 381 1270 basechar 0
AnchorPoint: "cedilla" 434 0 basechar 0
AnchorPoint: "below" 434 0 basechar 0
LayerCount: 2
Fore
SplineSet
426 1198 m 1,0,-1
 426 901 l 1,1,-1
 602 901 l 1,2,-1
 602 840 l 1,3,-1
 426 840 l 1,4,-1
 426 188 l 2,5,6
 426 124 426 124 449 90.5 c 128,-1,7
 472 57 472 57 520 57 c 128,-1,8
 568 57 568 57 606.5 93.5 c 128,-1,9
 645 130 645 130 659 193 c 1,10,-1
 709 168 l 1,11,12
 665 -20 665 -20 463 -20 c 0,13,14
 304 -20 304 -20 231 52.5 c 128,-1,15
 158 125 158 125 158 291 c 2,16,-1
 158 840 l 1,17,-1
 14 840 l 1,18,-1
 14 901 l 1,19,20
 135 901 135 901 225 992 c 128,-1,21
 315 1083 315 1083 315 1198 c 1,22,-1
 426 1198 l 1,0,-1
EndSplineSet
Validated: 1
EndChar

StartChar: u
Encoding: 117 117 86
Width: 1167
Flags: W
HStem: -20 69<448.538 683.788> 68 47<1026.52 1139> 858 43<20 132.844 625 736.923>
VStem: 150 256<110.911 848.381> 754 256<120.637 848.991>
AnchorPoint: "mid" 573 504 basechar 0
AnchorPoint: "ogonek" 801 0 basechar 0
AnchorPoint: "below" 584 0 basechar 0
AnchorPoint: "cedilla" 559 0 basechar 0
AnchorPoint: "top" 575 1055 basechar 0
LayerCount: 2
Back
SplineSet
754 817 m 5
 743 844 700 858 625 858 c 5
 625 901 l 5
 1010 901 l 5
 1010 123 l 5
 1083 118 1126 115 1139 115 c 5
 1139 68 l 5
 1113 68 1050 53 951 24 c 132
 852 -5 786 -20 754 -20 c 5
 754 817 l 5
406 256 m 6
 406 98 431 49 569 49 c 132
 711.5 49 778.335 176 814.335 239 c 5
 854.835 211.9 l 5
 815.835 143.9 739.5 -20 545 -20 c 4
 282 -20 150 77 150 270 c 6
 150 817 l 5
 139 844 95 858 20 858 c 5
 20 901 l 5
 406 901 l 5
 406 256 l 6
EndSplineSet
Fore
SplineSet
437 91.5 m 128,-1,1
 468 49 468 49 572 49 c 128,-1,2
 676 49 676 49 754 146 c 1,3,-1
 754 817 l 1,4,5
 737 858 737 858 625 858 c 1,6,-1
 625 901 l 1,7,-1
 1010 901 l 1,8,-1
 1010 123 l 1,9,10
 1127 115 1127 115 1139 115 c 1,11,-1
 1139 68 l 1,12,13
 1101 68 1101 68 951 24 c 128,-1,14
 801 -20 801 -20 754 -20 c 1,15,-1
 754 66 l 1,16,17
 735 45 735 45 702 25 c 0,18,19
 631 -20 631 -20 545 -20 c 0,20,21
 150 -20 150 -20 150 270 c 2,22,-1
 150 817 l 1,23,24
 133 858 133 858 20 858 c 1,25,-1
 20 901 l 1,26,-1
 406 901 l 1,27,-1
 406 256 l 2,28,0
 406 134 406 134 437 91.5 c 128,-1,1
EndSplineSet
EndChar

StartChar: v
Encoding: 118 118 87
Width: 1032
Flags: MW
AnchorPoint: "below" 514 0 basechar 0
AnchorPoint: "top" 559 1055 basechar 0
LayerCount: 2
Fore
SplineSet
430 0 m 1,0,-1
 104 817 l 2,1,2
 87 858 87 858 -25 858 c 1,3,-1
 -25 901 l 1,4,-1
 444 901 l 1,5,-1
 444 858 l 1,6,7
 385 858 385 858 358 850 c 1,8,-1
 602 250 l 1,9,-1
 836 836 l 1,10,11
 808 858 808 858 721 858 c 1,12,-1
 721 901 l 1,13,-1
 1057 901 l 1,14,-1
 1057 858 l 1,15,16
 944 858 944 858 928 817 c 2,17,-1
 602 0 l 1,18,-1
 430 0 l 1,0,-1
EndSplineSet
Validated: 1
EndChar

StartChar: w
Encoding: 119 119 88
Width: 1671
Flags: MW
AnchorPoint: "below" 844 0 basechar 0
AnchorPoint: "top" 829 1055 basechar 0
LayerCount: 2
Fore
SplineSet
1069 0 m 1,0,-1
 836 586 l 1,1,-1
 602 0 l 1,2,-1
 430 0 l 1,3,-1
 104 817 l 2,4,5
 87 858 87 858 -25 858 c 1,6,-1
 -25 901 l 1,7,-1
 444 901 l 1,8,-1
 444 858 l 1,9,10
 385 858 385 858 358 850 c 1,11,-1
 602 250 l 1,12,-1
 786 711 l 1,13,-1
 743 817 l 2,14,15
 726 858 726 858 614 858 c 1,16,-1
 614 901 l 1,17,-1
 1083 901 l 1,18,-1
 1083 858 l 1,19,20
 1024 858 1024 858 997 850 c 1,21,-1
 1241 250 l 1,22,-1
 1475 836 l 1,23,24
 1447 858 1447 858 1360 858 c 1,25,-1
 1360 901 l 1,26,-1
 1696 901 l 1,27,-1
 1696 858 l 1,28,29
 1591 858 1591 858 1571 825 c 1,30,-1
 1241 0 l 1,31,-1
 1069 0 l 1,0,-1
EndSplineSet
Validated: 1
EndChar

StartChar: x
Encoding: 120 120 89
Width: 993
Flags: MW
LayerCount: 2
Fore
SplineSet
944 901 m 1,0,-1
 944 858 l 1,1,2
 833 858 833 858 807 819 c 1,3,-1
 598 543 l 1,4,-1
 891 72 l 2,5,6
 908 43 908 43 1012 43 c 1,7,-1
 1012 0 l 1,8,-1
 543 0 l 1,9,-1
 543 43 l 1,10,11
 594 43 594 43 621 49 c 1,12,-1
 442 336 l 1,13,-1
 233 55 l 1,14,15
 260 43 260 43 332 43 c 1,16,-1
 332 0 l 1,17,-1
 2 0 l 1,18,-1
 2 43 l 1,19,20
 113 43 113 43 141 84 c 1,21,-1
 391 418 l 1,22,-1
 135 829 l 2,23,24
 118 858 118 858 16 858 c 1,25,-1
 16 901 l 1,26,-1
 485 901 l 1,27,-1
 485 858 l 1,28,29
 436 858 436 858 406 852 c 1,30,-1
 547 625 l 1,31,-1
 713 846 l 1,32,33
 686 858 686 858 614 858 c 1,34,-1
 614 901 l 1,35,-1
 944 901 l 1,0,-1
EndSplineSet
Validated: 1
EndChar

StartChar: y
Encoding: 121 121 90
Width: 1032
Flags: MW
AnchorPoint: "below" 680 0 basechar 0
AnchorPoint: "ogonek" 750 0 basechar 0
AnchorPoint: "top" 590 1055 basechar 0
LayerCount: 2
Fore
SplineSet
444 901 m 1,0,-1
 444 858 l 1,1,2
 385 858 385 858 358 850 c 1,3,-1
 602 250 l 1,4,-1
 836 836 l 1,5,6
 808 858 808 858 721 858 c 1,7,-1
 721 901 l 1,8,-1
 1057 901 l 1,9,-1
 1057 858 l 1,10,11
 945 858 945 858 932 825 c 2,12,-1
 518 -209 l 2,13,14
 466 -340 466 -340 354 -370 c 0,15,16
 328 -377 328 -377 303 -377 c 0,17,18
 154 -377 154 -377 154 -279 c 0,19,20
 154 -243 154 -243 177 -220 c 128,-1,21
 200 -197 200 -197 233 -197 c 0,22,23
 266 -196 266 -196 280 -206 c 0,24,25
 296 -216 296 -216 302 -228 c 0,26,27
 319 -258 319 -258 360 -258 c 128,-1,28
 401 -258 401 -258 414 -221 c 1,29,-1
 467 -90 l 1,30,-1
 104 817 l 2,31,32
 87 858 87 858 -25 858 c 1,33,-1
 -25 901 l 1,34,-1
 444 901 l 1,0,-1
EndSplineSet
Validated: 1
EndChar

StartChar: z
Encoding: 122 122 91
Width: 847
Flags: MW
AnchorPoint: "mid" 430 483 basechar 0
AnchorPoint: "below" 420 0 basechar 0
AnchorPoint: "cedilla" 420 0 basechar 0
AnchorPoint: "top" 432 1055 basechar 0
LayerCount: 2
Fore
SplineSet
782 0 m 1,0,-1
 25 0 l 1,1,-1
 500 840 l 1,2,-1
 205 840 l 1,3,4
 178 829 178 829 155.5 791.5 c 128,-1,5
 133 754 133 754 133 696 c 1,6,-1
 90 696 l 1,7,-1
 90 901 l 1,8,-1
 799 901 l 1,9,-1
 324 61 l 1,10,-1
 668 61 l 1,11,12
 694 72 694 72 716.5 112 c 128,-1,13
 739 152 739 152 739 211 c 1,14,-1
 782 211 l 1,15,-1
 782 0 l 1,0,-1
EndSplineSet
Validated: 1
EndChar

StartChar: braceleft
Encoding: 123 123 92
Width: 563
Flags: MW
LayerCount: 2
Fore
SplineSet
399 289 m 1,0,-1
 377 -143 l 1,1,2
 377 -214 377 -214 407.5 -239 c 128,-1,3
 438 -264 438 -264 514 -264 c 1,4,-1
 514 -313 l 1,5,6
 341 -313 341 -313 252.5 -257.5 c 128,-1,7
 164 -202 164 -202 164 -125 c 1,8,-1
 182 307 l 1,9,10
 182 377 182 377 145 402.5 c 128,-1,11
 108 428 108 428 29 428 c 1,12,-1
 29 475 l 1,13,14
 107 475 107 475 144.5 501.5 c 128,-1,15
 182 528 182 528 182 598 c 1,16,-1
 164 1028 l 1,17,18
 164 1105 164 1105 252.5 1161 c 128,-1,19
 341 1217 341 1217 514 1217 c 1,20,-1
 514 1169 l 1,21,22
 438 1169 438 1169 407.5 1143.5 c 128,-1,23
 377 1118 377 1118 377 1047 c 1,24,-1
 399 616 l 1,25,26
 399 571 399 571 342 526 c 128,-1,27
 285 481 285 481 205 453 c 1,28,29
 284 425 284 425 341.5 379.5 c 128,-1,30
 399 334 399 334 399 289 c 1,0,-1
EndSplineSet
Validated: 1
EndChar

StartChar: bar
Encoding: 124 124 93
Width: 362
Flags: MW
LayerCount: 2
Fore
SplineSet
129 1331 m 1,0,-1
 233 1331 l 1,1,-1
 233 -61 l 1,2,-1
 129 -61 l 1,3,-1
 129 1331 l 1,0,-1
EndSplineSet
Validated: 1
EndChar

StartChar: braceright
Encoding: 125 125 94
Width: 563
Flags: MW
LayerCount: 2
Fore
SplineSet
381 307 m 1,0,-1
 399 -125 l 1,1,2
 399 -202 399 -202 310.5 -257.5 c 128,-1,3
 222 -313 222 -313 49 -313 c 1,4,-1
 49 -264 l 1,5,6
 125 -264 125 -264 155.5 -239 c 128,-1,7
 186 -214 186 -214 186 -143 c 1,8,-1
 164 289 l 1,9,10
 164 334 164 334 221.5 379.5 c 128,-1,11
 279 425 279 425 358 453 c 1,12,13
 278 481 278 481 221 526 c 128,-1,14
 164 571 164 571 164 616 c 1,15,-1
 186 1047 l 1,16,17
 186 1118 186 1118 155.5 1143.5 c 128,-1,18
 125 1169 125 1169 49 1169 c 1,19,-1
 49 1217 l 1,20,21
 222 1217 222 1217 310.5 1161 c 128,-1,22
 399 1105 399 1105 399 1028 c 1,23,-1
 381 598 l 1,24,25
 381 528 381 528 418.5 501.5 c 128,-1,26
 456 475 456 475 535 475 c 1,27,-1
 535 428 l 1,28,29
 456 428 456 428 418.5 402.5 c 128,-1,30
 381 377 381 377 381 307 c 1,0,-1
EndSplineSet
Validated: 1
EndChar

StartChar: asciitilde
Encoding: 126 126 95
Width: 1083
Flags: MW
LayerCount: 2
Fore
SplineSet
774 426 m 0,0,1
 714 426 714 426 523 486.5 c 128,-1,2
 332 547 332 547 295 547 c 0,3,4
 215 547 215 547 187.5 521 c 128,-1,5
 160 495 160 495 160 426 c 1,6,-1
 106 426 l 1,7,8
 106 696 106 696 315 696 c 0,9,10
 375 696 375 696 567.5 635.5 c 128,-1,11
 760 575 760 575 797 575 c 0,12,13
 877 575 877 575 904.5 601 c 128,-1,14
 932 627 932 627 932 696 c 1,15,-1
 985 696 l 1,16,17
 985 426 985 426 774 426 c 0,0,1
EndSplineSet
Validated: 1
EndChar

StartChar: exclamdown
Encoding: 161 161 97
Width: 481
Flags: MW
LayerCount: 2
Fore
SplineSet
334.5 1050.5 m 128,-1,1
 381 1016 381 1016 381 957 c 128,-1,2
 381 898 381 898 339 862.5 c 128,-1,3
 297 827 297 827 245 827 c 128,-1,4
 193 827 193 827 145.5 861 c 128,-1,5
 98 895 98 895 98 953.5 c 128,-1,6
 98 1012 98 1012 141.5 1048.5 c 128,-1,7
 185 1085 185 1085 236.5 1085 c 128,-1,0
 288 1085 288 1085 334.5 1050.5 c 128,-1,1
242 643 m 128,-1,9
 266 643 266 643 288.5 589.5 c 128,-1,10
 311 536 311 536 323 446 c 0,11,12
 377 39 377 39 377 -86 c 0,13,14
 377 -155 377 -155 334.5 -190 c 128,-1,15
 292 -225 292 -225 242 -225 c 128,-1,16
 192 -225 192 -225 149 -190 c 128,-1,17
 106 -155 106 -155 106 -84 c 128,-1,18
 106 -13 106 -13 128 179.5 c 128,-1,19
 150 372 150 372 161.5 454 c 128,-1,20
 173 536 173 536 195.5 589.5 c 128,-1,8
 218 643 218 643 242 643 c 128,-1,9
EndSplineSet
Validated: 1
EndChar

StartChar: cent
Encoding: 162 162 98
Width: 966
Flags: MW
LayerCount: 2
Fore
SplineSet
596 1178 m 1,0,-1
 690 1159 l 1,1,-1
 647 911 l 1,2,3
 858 872 858 872 858 705 c 0,4,5
 858 659 858 659 834 630.5 c 128,-1,6
 810 602 810 602 771.5 602 c 128,-1,7
 733 602 733 602 705.5 620.5 c 128,-1,8
 678 639 678 639 678 678 c 128,-1,9
 678 717 678 717 699.5 737.5 c 128,-1,10
 721 758 721 758 750 758 c 1,11,12
 730 832 730 832 637 852 c 1,13,-1
 500 74 l 1,14,15
 539 57 539 57 603 57 c 0,16,17
 752 57 752 57 862 193 c 1,18,-1
 911 168 l 1,19,20
 851 71 851 71 756.5 25.5 c 128,-1,21
 662 -20 662 -20 506 -20 c 2,22,-1
 483 -20 l 1,23,-1
 440 -262 l 1,24,-1
 344 -244 l 1,25,-1
 387 -6 l 1,26,27
 255 26 255 26 165 134 c 0,28,29
 63 256 63 256 63 496 c 0,30,31
 63 670 63 670 185 794 c 0,32,33
 311 922 311 922 520 922 c 2,34,-1
 551 922 l 1,35,-1
 596 1178 l 1,0,-1
414 143 m 1,36,-1
 541 860 l 1,37,38
 309 860 309 860 309 504 c 0,39,40
 309 398 309 398 337 302 c 128,-1,41
 365 206 365 206 414 143 c 1,36,-1
EndSplineSet
Validated: 1
EndChar

StartChar: sterling
Encoding: 163 163 99
Width: 1087
Flags: MW
LayerCount: 2
Fore
SplineSet
547 207 m 1,0,1
 625 178 625 178 707.5 178 c 128,-1,2
 790 178 790 178 855 192 c 128,-1,3
 920 206 920 206 945.5 222 c 128,-1,4
 971 238 971 238 988 252 c 128,-1,5
 1005 266 1005 266 1010 266 c 0,6,7
 1030 266 1030 266 1030 242 c 0,8,9
 1030 226 1030 226 1008 180.5 c 128,-1,10
 986 135 986 135 960 104 c 128,-1,11
 934 73 934 73 900 46 c 0,12,13
 823 -16 823 -16 703 -16 c 1,14,15
 700 -17 700 -17 696 -17 c 0,16,17
 649 -17 649 -17 469 80 c 1,18,19
 379 -20 379 -20 271 -20 c 128,-1,20
 163 -20 163 -20 110 35.5 c 128,-1,21
 57 91 57 91 57 158.5 c 128,-1,22
 57 226 57 226 113 279 c 128,-1,23
 169 332 169 332 221 332 c 128,-1,24
 273 332 273 332 332 313 c 1,25,26
 332 374 332 374 316.5 497.5 c 128,-1,27
 301 621 301 621 299 707 c 1,28,-1
 180 707 l 1,29,-1
 180 797 l 1,30,-1
 301 797 l 1,31,32
 318 1219 318 1219 612 1219 c 0,33,34
 748 1219 748 1219 834 1172 c 128,-1,35
 920 1125 920 1125 920 1040 c 0,36,37
 920 1003 920 1003 892.5 980.5 c 128,-1,38
 865 958 865 958 832 958 c 128,-1,39
 799 958 799 958 775.5 980.5 c 128,-1,40
 752 1003 752 1003 752 1035 c 128,-1,41
 752 1067 752 1067 772 1087 c 1,42,43
 772 1121 772 1121 735 1139 c 128,-1,44
 698 1157 698 1157 655 1157 c 0,45,46
 597 1157 597 1157 577 1081 c 128,-1,47
 557 1005 557 1005 555 797 c 1,48,-1
 721 797 l 1,49,-1
 721 707 l 1,50,-1
 557 707 l 1,51,52
 559 658 559 658 567 548 c 128,-1,53
 575 438 575 438 575 360.5 c 128,-1,54
 575 283 575 283 547 207 c 1,0,1
330 213 m 1,55,56
 274 262 274 262 232 262 c 128,-1,57
 190 262 190 262 158.5 233.5 c 128,-1,58
 127 205 127 205 127 159.5 c 128,-1,59
 127 114 127 114 163 81.5 c 128,-1,60
 199 49 199 49 243 49 c 128,-1,61
 287 49 287 49 305.5 85.5 c 128,-1,62
 324 122 324 122 330 213 c 1,55,56
EndSplineSet
Validated: 1
EndChar

StartChar: currency
Encoding: 164 164 100
Width: 1030
Flags: MW
LayerCount: 2
Fore
SplineSet
223 537 m 128,-1,1
 223 416 223 416 308.5 330 c 128,-1,2
 394 244 394 244 516 244 c 128,-1,3
 638 244 638 244 723.5 330 c 128,-1,4
 809 416 809 416 809 537 c 128,-1,5
 809 658 809 658 723.5 743.5 c 128,-1,6
 638 829 638 829 516 829 c 128,-1,7
 394 829 394 829 308.5 743.5 c 128,-1,0
 223 658 223 658 223 537 c 128,-1,1
211 301 m 1,8,9
 131 409 131 409 131 538 c 0,10,11
 131 667 131 667 215 776 c 1,12,-1
 100 889 l 1,13,-1
 166 954 l 1,14,-1
 279 840 l 1,15,16
 384 922 384 922 514 922 c 0,17,18
 644 922 644 922 752 842 c 1,19,-1
 862 954 l 1,20,-1
 928 889 l 1,21,-1
 817 778 l 1,22,23
 901 673 901 673 901 539 c 0,24,25
 901 405 901 405 819 299 c 1,26,-1
 928 193 l 1,27,-1
 862 127 l 1,28,-1
 756 236 l 1,29,30
 647 152 647 152 513 152 c 0,31,32
 379 152 379 152 274 236 c 1,33,-1
 166 127 l 1,34,-1
 100 193 l 1,35,-1
 211 301 l 1,8,9
EndSplineSet
Validated: 1
EndChar

StartChar: yen
Encoding: 165 165 101
Width: 1144
Flags: MW
LayerCount: 2
Fore
SplineSet
690 84 m 1,0,1
 707 43 707 43 819 43 c 1,2,-1
 819 0 l 1,3,-1
 373 0 l 1,4,-1
 373 43 l 1,5,6
 485 43 485 43 502 84 c 1,7,-1
 502 156 l 1,8,-1
 324 156 l 1,9,-1
 324 246 l 1,10,-1
 502 246 l 1,11,-1
 502 293 l 1,12,-1
 475 360 l 1,13,-1
 324 360 l 1,14,-1
 324 451 l 1,15,-1
 438 451 l 1,16,-1
 174 1114 l 2,17,18
 157 1155 157 1155 45 1155 c 1,19,-1
 45 1198 l 1,20,-1
 514 1198 l 1,21,-1
 514 1155 l 1,22,23
 455 1155 455 1155 428 1147 c 1,24,-1
 657 584 l 1,25,-1
 874 1133 l 1,26,27
 846 1155 846 1155 760 1155 c 1,28,-1
 760 1198 l 1,29,-1
 1096 1198 l 1,30,-1
 1096 1155 l 1,31,32
 983 1155 983 1155 969 1116 c 1,33,-1
 702 451 l 1,34,-1
 864 451 l 1,35,-1
 864 360 l 1,36,-1
 690 360 l 1,37,-1
 690 246 l 1,38,-1
 864 246 l 1,39,-1
 864 156 l 1,40,-1
 690 156 l 1,41,-1
 690 84 l 1,0,1
EndSplineSet
Validated: 1
EndChar

StartChar: brokenbar
Encoding: 166 166 102
Width: 374
Flags: MW
LayerCount: 2
Fore
SplineSet
135 1331 m 1,0,-1
 240 1331 l 1,1,-1
 240 741 l 1,2,-1
 135 741 l 1,3,-1
 135 1331 l 1,0,-1
135 528 m 1,4,-1
 240 528 l 1,5,-1
 240 -61 l 1,6,-1
 135 -61 l 1,7,-1
 135 528 l 1,4,-1
EndSplineSet
Validated: 1
EndChar

StartChar: section
Encoding: 167 167 103
Width: 823
Flags: MW
LayerCount: 2
Fore
SplineSet
264 745 m 1,0,1
 127 894 127 894 127 1001.5 c 128,-1,2
 127 1109 127 1109 216 1165 c 128,-1,3
 305 1221 305 1221 449 1221 c 0,4,5
 541 1221 541 1221 618.5 1147.5 c 128,-1,6
 696 1074 696 1074 696 1030 c 0,7,8
 696 938 696 938 627 938 c 0,9,10
 598 938 598 938 575.5 961 c 128,-1,11
 553 984 553 984 553 1028.5 c 128,-1,12
 553 1073 553 1073 520.5 1126.5 c 128,-1,13
 488 1180 488 1180 428.5 1180 c 128,-1,14
 369 1180 369 1180 341 1155.5 c 128,-1,15
 313 1131 313 1131 313 1057 c 0,16,17
 314 998 314 998 468 834 c 0,18,19
 532 766 532 766 596 694 c 0,20,21
 750 520 750 520 750 406 c 0,22,23
 750 161 750 161 559 90 c 1,24,25
 625 17 625 17 660.5 -45 c 128,-1,26
 696 -107 696 -107 696 -172 c 0,27,28
 696 -274 696 -274 607.5 -329.5 c 128,-1,29
 519 -385 519 -385 375 -385 c 0,30,31
 283 -385 283 -385 205 -311.5 c 128,-1,32
 127 -238 127 -238 127 -184 c 0,33,34
 127 -151 127 -151 145.5 -126.5 c 128,-1,35
 164 -102 164 -102 195 -102 c 128,-1,36
 226 -102 226 -102 248 -125 c 128,-1,37
 270 -148 270 -148 270 -192.5 c 128,-1,38
 270 -237 270 -237 302.5 -290.5 c 128,-1,39
 335 -344 335 -344 394.5 -344 c 128,-1,40
 454 -344 454 -344 482 -319.5 c 128,-1,41
 510 -295 510 -295 510 -221 c 0,42,43
 510 -162 510 -162 356 2 c 0,44,45
 292 70 292 70 228 142 c 0,46,47
 74 316 74 316 74 430 c 0,48,49
 74 674 74 674 264 745 c 1,0,1
502 152 m 1,50,51
 575 192 575 192 575 287 c 0,52,53
 574 389 574 389 500 486 c 0,54,55
 434 572 434 572 381.5 624.5 c 128,-1,56
 329 677 329 677 322 684 c 1,57,58
 248 643 248 643 248 549 c 0,59,60
 248 448 248 448 322 351 c 0,61,62
 382 272 382 272 502 152 c 1,50,51
EndSplineSet
Validated: 1
EndChar

StartChar: dieresis
Encoding: 168 168 104
Width: 823
Flags: MW
LayerCount: 2
Fore
SplineSet
487 1145 m 0,0,1
 487 1194 487 1194 522 1230 c 0,2,3
 556 1266 556 1266 606 1266 c 128,-1,4
 656 1266 656 1266 691.5 1230 c 128,-1,5
 727 1194 727 1194 727 1145 c 128,-1,6
 727 1096 727 1096 691.5 1060 c 128,-1,7
 656 1024 656 1024 606 1024 c 128,-1,8
 556 1024 556 1024 521.5 1059.5 c 128,-1,9
 487 1095 487 1095 487 1145 c 0,0,1
96 1145 m 128,-1,11
 96 1194 96 1194 132 1230 c 128,-1,12
 168 1266 168 1266 217 1266 c 128,-1,13
 266 1266 266 1266 301 1230.5 c 128,-1,14
 336 1195 336 1195 336 1145 c 128,-1,15
 336 1095 336 1095 301 1059.5 c 128,-1,16
 266 1024 266 1024 217 1024 c 128,-1,17
 168 1024 168 1024 132 1060 c 128,-1,10
 96 1096 96 1096 96 1145 c 128,-1,11
EndSplineSet
Validated: 1
EndChar

StartChar: copyright
Encoding: 169 169 105
Width: 1302
Flags: MW
LayerCount: 2
Fore
SplineSet
141 549 m 128,-1,1
 141 411 141 411 209.5 293.5 c 128,-1,2
 278 176 278 176 395.5 107.5 c 128,-1,3
 513 39 513 39 651 39 c 128,-1,4
 789 39 789 39 906.5 107.5 c 128,-1,5
 1024 176 1024 176 1092.5 293.5 c 128,-1,6
 1161 411 1161 411 1161 549 c 128,-1,7
 1161 687 1161 687 1092.5 804.5 c 128,-1,8
 1024 922 1024 922 906.5 990.5 c 128,-1,9
 789 1059 789 1059 651 1059 c 128,-1,10
 513 1059 513 1059 395.5 990.5 c 128,-1,11
 278 922 278 922 209.5 804.5 c 128,-1,0
 141 687 141 687 141 549 c 128,-1,1
86 549 m 128,-1,13
 86 702 86 702 162 832 c 128,-1,14
 238 962 238 962 368 1038 c 128,-1,15
 498 1114 498 1114 651 1114 c 128,-1,16
 804 1114 804 1114 934.5 1038 c 128,-1,17
 1065 962 1065 962 1141 832 c 128,-1,18
 1217 702 1217 702 1217 549 c 128,-1,19
 1217 396 1217 396 1141 266 c 128,-1,20
 1065 136 1065 136 934.5 60 c 128,-1,21
 804 -16 804 -16 651 -16 c 128,-1,22
 498 -16 498 -16 368 60 c 128,-1,23
 238 136 238 136 162 266 c 128,-1,12
 86 396 86 396 86 549 c 128,-1,13
778.5 778 m 128,-1,25
 751 809 751 809 679.5 809 c 128,-1,26
 608 809 608 809 563 746 c 128,-1,27
 518 683 518 683 518 559.5 c 128,-1,28
 518 436 518 436 567 371.5 c 128,-1,29
 616 307 616 307 682 307 c 0,30,31
 797 307 797 307 836 414 c 1,32,-1
 899 387 l 1,33,34
 841 238 841 238 682.5 238 c 128,-1,35
 524 238 524 238 437 322.5 c 128,-1,36
 350 407 350 407 350 549 c 0,37,38
 350 749 350 749 500 834 c 0,39,40
 580 879 580 879 690 879 c 0,41,42
 738 879 738 879 769 863.5 c 128,-1,43
 800 848 800 848 802.5 848 c 128,-1,44
 805 848 805 848 805 868 c 1,45,-1
 850 868 l 1,46,-1
 862 694 l 1,47,-1
 821 694 l 1,48,24
 806 747 806 747 778.5 778 c 128,-1,25
EndSplineSet
Validated: 1
EndChar

StartChar: ordfeminine
Encoding: 170 170 106
Width: 823
Flags: MW
LayerCount: 2
Fore
SplineSet
115 317 m 1,0,-1
 723 317 l 1,1,-1
 723 264 l 1,2,-1
 115 264 l 1,3,-1
 115 317 l 1,0,-1
322 430 m 0,4,5
 115 430 115 430 115 567 c 0,6,7
 115 626 115 626 202 656 c 0,8,9
 279 683 279 683 359.5 698 c 128,-1,10
 440 713 440 713 463 719 c 1,11,12
 463 824 463 824 443.5 865.5 c 128,-1,13
 424 907 424 907 370 907 c 0,14,15
 258 907 258 907 244 854 c 1,16,17
 272 854 272 854 272 807 c 0,18,19
 272 768 272 768 207 768 c 0,20,21
 182 768 182 768 163.5 783.5 c 128,-1,22
 145 799 145 799 145 823 c 0,23,24
 145 880 145 880 207.5 914 c 128,-1,25
 270 948 270 948 378 948 c 128,-1,26
 486 948 486 948 551 895 c 128,-1,27
 616 842 616 842 616 760 c 2,28,-1
 616 537 l 2,29,30
 616 502 616 502 629 484.5 c 128,-1,31
 642 467 642 467 658.5 467 c 128,-1,32
 675 467 675 467 688.5 475 c 128,-1,33
 702 483 702 483 702 494 c 1,34,-1
 723 494 l 1,35,36
 723 432 723 432 588 432 c 0,37,38
 528 432 528 432 492 473 c 1,39,40
 412 430 412 430 322 430 c 0,4,5
475 500 m 1,41,42
 463 527 463 527 463 567 c 2,43,-1
 463 694 l 1,44,45
 441 690 441 690 399 676.5 c 128,-1,46
 357 663 357 663 349 658.5 c 128,-1,47
 341 654 341 654 325.5 646 c 128,-1,48
 310 638 310 638 303 630.5 c 128,-1,49
 296 623 296 623 288 613 c 0,50,51
 272 595 272 595 272 554.5 c 128,-1,52
 272 514 272 514 296.5 491.5 c 128,-1,53
 321 469 321 469 364.5 469 c 128,-1,54
 408 469 408 469 475 500 c 1,41,42
EndSplineSet
Validated: 1
EndChar

StartChar: guillemotleft
Encoding: 171 171 107
Width: 899
Flags: MW
LayerCount: 2
Fore
SplineSet
430 678 m 1,0,-1
 786 903 l 1,1,-1
 786 817 l 1,2,-1
 582 612 l 1,3,-1
 786 408 l 1,4,-1
 786 322 l 1,5,-1
 430 547 l 2,6,7
 395 570 395 570 395 614 c 128,-1,8
 395 658 395 658 430 678 c 1,0,-1
102 678 m 1,9,-1
 459 903 l 1,10,-1
 459 817 l 1,11,-1
 254 612 l 1,12,-1
 459 408 l 1,13,-1
 459 322 l 1,14,-1
 102 547 l 2,15,16
 68 569 68 569 68 614 c 128,-1,17
 68 659 68 659 102 678 c 1,9,-1
EndSplineSet
Validated: 1
EndChar

StartChar: logicalnot
Encoding: 172 172 108
Width: 851
Flags: MW
LayerCount: 2
Fore
SplineSet
637 606 m 1,0,-1
 125 606 l 1,1,-1
 125 696 l 1,2,-1
 723 696 l 1,3,-1
 723 426 l 1,4,-1
 637 426 l 1,5,-1
 637 606 l 1,0,-1
EndSplineSet
Validated: 1
EndChar

StartChar: uni00AD
Encoding: 173 173 109
Width: 761
Flags: MW
LayerCount: 2
Fore
SplineSet
111 696 m 1,0,-1
 651 696 l 1,1,-1
 651 606 l 1,2,-1
 111 606 l 1,3,-1
 111 696 l 1,0,-1
EndSplineSet
Validated: 1
EndChar

StartChar: registered
Encoding: 174 174 110
Width: 1302
Flags: MW
LayerCount: 2
Fore
SplineSet
141 549 m 128,-1,1
 141 411 141 411 209.5 293.5 c 128,-1,2
 278 176 278 176 395.5 107.5 c 128,-1,3
 513 39 513 39 651 39 c 128,-1,4
 789 39 789 39 906.5 107.5 c 128,-1,5
 1024 176 1024 176 1092.5 293.5 c 128,-1,6
 1161 411 1161 411 1161 549 c 128,-1,7
 1161 687 1161 687 1092.5 804.5 c 128,-1,8
 1024 922 1024 922 906.5 990.5 c 128,-1,9
 789 1059 789 1059 651 1059 c 128,-1,10
 513 1059 513 1059 395.5 990.5 c 128,-1,11
 278 922 278 922 209.5 804.5 c 128,-1,0
 141 687 141 687 141 549 c 128,-1,1
86 549 m 128,-1,13
 86 702 86 702 162 832 c 128,-1,14
 238 962 238 962 368 1038 c 128,-1,15
 498 1114 498 1114 651 1114 c 128,-1,16
 804 1114 804 1114 934.5 1038 c 128,-1,17
 1065 962 1065 962 1141 832 c 128,-1,18
 1217 702 1217 702 1217 549 c 128,-1,19
 1217 396 1217 396 1141 266 c 128,-1,20
 1065 136 1065 136 934.5 60 c 128,-1,21
 804 -16 804 -16 651 -16 c 128,-1,22
 498 -16 498 -16 368 60 c 128,-1,23
 238 136 238 136 162 266 c 128,-1,12
 86 396 86 396 86 549 c 128,-1,13
905 709 m 0,24,25
 905 586 905 586 776 541 c 1,26,-1
 907 307 l 1,27,28
 912 291 912 291 958 291 c 1,29,-1
 958 250 l 1,30,-1
 905 250 l 2,31,32
 829 250 829 250 796.5 261 c 128,-1,33
 764 272 764 272 743 309 c 2,34,-1
 623 522 l 1,35,-1
 575 522 l 1,36,-1
 575 305 l 1,37,38
 581 291 581 291 639 291 c 1,39,-1
 639 250 l 1,40,-1
 365 250 l 1,41,-1
 365 291 l 1,42,43
 419 291 419 291 428 305 c 1,44,-1
 428 815 l 1,45,46
 422 827 422 827 365 827 c 1,47,-1
 365 868 l 1,48,-1
 623 868 l 2,49,50
 756 868 756 868 830.5 819.5 c 128,-1,51
 905 771 905 771 905 709 c 0,24,25
575 815 m 1,52,-1
 575 578 l 1,53,-1
 618 578 l 2,54,55
 750 578 750 578 750 707 c 0,56,57
 750 756 750 756 710.5 785.5 c 128,-1,58
 671 815 671 815 606 815 c 2,59,-1
 575 815 l 1,52,-1
EndSplineSet
Validated: 1
EndChar

StartChar: macron
Encoding: 175 175 111
Width: 786
Flags: MW
LayerCount: 2
Fore
SplineSet
123 1163 m 1,0,-1
 664 1163 l 1,1,-1
 664 1053 l 1,2,-1
 123 1053 l 1,3,-1
 123 1163 l 1,0,-1
EndSplineSet
Validated: 1
EndChar

StartChar: degree
Encoding: 176 176 112
Width: 606
Flags: MW
LayerCount: 2
Fore
SplineSet
154 1057 m 128,-1,1
 154 996 154 996 197.5 952.5 c 128,-1,2
 241 909 241 909 303 909 c 128,-1,3
 365 909 365 909 409 952.5 c 128,-1,4
 453 996 453 996 453 1057 c 128,-1,5
 453 1118 453 1118 409 1162 c 0,6,7
 366 1206 366 1206 304 1206 c 128,-1,8
 242 1206 242 1206 198 1162 c 128,-1,0
 154 1118 154 1118 154 1057 c 128,-1,1
70 1057 m 128,-1,10
 70 1152 70 1152 139 1221 c 128,-1,11
 208 1290 208 1290 303 1290 c 128,-1,12
 398 1290 398 1290 467.5 1221 c 128,-1,13
 537 1152 537 1152 537 1057 c 128,-1,14
 537 962 537 962 467.5 893.5 c 128,-1,15
 398 825 398 825 303 825 c 128,-1,16
 208 825 208 825 139 893.5 c 128,-1,9
 70 962 70 962 70 1057 c 128,-1,10
EndSplineSet
Validated: 1
EndChar

StartChar: plusminus
Encoding: 177 177 113
Width: 835
Flags: MW
LayerCount: 2
Fore
SplineSet
125 365 m 1,0,-1
 711 365 l 1,1,-1
 711 274 l 1,2,-1
 125 274 l 1,3,-1
 125 365 l 1,0,-1
463 713 m 1,4,-1
 463 506 l 1,5,-1
 373 506 l 1,6,-1
 373 713 l 1,7,-1
 125 713 l 1,8,-1
 125 803 l 1,9,-1
 373 803 l 1,10,-1
 373 1010 l 1,11,-1
 463 1010 l 1,12,-1
 463 803 l 1,13,-1
 711 803 l 1,14,-1
 711 713 l 1,15,-1
 463 713 l 1,4,-1
EndSplineSet
Validated: 1
EndChar

StartChar: uni00B2
Encoding: 178 178 114
Width: 720
Flags: MW
LayerCount: 2
Fore
SplineSet
530 709 m 1,0,1
 593 731 593 731 608 776 c 1,2,-1
 653 776 l 1,3,-1
 596 573 l 1,4,-1
 66 573 l 1,5,-1
 66 584 l 2,6,7
 66 614 66 614 198 741 c 0,8,9
 346 884 346 884 393 971 c 128,-1,10
 440 1058 440 1058 440 1118 c 128,-1,11
 440 1178 440 1178 412 1213.5 c 128,-1,12
 384 1249 384 1249 329 1249 c 128,-1,13
 274 1249 274 1249 233 1235.5 c 128,-1,14
 192 1222 192 1222 172.5 1203 c 128,-1,15
 153 1184 153 1184 140.5 1164.5 c 128,-1,16
 128 1145 128 1145 119 1131.5 c 128,-1,17
 110 1118 110 1118 100 1118 c 0,18,19
 80 1118 80 1118 80 1141 c 0,20,21
 80 1177 80 1177 110 1220 c 0,22,23
 140 1264 140 1264 168 1290 c 0,24,25
 236 1352 236 1352 360 1352 c 128,-1,26
 484 1352 484 1352 549 1295.5 c 128,-1,27
 614 1239 614 1239 614 1141 c 0,28,29
 614 1086 614 1086 566.5 1014.5 c 128,-1,30
 519 943 519 943 462.5 888.5 c 128,-1,31
 406 834 406 834 347 779.5 c 128,-1,32
 288 725 288 725 276 709 c 1,33,-1
 530 709 l 1,0,1
EndSplineSet
Validated: 1
EndChar

StartChar: uni00B3
Encoding: 179 179 115
Width: 708
Flags: MW
LayerCount: 2
Fore
SplineSet
371 950 m 1,0,-1
 303 942 l 1,1,2
 289 942 289 942 277.5 951 c 128,-1,3
 266 960 266 960 266 968 c 128,-1,4
 266 976 266 976 270 980 c 0,5,6
 277 988 277 988 296.5 992.5 c 128,-1,7
 316 997 316 997 330 1002 c 0,8,9
 346 1008 346 1008 370 1020 c 128,-1,10
 394 1032 394 1032 405 1046 c 0,11,12
 434 1082 434 1082 434 1135 c 128,-1,13
 434 1188 434 1188 403.5 1218.5 c 128,-1,14
 373 1249 373 1249 320 1249 c 128,-1,15
 267 1249 267 1249 233.5 1238 c 128,-1,16
 200 1227 200 1227 185 1211 c 128,-1,17
 170 1195 170 1195 160.5 1179 c 128,-1,18
 151 1163 151 1163 143.5 1152 c 128,-1,19
 136 1141 136 1141 126 1141 c 0,20,21
 104 1141 104 1141 104 1165 c 0,22,23
 104 1207 104 1207 143 1256 c 0,24,25
 218 1352 218 1352 332 1352 c 0,26,27
 592 1352 592 1352 592 1153 c 0,28,29
 592 1067 592 1067 492 1006 c 1,30,31
 554 981 554 981 591.5 931.5 c 128,-1,32
 629 882 629 882 629 824 c 0,33,34
 629 768 629 768 616 724 c 0,35,36
 602 678 602 678 572 642 c 0,37,38
 508 565 508 565 340 565 c 0,39,40
 338 565 338 565 336 565 c 0,41,42
 172 565 172 565 87 655 c 0,43,44
 68 675 68 675 68 688 c 0,45,46
 68 734 68 734 80.5 753 c 128,-1,47
 93 772 93 772 118.5 772 c 128,-1,48
 144 772 144 772 156 757 c 128,-1,49
 168 742 168 742 178 721 c 128,-1,50
 188 700 188 700 202 678 c 0,51,52
 237 626 237 626 316 626 c 0,53,-1
 318 626 l 0,54,55
 398 626 398 626 436.5 679 c 128,-1,56
 475 732 475 732 475 789.5 c 128,-1,57
 475 847 475 847 445 898.5 c 128,-1,58
 415 950 415 950 371 950 c 1,0,-1
EndSplineSet
Validated: 1
EndChar

StartChar: acute
Encoding: 180 180 116
Width: 614
Flags: MW
LayerCount: 2
Fore
SplineSet
170 1356 m 1,0,-1
 428 1356 l 1,1,-1
 154 1024 l 1,2,-1
 59 1024 l 1,3,-1
 170 1356 l 1,0,-1
EndSplineSet
Validated: 1
EndChar

StartChar: uni00B5
Encoding: 181 181 117
Width: 1251
Flags: MW
LayerCount: 2
Fore
SplineSet
981 -20 m 0,0,1
 852 -20 852 -20 799 84 c 1,2,3
 706 -20 706 -20 567 -20 c 0,4,5
 349 -20 349 -20 238 76 c 1,6,-1
 238 -68 l 2,7,8
 238 -160 238 -160 286 -198 c 0,9,10
 306 -214 306 -214 326 -228 c 0,11,12
 374 -262 374 -262 374 -310 c 0,13,14
 374 -360 374 -360 342 -386 c 0,15,16
 311 -410 311 -410 269 -410 c 128,-1,17
 227 -410 227 -410 189.5 -377.5 c 128,-1,18
 152 -345 152 -345 152 -274 c 2,19,-1
 152 901 l 1,20,-1
 408 901 l 1,21,-1
 408 256 l 2,22,23
 408 49 408 49 596 49 c 0,24,25
 695 49 695 49 776 141 c 1,26,27
 768 174 768 174 768 227 c 2,28,-1
 768 901 l 1,29,-1
 1024 901 l 1,30,-1
 1024 170 l 2,31,32
 1024 105 1024 105 1046 73 c 128,-1,33
 1068 41 1068 41 1096.5 41 c 128,-1,34
 1125 41 1125 41 1146 56 c 128,-1,35
 1167 71 1167 71 1167 92 c 1,36,-1
 1204 92 l 1,37,38
 1204 -20 1204 -20 981 -20 c 0,0,1
EndSplineSet
Validated: 1
EndChar

StartChar: paragraph
Encoding: 182 182 118
Width: 1087
Flags: MW
LayerCount: 2
Fore
SplineSet
868 84 m 1,0,1
 885 43 885 43 997 43 c 1,2,-1
 997 0 l 1,3,-1
 680 0 l 1,4,-1
 680 1128 l 1,5,-1
 575 1128 l 1,6,-1
 575 0 l 1,7,-1
 258 0 l 1,8,-1
 258 43 l 1,9,10
 370 43 370 43 387 84 c 1,11,-1
 387 549 l 1,12,13
 232 564 232 564 145.5 651 c 128,-1,14
 59 738 59 738 59 875 c 0,15,16
 59 966 59 966 120 1046 c 0,17,18
 236 1198 236 1198 506 1198 c 2,19,-1
 997 1198 l 1,20,-1
 997 1155 l 1,21,22
 885 1155 885 1155 868 1114 c 1,23,-1
 868 84 l 1,0,1
EndSplineSet
Validated: 1
EndChar

StartChar: periodcentered
Encoding: 183 183 119
Width: 471
Flags: MW
LayerCount: 2
Fore
SplineSet
140.5 526 m 128,-1,1
 94 560 94 560 94 619 c 128,-1,2
 94 678 94 678 136 714 c 128,-1,3
 178 750 178 750 230 750 c 128,-1,4
 282 750 282 750 329.5 716 c 128,-1,5
 377 682 377 682 377 623.5 c 128,-1,6
 377 565 377 565 334 528.5 c 128,-1,7
 291 492 291 492 239 492 c 128,-1,0
 187 492 187 492 140.5 526 c 128,-1,1
EndSplineSet
Validated: 1
EndChar

StartChar: cedilla
Encoding: 184 184 120
Width: 622
Flags: MW
LayerCount: 2
Fore
SplineSet
244 25 m 1,0,-1
 342 25 l 1,1,-1
 305 -113 l 1,2,3
 365 -113 365 -113 418 -135 c 0,4,5
 520 -177 520 -177 520 -244.5 c 128,-1,6
 520 -312 520 -312 460.5 -360 c 128,-1,7
 401 -408 401 -408 274 -408 c 0,8,9
 212 -408 212 -408 123 -393 c 1,10,-1
 123 -358 l 1,11,12
 159 -362 159 -362 174 -362 c 0,13,14
 252 -362 252 -362 281.5 -333.5 c 128,-1,15
 311 -305 311 -305 311 -266 c 0,16,17
 311 -176 311 -176 186 -176 c 1,18,-1
 244 25 l 1,0,-1
EndSplineSet
Validated: 1
EndChar

StartChar: uni00B9
Encoding: 185 185 121
Width: 497
Flags: MW
LayerCount: 2
Fore
SplineSet
72 1040 m 1,0,1
 245 1341 245 1341 289 1341 c 2,2,-1
 336 1341 l 1,3,-1
 336 641 l 1,4,5
 346 621 346 621 424 621 c 1,6,-1
 424 573 l 1,7,-1
 84 573 l 1,8,-1
 84 621 l 1,9,10
 158 621 158 621 170 641 c 1,11,-1
 170 1085 l 1,12,13
 150 1073 150 1073 106 1022 c 1,14,-1
 72 1040 l 1,0,1
EndSplineSet
Validated: 1
EndChar

StartChar: ordmasculine
Encoding: 186 186 122
Width: 815
Flags: MW
LayerCount: 2
Fore
SplineSet
111 317 m 1,0,-1
 705 317 l 1,1,-1
 705 264 l 1,2,-1
 111 264 l 1,3,-1
 111 317 l 1,0,-1
272 721 m 0,4,5
 272 463 272 463 430 463 c 0,6,7
 485 463 485 463 515 517 c 128,-1,8
 545 571 545 571 545 683.5 c 128,-1,9
 545 796 545 796 510 854.5 c 128,-1,10
 475 913 475 913 385 913 c 0,11,12
 332 913 332 913 302 857 c 128,-1,13
 272 801 272 801 272 721 c 0,4,5
631.5 503 m 128,-1,15
 558 430 558 430 416.5 430 c 128,-1,16
 275 430 275 430 193 504 c 128,-1,17
 111 578 111 578 111 692 c 128,-1,18
 111 806 111 806 185.5 877 c 128,-1,19
 260 948 260 948 406 948 c 128,-1,20
 552 948 552 948 628.5 877 c 128,-1,21
 705 806 705 806 705 691 c 128,-1,14
 705 576 705 576 631.5 503 c 128,-1,15
EndSplineSet
Validated: 1
EndChar

StartChar: guillemotright
Encoding: 187 187 123
Width: 899
Flags: MW
LayerCount: 2
Fore
SplineSet
797 547 m 1,0,-1
 440 322 l 1,1,-1
 440 408 l 1,2,-1
 645 612 l 1,3,-1
 440 817 l 1,4,-1
 440 903 l 1,5,-1
 797 678 l 2,6,7
 831 656 831 656 831 611 c 128,-1,8
 831 566 831 566 797 547 c 1,0,-1
469 547 m 1,9,-1
 113 322 l 1,10,-1
 113 408 l 1,11,-1
 317 612 l 1,12,-1
 113 817 l 1,13,-1
 113 903 l 1,14,-1
 469 678 l 2,15,16
 504 655 504 655 504 611 c 128,-1,17
 504 567 504 567 469 547 c 1,9,-1
EndSplineSet
Validated: 1
EndChar

StartChar: onequarter
Encoding: 188 188 124
Width: 1335
Flags: MW
LayerCount: 2
Fore
SplineSet
61 1040 m 1,0,1
 234 1341 234 1341 279 1341 c 2,2,-1
 326 1341 l 1,3,-1
 326 641 l 1,4,5
 336 621 336 621 414 621 c 1,6,-1
 414 573 l 1,7,-1
 74 573 l 1,8,-1
 74 621 l 1,9,10
 148 621 148 621 160 641 c 1,11,-1
 160 1085 l 1,12,13
 140 1073 140 1073 96 1022 c 1,14,-1
 61 1040 l 1,0,1
1182 768 m 1,15,-1
 1182 274 l 1,16,-1
 1274 274 l 1,17,-1
 1274 215 l 1,18,-1
 1182 215 l 1,19,-1
 1182 68 l 1,20,21
 1194 47 1194 47 1268 47 c 1,22,-1
 1268 0 l 1,23,-1
 932 0 l 1,24,-1
 932 47 l 1,25,26
 1008 47 1008 47 1018 68 c 1,27,-1
 1018 215 l 1,28,-1
 688 215 l 1,29,-1
 1075 768 l 1,30,-1
 1182 768 l 1,15,-1
1018 274 m 1,31,-1
 1018 582 l 1,32,-1
 803 274 l 1,33,-1
 1018 274 l 1,31,-1
199 -20 m 1,34,-1
 995 1253 l 1,35,-1
 1096 1217 l 1,36,-1
 299 -57 l 1,37,-1
 199 -20 l 1,34,-1
EndSplineSet
Validated: 1
EndChar

StartChar: onehalf
Encoding: 189 189 125
Width: 1390
Flags: MW
LayerCount: 2
Fore
SplineSet
68 1040 m 1,0,1
 241 1341 241 1341 285 1341 c 2,2,-1
 332 1341 l 1,3,-1
 332 641 l 1,4,5
 342 621 342 621 420 621 c 1,6,-1
 420 573 l 1,7,-1
 80 573 l 1,8,-1
 80 621 l 1,9,10
 154 621 154 621 166 641 c 1,11,-1
 166 1085 l 1,12,13
 146 1073 146 1073 102 1022 c 1,14,-1
 68 1040 l 1,0,1
1210 135 m 1,15,16
 1273 158 1273 158 1288 203 c 1,17,-1
 1333 203 l 1,18,-1
 1276 0 l 1,19,-1
 745 0 l 1,20,-1
 745 10 l 2,21,22
 745 40 745 40 877 168 c 0,23,24
 932 222 932 222 987.5 281.5 c 128,-1,25
 1043 341 1043 341 1081.5 413 c 128,-1,26
 1120 485 1120 485 1120 545 c 128,-1,27
 1120 605 1120 605 1092 640.5 c 128,-1,28
 1064 676 1064 676 1009 676 c 128,-1,29
 954 676 954 676 913 662.5 c 128,-1,30
 872 649 872 649 852.5 629.5 c 128,-1,31
 833 610 833 610 820.5 591 c 128,-1,32
 808 572 808 572 799 558.5 c 128,-1,33
 790 545 790 545 780 545 c 0,34,35
 760 545 760 545 760 567 c 0,36,37
 760 603 760 603 790 646 c 0,38,39
 820 690 820 690 848 716 c 0,40,41
 916 778 916 778 1040 778 c 128,-1,42
 1164 778 1164 778 1229 721.5 c 128,-1,43
 1294 665 1294 665 1294 567 c 0,44,45
 1294 512 1294 512 1246.5 440.5 c 128,-1,46
 1199 369 1199 369 1142.5 314.5 c 128,-1,47
 1086 260 1086 260 1027 205.5 c 128,-1,48
 968 151 968 151 956 135 c 1,49,-1
 1210 135 l 1,15,16
156 -20 m 1,50,-1
 952 1253 l 1,51,-1
 1053 1217 l 1,52,-1
 256 -57 l 1,53,-1
 156 -20 l 1,50,-1
EndSplineSet
Validated: 1
EndChar

StartChar: threequarters
Encoding: 190 190 126
Width: 1413
Flags: MW
LayerCount: 2
Fore
SplineSet
360 950 m 1,0,-1
 293 942 l 1,1,2
 279 942 279 942 267.5 951 c 128,-1,3
 256 960 256 960 256 968 c 0,4,5
 256 976 256 976 260 980 c 0,6,7
 267 988 267 988 286 992.5 c 128,-1,8
 305 997 305 997 319.5 1002.5 c 128,-1,9
 334 1008 334 1008 359 1020 c 0,10,11
 384 1032 384 1032 395 1046 c 0,12,13
 424 1082 424 1082 424 1135 c 128,-1,14
 424 1188 424 1188 393.5 1218.5 c 128,-1,15
 363 1249 363 1249 310 1249 c 128,-1,16
 257 1249 257 1249 223.5 1238 c 128,-1,17
 190 1227 190 1227 175 1211 c 128,-1,18
 160 1195 160 1195 150.5 1179 c 128,-1,19
 141 1163 141 1163 133.5 1152 c 128,-1,20
 126 1141 126 1141 116 1141 c 0,21,22
 94 1141 94 1141 94 1165 c 0,23,24
 94 1207 94 1207 133 1256 c 0,25,26
 208 1352 208 1352 322 1352 c 0,27,28
 582 1352 582 1352 582 1153 c 0,29,30
 582 1067 582 1067 481 1006 c 1,31,32
 543 981 543 981 580.5 931.5 c 128,-1,33
 618 882 618 882 618 824.5 c 128,-1,34
 618 767 618 767 605 723.5 c 128,-1,35
 592 680 592 680 561 642 c 0,36,37
 498 565 498 565 330 565 c 0,38,39
 328 565 328 565 326 565 c 0,40,41
 164 565 164 565 76 655 c 0,42,43
 57 674 57 674 57 687 c 0,44,45
 57 734 57 734 70 753 c 128,-1,46
 83 772 83 772 108.5 772 c 128,-1,47
 134 772 134 772 146 757 c 128,-1,48
 158 742 158 742 167.5 721 c 128,-1,49
 177 700 177 700 191 678 c 0,50,51
 225 626 225 626 304 626 c 0,52,-1
 306 626 l 0,53,54
 387 626 387 626 426 679.5 c 128,-1,55
 465 733 465 733 465 789.5 c 128,-1,56
 465 846 465 846 434.5 898 c 128,-1,57
 404 950 404 950 360 950 c 1,0,-1
1251 768 m 1,58,-1
 1251 274 l 1,59,-1
 1343 274 l 1,60,-1
 1343 215 l 1,61,-1
 1251 215 l 1,62,-1
 1251 68 l 1,63,64
 1263 47 1263 47 1337 47 c 1,65,-1
 1337 0 l 1,66,-1
 1001 0 l 1,67,-1
 1001 47 l 1,68,69
 1076 47 1076 47 1087 68 c 1,70,-1
 1087 215 l 1,71,-1
 758 215 l 1,72,-1
 1145 768 l 1,73,-1
 1251 768 l 1,58,-1
1087 274 m 1,74,-1
 1087 582 l 1,75,-1
 872 274 l 1,76,-1
 1087 274 l 1,74,-1
289 -20 m 1,77,-1
 1085 1253 l 1,78,-1
 1186 1217 l 1,79,-1
 389 -57 l 1,80,-1
 289 -20 l 1,77,-1
EndSplineSet
Validated: 1
EndChar

StartChar: questiondown
Encoding: 191 191 127
Width: 872
Flags: MW
LayerCount: 2
Fore
SplineSet
574.5 1050.5 m 128,-1,1
 621 1016 621 1016 621 957 c 128,-1,2
 621 898 621 898 578.5 862.5 c 128,-1,3
 536 827 536 827 484 827 c 128,-1,4
 432 827 432 827 385 861 c 128,-1,5
 338 895 338 895 338 953.5 c 128,-1,6
 338 1012 338 1012 381 1048.5 c 128,-1,7
 424 1085 424 1085 476 1085 c 128,-1,0
 528 1085 528 1085 574.5 1050.5 c 128,-1,1
522 655 m 0,8,9
 522 550 522 550 469 474 c 0,10,11
 411 390 411 390 379 336 c 0,12,13
 317 230 317 230 317 102.5 c 128,-1,14
 317 -25 317 -25 364 -94.5 c 128,-1,15
 411 -164 411 -164 490 -164 c 128,-1,16
 569 -164 569 -164 605 -119 c 128,-1,17
 641 -74 641 -74 641 -33.5 c 128,-1,18
 641 7 641 7 625.5 34 c 128,-1,19
 610 61 610 61 610 89.5 c 128,-1,20
 610 118 610 118 639 146 c 128,-1,21
 668 174 668 174 714.5 174 c 128,-1,22
 761 174 761 174 788 140.5 c 128,-1,23
 815 107 815 107 815 54 c 0,24,25
 814 2 814 2 792 -46 c 128,-1,26
 770 -94 770 -94 728 -134 c 0,27,28
 634 -226 634 -226 453 -226 c 0,29,-1
 452 -226 l 1,30,31
 270 -226 270 -226 165.5 -139.5 c 128,-1,32
 61 -53 61 -53 61 92 c 0,33,34
 61 208 61 208 138 303 c 0,35,36
 196 375 196 375 267 433 c 128,-1,37
 338 491 338 491 372 523 c 0,38,39
 449 595 449 595 449 655 c 0,40,41
 449 665 449 665 462.5 674.5 c 128,-1,42
 476 684 476 684 485 684 c 128,-1,43
 494 684 494 684 508 674.5 c 128,-1,44
 522 665 522 665 522 655 c 0,8,9
EndSplineSet
Validated: 1
EndChar

StartChar: Agrave
Encoding: 192 192 128
Width: 1159
Flags: MW
LayerCount: 2
Back
SplineSet
524.288 1601.54 m 1
 634.88 1269.76 l 1
 540.672 1269.76 l 1
 266.24 1601.54 l 1
 524.288 1601.54 l 1
673.792 0 m 1
 673.792 43.0078 l 1
 741.376 43.0078 776.192 51.2002 792.576 67.584 c 1
 677.888 380.928 l 1
 284.672 380.928 l 1
 178.176 79.8721 l 1
 192.512 53.248 223.232 43.0078 305.152 43.0078 c 1
 305.152 0 l 1
 -30.7197 0 l 1
 -30.7197 43.0078 l 1
 55.2959 43.0078 88.0645 57.3438 98.3037 86.0156 c 2
 495.616 1198.08 l 1
 661.504 1198.08 l 1
 1062.91 86.0156 l 2
 1073.15 57.3438 1107.97 43.0078 1193.98 43.0078 c 1
 1193.98 0 l 1
 673.792 0 l 1
479.232 925.696 m 1
 309.248 448.512 l 1
 653.312 448.512 l 1
 479.232 925.696 l 1
EndSplineSet
Fore
Refer: 444 768 S 1 0 0 1 1102 246 2
Refer: 34 65 N 1 0 0 1 0 0 3
Validated: 1
EndChar

StartChar: Aacute
Encoding: 193 193 129
Width: 1159
Flags: MW
LayerCount: 2
Back
SplineSet
602.112 1601.54 m 1
 860.16 1601.54 l 1
 585.729 1269.76 l 1
 491.52 1269.76 l 1
 602.112 1601.54 l 1
673.792 0 m 1
 673.792 43.0078 l 1
 741.376 43.0078 776.192 51.2002 792.576 67.584 c 1
 677.888 380.928 l 1
 284.672 380.928 l 1
 178.176 79.8721 l 1
 192.512 53.248 223.232 43.0078 305.152 43.0078 c 1
 305.152 0 l 1
 -30.7197 0 l 1
 -30.7197 43.0078 l 1
 55.2959 43.0078 88.0645 57.3438 98.3037 86.0156 c 2
 495.616 1198.08 l 1
 661.504 1198.08 l 1
 1062.91 86.0156 l 2
 1073.15 57.3438 1107.97 43.0078 1193.98 43.0078 c 1
 1193.98 0 l 1
 673.792 0 l 1
479.232 925.696 m 1
 309.248 448.512 l 1
 653.312 448.512 l 1
 479.232 925.696 l 1
EndSplineSet
Fore
Refer: 445 769 N 1 0 0 1 1102 246 2
Refer: 34 65 N 1 0 0 1 0 0 3
Validated: 1
EndChar

StartChar: Acircumflex
Encoding: 194 194 130
Width: 1159
Flags: MW
LayerCount: 2
Back
SplineSet
632.832 1601.54 m 1
 825.344 1269.76 l 1
 751.616 1269.76 l 1
 581.632 1406.98 l 1
 411.648 1269.76 l 1
 337.92 1269.76 l 1
 530.432 1601.54 l 1
 632.832 1601.54 l 1
673.792 0 m 1
 673.792 43.0078 l 1
 741.376 43.0078 776.192 51.2002 792.576 67.584 c 1
 677.888 380.928 l 1
 284.672 380.928 l 1
 178.176 79.8721 l 1
 192.512 53.248 223.232 43.0078 305.152 43.0078 c 1
 305.152 0 l 1
 -30.7197 0 l 1
 -30.7197 43.0078 l 1
 55.2959 43.0078 88.0645 57.3438 98.3037 86.0156 c 2
 495.616 1198.08 l 1
 661.504 1198.08 l 1
 1062.91 86.0156 l 2
 1073.15 57.3438 1107.97 43.0078 1193.98 43.0078 c 1
 1193.98 0 l 1
 673.792 0 l 1
479.232 925.696 m 1
 309.248 448.512 l 1
 653.312 448.512 l 1
 479.232 925.696 l 1
EndSplineSet
Fore
Refer: 446 770 N 1 0 0 1 1102 246 2
Refer: 34 65 N 1 0 0 1 0 0 3
Validated: 1
EndChar

StartChar: Atilde
Encoding: 195 195 131
Width: 1159
Flags: MW
LayerCount: 2
Back
SplineSet
735.232 1249.28 m 0x16
 651.264 1249.28 479.232 1370.11 417.792 1370.11 c 0
 335.872 1370.11 315.392 1345.54 315.392 1269.76 c 1
 276.48 1269.76 l 1
 276.48 1462.27 354.304 1519.62 432.128 1519.62 c 0x0e
 516.096 1519.62 690.176 1398.78 751.616 1398.78 c 0
 833.536 1398.78 854.016 1423.36 854.016 1499.14 c 1
 892.928 1499.14 l 1
 892.928 1306.62 813.056 1249.28 735.232 1249.28 c 0x16
673.792 0 m 1xe0
 673.792 43.0078 l 1
 741.376 43.0078 776.192 51.2002 792.576 67.584 c 1
 677.888 380.928 l 1
 284.672 380.928 l 1
 178.176 79.8721 l 1
 192.512 53.248 223.232 43.0078 305.152 43.0078 c 1
 305.152 0 l 1
 -30.7197 0 l 1
 -30.7197 43.0078 l 1
 55.2959 43.0078 88.0645 57.3438 98.3037 86.0156 c 2
 495.616 1198.08 l 1
 661.504 1198.08 l 1
 1062.91 86.0156 l 2
 1073.15 57.3438 1107.97 43.0078 1193.98 43.0078 c 1
 1193.98 0 l 1
 673.792 0 l 1xe0
479.232 925.696 m 1
 309.248 448.512 l 1
 653.312 448.512 l 1
 479.232 925.696 l 1
EndSplineSet
Fore
Refer: 447 771 S 1 0 0 1 1102 246 2
Refer: 34 65 N 1 0 0 1 0 0 3
Validated: 1
EndChar

StartChar: Adieresis
Encoding: 196 196 132
Width: 1159
Flags: MW
LayerCount: 2
Back
SplineSet
657.408 1390.59 m 0
 657.408 1456.13 710.656 1511.42 776.192 1511.42 c 0
 841.729 1511.42 897.024 1456.13 897.024 1390.59 c 0
 897.024 1325.06 841.729 1269.76 776.192 1269.76 c 0
 710.656 1269.76 657.408 1325.06 657.408 1390.59 c 0
266.24 1390.59 m 0
 266.24 1456.13 321.536 1511.42 387.072 1511.42 c 0
 452.608 1511.42 505.856 1456.13 505.856 1390.59 c 0
 505.856 1325.06 452.608 1269.76 387.072 1269.76 c 0
 321.536 1269.76 266.24 1325.06 266.24 1390.59 c 0
673.792 0 m 1
 673.792 43.0078 l 1
 741.376 43.0078 776.192 51.2002 792.576 67.584 c 1
 677.888 380.928 l 1
 284.672 380.928 l 1
 178.176 79.8721 l 1
 192.512 53.248 223.232 43.0078 305.152 43.0078 c 1
 305.152 0 l 1
 -30.7197 0 l 1
 -30.7197 43.0078 l 1
 55.2959 43.0078 88.0645 57.3438 98.3037 86.0156 c 2
 495.616 1198.08 l 1
 661.504 1198.08 l 1
 1062.91 86.0156 l 2
 1073.15 57.3438 1107.97 43.0078 1193.98 43.0078 c 1
 1193.98 0 l 1
 673.792 0 l 1
479.232 925.696 m 1
 309.248 448.512 l 1
 653.312 448.512 l 1
 479.232 925.696 l 1
EndSplineSet
Fore
Refer: 452 776 N 1 0 0 1 1102 246 2
Refer: 34 65 N 1 0 0 1 0 0 3
Validated: 1
EndChar

StartChar: Aring
Encoding: 197 197 133
Width: 1159
Flags: MW
LayerCount: 2
Back
SplineSet
495.616 1411.07 m 0
 495.616 1363.97 534.528 1325.06 581.632 1325.06 c 0
 628.736 1325.06 667.648 1363.97 667.648 1411.07 c 0
 667.648 1458.18 628.736 1497.09 581.632 1497.09 c 0
 534.528 1497.09 495.616 1458.18 495.616 1411.07 c 0
430.08 1411.07 m 0
 430.08 1497.09 495.616 1562.62 581.632 1562.62 c 0
 667.648 1562.62 733.184 1497.09 733.184 1411.07 c 0
 733.184 1325.06 667.648 1259.52 581.632 1259.52 c 0
 495.616 1259.52 430.08 1325.06 430.08 1411.07 c 0
673.792 0 m 1
 673.792 43.0078 l 1
 741.376 43.0078 776.192 51.2002 792.576 67.584 c 1
 677.888 380.928 l 1
 284.672 380.928 l 1
 178.176 79.8721 l 1
 192.512 53.248 223.232 43.0078 305.152 43.0078 c 1
 305.152 0 l 1
 -30.7197 0 l 1
 -30.7197 43.0078 l 1
 55.2959 43.0078 88.0645 57.3438 98.3037 86.0156 c 2
 495.616 1198.08 l 1
 661.504 1198.08 l 1
 1062.91 86.0156 l 2
 1073.15 57.3438 1107.97 43.0078 1193.98 43.0078 c 1
 1193.98 0 l 1
 673.792 0 l 1
479.232 925.696 m 1
 309.248 448.512 l 1
 653.312 448.512 l 1
 479.232 925.696 l 1
EndSplineSet
Fore
Refer: 454 778 N 1 0 0 1 1102 246 2
Refer: 34 65 N 1 0 0 1 0 0 3
Validated: 1
EndChar

StartChar: AE
Encoding: 198 198 134
Width: 1519
Flags: MW
AnchorPoint: "top" 848 1270 basechar 0
LayerCount: 2
Fore
SplineSet
584 43 m 1,0,1
 696 43 696 43 713 84 c 1,2,-1
 713 381 l 1,3,-1
 317 381 l 1,4,-1
 150 80 l 1,5,6
 161 59 161 59 188 51 c 128,-1,7
 215 43 215 43 276 43 c 1,8,-1
 276 0 l 1,9,-1
 121 0 l 1,10,11
 131 35 131 35 141 66 c 1,12,-1
 104 0 l 1,13,-1
 -59 0 l 1,14,-1
 -59 43 l 1,15,16
 53 43 53 43 70 86 c 1,17,-1
 70 84 l 1,18,-1
 657 1133 l 1,19,20
 632 1155 632 1155 541 1155 c 1,21,-1
 541 1198 l 1,22,-1
 1409 1198 l 1,23,-1
 1409 999 l 1,24,-1
 1366 999 l 1,25,26
 1366 1111 1366 1111 1325 1128 c 1,27,-1
 973 1128 l 1,28,-1
 973 657 l 1,29,-1
 1188 657 l 1,30,31
 1229 674 1229 674 1229 786 c 1,32,-1
 1272 786 l 1,33,-1
 1272 459 l 1,34,-1
 1229 459 l 1,35,36
 1229 571 1229 571 1188 588 c 1,37,-1
 973 588 l 1,38,-1
 973 70 l 1,39,-1
 1368 70 l 1,40,41
 1417 90 1417 90 1460 199 c 1,42,-1
 1501 199 l 1,43,-1
 1452 0 l 1,44,-1
 584 0 l 1,45,-1
 584 43 l 1,0,1
356 449 m 1,46,-1
 713 449 l 1,47,-1
 713 1085 l 1,48,-1
 356 449 l 1,46,-1
EndSplineSet
Validated: 1
EndChar

StartChar: Ccedilla
Encoding: 199 199 135
Width: 1150
UnlinkRmOvrlpSave: 1
Flags: MW
AnchorPoint: "top" 705 1270 basechar 0
LayerCount: 2
Back
SplineSet
717 1149 m 1
 717 1147 l 1
 603 1147 514.667 1099.67 452 1005 c 128
 389.333 910.333 358 777 358 605 c 128
 358 433 391.667 297 459 197 c 128
 526.333 97 615 47 725 47 c 0
 791.667 47 852.667 69.8333 908 115.5 c 128
 963.333 161.167 1001.33 212 1022 268 c 1
 1106 244 l 1
 1078 176.667 1034.5 118.5 975.5 69.5 c 128
 916.5 20.5 839 -8.66667 743 -18 c 1
 719 -113 l 1
 759 -113 796.667 -120.333 832 -135 c 0
 900 -163 934 -199.5 934 -244.5 c 128
 934 -289.5 914.167 -328 874.5 -360 c 128
 834.833 -392 772.667 -408 688 -408 c 0
 646.665 -408 596.332 -403 537 -393 c 1
 537 -358 l 1
 561 -360.667 578 -362 588 -362 c 0
 640 -362 675.833 -352.5 695.5 -333.5 c 128
 715.167 -314.5 725 -292 725 -266 c 0
 725 -206 683.333 -176 600 -176 c 1
 645 -18 l 1
 558.333 -13.3333 478.5 6.33333 405.5 41 c 128
 332.5 75.6667 272 120.667 224 176 c 0
 124 292.667 74 428 74 582 c 0
 74 678 92 766.667 128 848 c 0
 165.333 929.333 214 996.667 274 1050 c 0
 401.333 1162.67 548.333 1219 715 1219 c 0
 755 1219 804.5 1208.67 863.5 1188 c 128
 922.5 1167.33 955.667 1157 963 1157 c 0
 979 1157 987 1170.67 987 1198 c 1
 1034 1198 l 1
 1051 909 l 1
 1006 909 l 1
 998 965 962.5 1019 899.5 1071 c 128
 836.5 1123 775.667 1149 717 1149 c 1
EndSplineSet
Fore
Refer: 473 807 S 1 0 0 1 1222 0 2
Refer: 36 67 N 1 0 0 1 0 0 2
EndChar

StartChar: Egrave
Encoding: 200 200 136
Width: 1030
Flags: MW
LayerCount: 2
Back
SplineSet
509.952 1601.54 m 1x05
 620.544 1269.76 l 1
 526.336 1269.76 l 1
 251.904 1601.54 l 1
 509.952 1601.54 l 1x05
73.7275 0 m 1xa2c0
 73.7275 43.0078 l 1
 159.744 43.0078 190.464 55.2959 202.752 83.9678 c 1
 202.752 1114.11 l 1
 190.464 1142.78 159.744 1155.07 73.7275 1155.07 c 1
 73.7275 1198.08 l 1
 919.552 1198.08 l 1xaac0
 919.552 999.424 l 1
 876.544 999.424 l 1
 876.544 1085.44 864.256 1116.16 835.584 1128.45 c 1
 462.848 1128.45 l 1
 462.848 657.408 l 1
 698.368 657.408 l 1
 727.04 669.696 739.328 700.416 739.328 786.432 c 1
 782.336 786.432 l 1
 782.336 458.752 l 1
 739.328 458.752 l 1
 739.328 544.768 727.04 575.488 698.368 587.776 c 1
 462.848 587.776 l 1
 462.848 69.6318 l 1
 878.592 69.6318 l 1x72c0
 907.264 81.9199 942.08 124.928 970.752 198.656 c 1
 1011.71 198.656 l 1
 962.561 0 l 1
 73.7275 0 l 1xa2c0
EndSplineSet
Fore
Refer: 444 768 N 1 0 0 1 1087 246 2
Refer: 38 69 N 1 0 0 1 0 0 3
Validated: 1
EndChar

StartChar: Eacute
Encoding: 201 201 137
Width: 1030
Flags: MW
LayerCount: 2
Back
SplineSet
587.776 1601.54 m 1x05
 845.824 1601.54 l 1
 571.392 1269.76 l 1
 477.184 1269.76 l 1
 587.776 1601.54 l 1x05
73.7275 0 m 1xa2c0
 73.7275 43.0078 l 1
 159.744 43.0078 190.464 55.2959 202.752 83.9678 c 1
 202.752 1114.11 l 1
 190.464 1142.78 159.744 1155.07 73.7275 1155.07 c 1
 73.7275 1198.08 l 1
 919.552 1198.08 l 1xaac0
 919.552 999.424 l 1
 876.544 999.424 l 1
 876.544 1085.44 864.256 1116.16 835.584 1128.45 c 1
 462.848 1128.45 l 1
 462.848 657.408 l 1
 698.368 657.408 l 1
 727.04 669.696 739.328 700.416 739.328 786.432 c 1
 782.336 786.432 l 1
 782.336 458.752 l 1
 739.328 458.752 l 1
 739.328 544.768 727.04 575.488 698.368 587.776 c 1
 462.848 587.776 l 1
 462.848 69.6318 l 1
 878.592 69.6318 l 1x72c0
 907.264 81.9199 942.08 124.928 970.752 198.656 c 1
 1011.71 198.656 l 1
 962.561 0 l 1
 73.7275 0 l 1xa2c0
EndSplineSet
Fore
Refer: 445 769 N 1 0 0 1 1087 246 2
Refer: 38 69 N 1 0 0 1 0 0 3
Validated: 1
EndChar

StartChar: Ecircumflex
Encoding: 202 202 138
Width: 1030
Flags: MW
LayerCount: 2
Back
SplineSet
618.496 1601.54 m 1x05
 811.008 1269.76 l 1
 737.28 1269.76 l 1
 567.296 1406.98 l 1
 397.312 1269.76 l 1
 323.584 1269.76 l 1
 516.096 1601.54 l 1
 618.496 1601.54 l 1x05
73.7275 0 m 1xa2c0
 73.7275 43.0078 l 1
 159.744 43.0078 190.464 55.2959 202.752 83.9678 c 1
 202.752 1114.11 l 1
 190.464 1142.78 159.744 1155.07 73.7275 1155.07 c 1
 73.7275 1198.08 l 1
 919.552 1198.08 l 1xaac0
 919.552 999.424 l 1
 876.544 999.424 l 1
 876.544 1085.44 864.256 1116.16 835.584 1128.45 c 1
 462.848 1128.45 l 1
 462.848 657.408 l 1
 698.368 657.408 l 1
 727.04 669.696 739.328 700.416 739.328 786.432 c 1
 782.336 786.432 l 1
 782.336 458.752 l 1
 739.328 458.752 l 1
 739.328 544.768 727.04 575.488 698.368 587.776 c 1
 462.848 587.776 l 1
 462.848 69.6318 l 1
 878.592 69.6318 l 1x72c0
 907.264 81.9199 942.08 124.928 970.752 198.656 c 1
 1011.71 198.656 l 1
 962.561 0 l 1
 73.7275 0 l 1xa2c0
EndSplineSet
Fore
Refer: 446 770 S 1 0 0 1 1087 246 2
Refer: 38 69 N 1 0 0 1 0 0 3
Validated: 1
EndChar

StartChar: Edieresis
Encoding: 203 203 139
Width: 1030
Flags: MW
LayerCount: 2
Back
SplineSet
643.072 1390.59 m 0x0580
 643.072 1456.13 696.32 1511.42 761.856 1511.42 c 0
 827.392 1511.42 882.688 1456.13 882.688 1390.59 c 0
 882.688 1325.06 827.392 1269.76 761.856 1269.76 c 0
 696.32 1269.76 643.072 1325.06 643.072 1390.59 c 0x0580
251.904 1390.59 m 0
 251.904 1456.13 307.2 1511.42 372.736 1511.42 c 0
 438.272 1511.42 491.52 1456.13 491.52 1390.59 c 0
 491.52 1325.06 438.272 1269.76 372.736 1269.76 c 0
 307.2 1269.76 251.904 1325.06 251.904 1390.59 c 0
73.7275 0 m 1xa260
 73.7275 43.0078 l 1
 159.744 43.0078 190.464 55.2959 202.752 83.9678 c 1
 202.752 1114.11 l 1
 190.464 1142.78 159.744 1155.07 73.7275 1155.07 c 1
 73.7275 1198.08 l 1
 919.552 1198.08 l 1xaa60
 919.552 999.424 l 1
 876.544 999.424 l 1
 876.544 1085.44 864.256 1116.16 835.584 1128.45 c 1
 462.848 1128.45 l 1
 462.848 657.408 l 1
 698.368 657.408 l 1
 727.04 669.696 739.328 700.416 739.328 786.432 c 1
 782.336 786.432 l 1
 782.336 458.752 l 1
 739.328 458.752 l 1
 739.328 544.768 727.04 575.488 698.368 587.776 c 1
 462.848 587.776 l 1
 462.848 69.6318 l 1
 878.592 69.6318 l 1x7260
 907.264 81.9199 942.08 124.928 970.752 198.656 c 1
 1011.71 198.656 l 1
 962.561 0 l 1
 73.7275 0 l 1xa260
EndSplineSet
Fore
Refer: 452 776 N 1 0 0 1 1087 246 2
Refer: 38 69 N 1 0 0 1 0 0 3
Validated: 1
EndChar

StartChar: Igrave
Encoding: 204 204 140
Width: 665
Flags: MW
LayerCount: 2
Back
SplineSet
284.672 1601.54 m 1x30
 395.264 1269.76 l 1
 301.056 1269.76 l 1
 26.624 1601.54 l 1
 284.672 1601.54 l 1x30
73.7275 0 m 1xc8
 73.7275 43.0078 l 1
 159.744 43.0078 190.464 55.2959 202.752 83.9678 c 1
 202.752 1114.11 l 1
 190.464 1142.78 159.744 1155.07 73.7275 1155.07 c 1
 73.7275 1198.08 l 1
 591.872 1198.08 l 1
 591.872 1155.07 l 1
 505.856 1155.07 475.136 1142.78 462.848 1114.11 c 1
 462.848 83.9678 l 1
 475.136 55.2959 505.856 43.0078 591.872 43.0078 c 1
 591.872 0 l 1
 73.7275 0 l 1xc8
EndSplineSet
Fore
Refer: 444 768 S 1 0 0 1 862 246 2
Refer: 42 73 N 1 0 0 1 0 0 3
Validated: 1
EndChar

StartChar: Iacute
Encoding: 205 205 141
Width: 665
Flags: MW
LayerCount: 2
Back
SplineSet
362.496 1601.54 m 1x28
 620.544 1601.54 l 1
 346.112 1269.76 l 1
 251.904 1269.76 l 1
 362.496 1601.54 l 1x28
73.7275 0 m 1xd0
 73.7275 43.0078 l 1
 159.744 43.0078 190.464 55.2959 202.752 83.9678 c 1
 202.752 1114.11 l 1
 190.464 1142.78 159.744 1155.07 73.7275 1155.07 c 1
 73.7275 1198.08 l 1
 591.872 1198.08 l 1
 591.872 1155.07 l 1
 505.856 1155.07 475.136 1142.78 462.848 1114.11 c 1
 462.848 83.9678 l 1
 475.136 55.2959 505.856 43.0078 591.872 43.0078 c 1
 591.872 0 l 1
 73.7275 0 l 1xd0
EndSplineSet
Fore
Refer: 445 769 S 1 0 0 1 862 246 2
Refer: 42 73 N 1 0 0 1 0 0 3
Validated: 1
EndChar

StartChar: Icircumflex
Encoding: 206 206 142
Width: 665
Flags: MW
LayerCount: 2
Back
SplineSet
393.216 1601.54 m 1x30
 585.729 1269.76 l 1
 512 1269.76 l 1
 342.016 1406.98 l 1
 172.032 1269.76 l 1
 98.3037 1269.76 l 1
 290.816 1601.54 l 1
 393.216 1601.54 l 1x30
73.7275 0 m 1xc8
 73.7275 43.0078 l 1
 159.744 43.0078 190.464 55.2959 202.752 83.9678 c 1
 202.752 1114.11 l 1
 190.464 1142.78 159.744 1155.07 73.7275 1155.07 c 1
 73.7275 1198.08 l 1
 591.872 1198.08 l 1
 591.872 1155.07 l 1
 505.856 1155.07 475.136 1142.78 462.848 1114.11 c 1
 462.848 83.9678 l 1
 475.136 55.2959 505.856 43.0078 591.872 43.0078 c 1
 591.872 0 l 1
 73.7275 0 l 1xc8
EndSplineSet
Fore
Refer: 446 770 N 1 0 0 1 862 246 2
Refer: 42 73 N 1 0 0 1 0 0 3
Validated: 1
EndChar

StartChar: Idieresis
Encoding: 207 207 143
Width: 665
Flags: MW
LayerCount: 2
Back
SplineSet
417.792 1390.59 m 0x34
 417.792 1456.13 471.04 1511.42 536.576 1511.42 c 0
 602.112 1511.42 657.408 1456.13 657.408 1390.59 c 0
 657.408 1325.06 602.112 1269.76 536.576 1269.76 c 0
 471.04 1269.76 417.792 1325.06 417.792 1390.59 c 0x34
26.624 1390.59 m 0
 26.624 1456.13 81.9199 1511.42 147.456 1511.42 c 0
 212.992 1511.42 266.24 1456.13 266.24 1390.59 c 0
 266.24 1325.06 212.992 1269.76 147.456 1269.76 c 0
 81.9199 1269.76 26.624 1325.06 26.624 1390.59 c 0
73.7275 0 m 1xc8
 73.7275 43.0078 l 1
 159.744 43.0078 190.464 55.2959 202.752 83.9678 c 1
 202.752 1114.11 l 1
 190.464 1142.78 159.744 1155.07 73.7275 1155.07 c 1
 73.7275 1198.08 l 1
 591.872 1198.08 l 1
 591.872 1155.07 l 1
 505.856 1155.07 475.136 1142.78 462.848 1114.11 c 1
 462.848 83.9678 l 1
 475.136 55.2959 505.856 43.0078 591.872 43.0078 c 1
 591.872 0 l 1
 73.7275 0 l 1xc8
EndSplineSet
Fore
Refer: 452 776 N 1 0 0 1 862 246 2
Refer: 42 73 N 1 0 0 1 0 0 3
Validated: 1
EndChar

StartChar: Eth
Encoding: 208 208 144
Width: 1220
Flags: MW
AnchorPoint: "top" 489 1413 basechar 0
LayerCount: 2
Fore
SplineSet
68 41 m 1,0,1
 180 41 180 41 197 82 c 1,2,-1
 197 315 l 2,3,4
 197 728 197 728 518 864 c 0,5,6
 636 914 636 914 803 930 c 1,7,8
 754 1033 754 1033 674.5 1085 c 128,-1,9
 595 1137 595 1137 502 1137 c 2,10,-1
 385 1137 l 1,11,-1
 385 963 l 1,12,-1
 303 963 l 1,13,-1
 303 1137 l 1,14,-1
 133 1137 l 1,15,16
 108 1127 108 1127 84.5 1081.5 c 128,-1,17
 61 1036 61 1036 61 977 c 1,18,-1
 18 977 l 1,19,-1
 18 1198 l 1,20,-1
 303 1198 l 1,21,-1
 303 1341 l 1,22,-1
 385 1341 l 1,23,-1
 385 1198 l 1,24,-1
 539 1198 l 2,25,26
 812 1198 812 1198 977.5 1032 c 128,-1,27
 1143 866 1143 866 1143 599.5 c 128,-1,28
 1143 333 1143 333 981.5 165.5 c 128,-1,29
 820 -2 820 -2 563 -2 c 2,30,-1
 68 -2 l 1,31,-1
 68 41 l 1,0,1
829 868 m 1,32,33
 508 822 508 822 466 528 c 0,34,35
 458 468 458 468 457 393 c 2,36,-1
 457 68 l 1,37,-1
 526 68 l 2,38,39
 697 68 697 68 794 244 c 0,40,41
 866 375 866 375 866 566.5 c 128,-1,42
 866 758 866 758 829 868 c 1,32,33
EndSplineSet
Validated: 1
Substitution2: "'ss09' D with stroke through bowl subtable" Eth.ss09
Substitution2: "'locl' Localized Eth Forms subtable" Dafrican
EndChar

StartChar: Ntilde
Encoding: 209 209 145
Width: 1275
Flags: MW
LayerCount: 2
Back
SplineSet
792.576 1249.28 m 0x26
 708.608 1249.28 536.576 1370.11 475.136 1370.11 c 0
 393.216 1370.11 372.736 1345.54 372.736 1269.76 c 1
 333.824 1269.76 l 1
 333.824 1462.27 411.648 1519.62 489.472 1519.62 c 0x16
 573.44 1519.62 747.52 1398.78 808.96 1398.78 c 0
 890.88 1398.78 911.36 1423.36 911.36 1499.14 c 1
 950.272 1499.14 l 1
 950.272 1306.62 870.4 1249.28 792.576 1249.28 c 0x26
73.7275 0 m 1xc9
 73.7275 43.0078 l 1
 159.744 43.0078 190.464 55.2959 202.752 83.9678 c 1
 202.752 1114.11 l 1
 190.464 1142.78 159.744 1155.07 73.7275 1155.07 c 1
 73.7275 1198.08 l 1
 419.84 1198.08 l 1
 1026.05 368.64 l 1
 1026.05 1114.11 l 1
 1013.76 1142.78 983.04 1155.07 897.024 1155.07 c 1
 897.024 1198.08 l 1
 1224.7 1198.08 l 1
 1224.7 1155.07 l 1
 1138.69 1155.07 1107.97 1142.78 1095.68 1114.11 c 1
 1095.68 0 l 1
 1005.57 0 l 1
 272.384 1013.76 l 1
 272.384 83.9678 l 1
 284.672 55.2959 315.392 43.0078 401.408 43.0078 c 1
 401.408 0 l 1
 73.7275 0 l 1xc9
EndSplineSet
Fore
Refer: 447 771 N 1 0 0 1 1159 246 2
Refer: 47 78 N 1 0 0 1 0 0 3
Validated: 1
EndChar

StartChar: Ograve
Encoding: 210 210 146
Width: 1359
Flags: MW
LayerCount: 2
Back
SplineSet
630.784 1601.54 m 1
 741.376 1269.76 l 1
 647.168 1269.76 l 1
 372.736 1601.54 l 1
 630.784 1601.54 l 1
348.16 614.4 m 0
 348.16 362.496 432.128 49.1523 688.128 49.1523 c 0
 944.128 49.1523 1011.71 344.064 1011.71 581.632 c 0
 1011.71 833.536 923.648 1148.93 671.744 1148.93 c 0
 415.744 1148.93 348.16 851.968 348.16 614.4 c 0
71.6797 598.016 m 0
 71.6797 931.84 342.016 1218.56 679.936 1218.56 c 0
 1017.86 1218.56 1288.19 931.84 1288.19 598.016 c 0
 1288.19 264.192 1013.76 -20.4805 679.936 -20.4805 c 0
 337.92 -20.4805 71.6797 264.192 71.6797 598.016 c 0
EndSplineSet
Fore
Refer: 444 768 S 1 0 0 1 1208 246 2
Refer: 48 79 N 1 0 0 1 0 0 3
Validated: 1
EndChar

StartChar: Oacute
Encoding: 211 211 147
Width: 1359
Flags: MW
LayerCount: 2
Back
SplineSet
708.608 1601.54 m 1
 966.656 1601.54 l 1
 692.224 1269.76 l 1
 598.016 1269.76 l 1
 708.608 1601.54 l 1
348.16 614.4 m 0
 348.16 362.496 432.128 49.1523 688.128 49.1523 c 0
 944.128 49.1523 1011.71 344.064 1011.71 581.632 c 0
 1011.71 833.536 923.648 1148.93 671.744 1148.93 c 0
 415.744 1148.93 348.16 851.968 348.16 614.4 c 0
71.6797 598.016 m 0
 71.6797 931.84 342.016 1218.56 679.936 1218.56 c 0
 1017.86 1218.56 1288.19 931.84 1288.19 598.016 c 0
 1288.19 264.192 1013.76 -20.4805 679.936 -20.4805 c 0
 337.92 -20.4805 71.6797 264.192 71.6797 598.016 c 0
EndSplineSet
Fore
Refer: 445 769 S 1 0 0 1 1208 246 2
Refer: 48 79 N 1 0 0 1 0 0 3
Validated: 1
EndChar

StartChar: Ocircumflex
Encoding: 212 212 148
Width: 1359
Flags: MW
LayerCount: 2
Back
SplineSet
739.328 1601.54 m 1
 931.84 1269.76 l 1
 858.112 1269.76 l 1
 688.128 1406.98 l 1
 518.145 1269.76 l 1
 444.416 1269.76 l 1
 636.928 1601.54 l 1
 739.328 1601.54 l 1
348.16 614.4 m 0
 348.16 362.496 432.128 49.1523 688.128 49.1523 c 0
 944.128 49.1523 1011.71 344.064 1011.71 581.632 c 0
 1011.71 833.536 923.648 1148.93 671.744 1148.93 c 0
 415.744 1148.93 348.16 851.968 348.16 614.4 c 0
71.6797 598.016 m 0
 71.6797 931.84 342.016 1218.56 679.936 1218.56 c 0
 1017.86 1218.56 1288.19 931.84 1288.19 598.016 c 0
 1288.19 264.192 1013.76 -20.4805 679.936 -20.4805 c 0
 337.92 -20.4805 71.6797 264.192 71.6797 598.016 c 0
EndSplineSet
Fore
Refer: 446 770 S 1 0 0 1 1208 246 2
Refer: 48 79 N 1 0 0 1 0 0 3
Validated: 1
EndChar

StartChar: Otilde
Encoding: 213 213 149
Width: 1359
Flags: MW
LayerCount: 2
Back
SplineSet
841.729 1249.28 m 0x26
 757.76 1249.28 585.729 1370.11 524.288 1370.11 c 0
 442.368 1370.11 421.888 1345.54 421.888 1269.76 c 1
 382.976 1269.76 l 1
 382.976 1462.27 460.8 1519.62 538.624 1519.62 c 0x16
 622.592 1519.62 796.672 1398.78 858.112 1398.78 c 0
 940.032 1398.78 960.512 1423.36 960.512 1499.14 c 1
 999.424 1499.14 l 1
 999.424 1306.62 919.552 1249.28 841.729 1249.28 c 0x26
348.16 614.4 m 0xc9
 348.16 362.496 432.128 49.1523 688.128 49.1523 c 0
 944.128 49.1523 1011.71 344.064 1011.71 581.632 c 0
 1011.71 833.536 923.648 1148.93 671.744 1148.93 c 0
 415.744 1148.93 348.16 851.968 348.16 614.4 c 0xc9
71.6797 598.016 m 0
 71.6797 931.84 342.016 1218.56 679.936 1218.56 c 0
 1017.86 1218.56 1288.19 931.84 1288.19 598.016 c 0
 1288.19 264.192 1013.76 -20.4805 679.936 -20.4805 c 0
 337.92 -20.4805 71.6797 264.192 71.6797 598.016 c 0
EndSplineSet
Fore
Refer: 447 771 S 1 0 0 1 1208 246 2
Refer: 48 79 N 1 0 0 1 0 0 3
Validated: 1
EndChar

StartChar: Odieresis
Encoding: 214 214 150
Width: 1359
Flags: MW
LayerCount: 2
Back
SplineSet
763.904 1390.59 m 0
 763.904 1456.13 817.152 1511.42 882.688 1511.42 c 0
 948.224 1511.42 1003.52 1456.13 1003.52 1390.59 c 0
 1003.52 1325.06 948.224 1269.76 882.688 1269.76 c 0
 817.152 1269.76 763.904 1325.06 763.904 1390.59 c 0
372.736 1390.59 m 0
 372.736 1456.13 428.032 1511.42 493.568 1511.42 c 0
 559.104 1511.42 612.352 1456.13 612.352 1390.59 c 0
 612.352 1325.06 559.104 1269.76 493.568 1269.76 c 0
 428.032 1269.76 372.736 1325.06 372.736 1390.59 c 0
348.16 614.4 m 0
 348.16 362.496 432.128 49.1523 688.128 49.1523 c 0
 944.128 49.1523 1011.71 344.064 1011.71 581.632 c 0
 1011.71 833.536 923.648 1148.93 671.744 1148.93 c 0
 415.744 1148.93 348.16 851.968 348.16 614.4 c 0
71.6797 598.016 m 0
 71.6797 931.84 342.016 1218.56 679.936 1218.56 c 0
 1017.86 1218.56 1288.19 931.84 1288.19 598.016 c 0
 1288.19 264.192 1013.76 -20.4805 679.936 -20.4805 c 0
 337.92 -20.4805 71.6797 264.192 71.6797 598.016 c 0
EndSplineSet
Fore
Refer: 452 776 S 1 0 0 1 1208 246 2
Refer: 48 79 N 1 0 0 1 0 0 3
Validated: 1
EndChar

StartChar: multiply
Encoding: 215 215 151
Width: 843
Flags: MW
LayerCount: 2
Fore
SplineSet
485 651 m 1,0,-1
 748 389 l 1,1,-1
 684 326 l 1,2,-1
 422 588 l 1,3,-1
 160 326 l 1,4,-1
 96 389 l 1,5,-1
 358 651 l 1,6,-1
 96 913 l 1,7,-1
 160 977 l 1,8,-1
 422 715 l 1,9,-1
 684 977 l 1,10,-1
 748 913 l 1,11,-1
 485 651 l 1,0,-1
EndSplineSet
Validated: 1
EndChar

StartChar: Oslash
Encoding: 216 216 152
Width: 1359
UnlinkRmOvrlpSave: 1
Flags: W
AnchorPoint: "top" 688 1270 basechar 0
AnchorPoint: "below" 690 0 basechar 0
AnchorPoint: "cedilla" 690 0 basechar 0
AnchorPoint: "ogonek" 750 0 basechar 0
LayerCount: 2
Back
SplineSet
330 -57 m 5
 270 -20 l 5
 338 86 l 1
 256 143.333 191.167 217.167 143.5 307.5 c 128
 95.8333 397.833 72 489.333 72 582 c 128
 72 674.667 88 759.167 120 835.5 c 128
 152 911.833 195 978 249 1034 c 128
 303 1090 367.667 1134.83 443 1168.5 c 128
 518.333 1202.17 603.833 1219 699.5 1219 c 128
 795.167 1219 891.667 1189.33 989 1130 c 1
 1067 1253 l 5
 1126 1217 l 5
 1049 1090 l 1
 1123.67 1032 1182.17 959.833 1224.5 873.5 c 128
 1266.83 787.166 1288 692.333 1288 589 c 128
 1288 485.667 1260.83 386.5 1206.5 291.5 c 128
 1152.17 196.5 1078.17 120.833 984.5 64.5 c 128
 890.833 8.16667 791.667 -20 687 -20 c 128
 582.333 -20 485.667 3.66667 397 51 c 1
 330 -57 l 5
948 932 m 1
 467 162 l 1
 524.333 86.6667 598 49 688 49 c 0
 748.667 49 801.167 65.1667 845.5 97.5 c 128
 889.833 129.833 923.333 173.333 946 228 c 0
 990 331.333 1012 449.333 1012 582 c 128
 1012 714.667 990.667 831.333 948 932 c 1
911 1006 m 1
 852.333 1101.33 772.667 1149 672 1149 c 0
 622.667 1149 578.667 1137.83 540 1115.5 c 128
 501.333 1093.17 470.333 1064.67 447 1030 c 0
 423.667 994 404.333 952 389 904 c 0
 361.667 818 348 710.167 348 580.5 c 128
 348 450.833 374 333.667 426 229 c 1
 911 1006 l 1
EndSplineSet
Fore
SplineSet
330 -57 m 1
 270 -20 l 1
 1067 1253 l 1
 1126 1217 l 1
 330 -57 l 1
EndSplineSet
Refer: 48 79 N 1 0 0 1 0 0 2
EndChar

StartChar: Ugrave
Encoding: 217 217 153
Width: 1236
Flags: MW
LayerCount: 2
Back
SplineSet
661.504 1601.54 m 1x28
 772.096 1269.76 l 1
 677.888 1269.76 l 1
 403.456 1601.54 l 1
 661.504 1601.54 l 1x28
708.608 49.1523 m 0xd4
 886.784 49.1523 1001.47 208.896 1001.47 466.944 c 2
 1001.47 1114.11 l 1
 989.184 1142.78 958.464 1155.07 872.448 1155.07 c 1
 872.448 1198.08 l 1
 1200.13 1198.08 l 1
 1200.13 1155.07 l 1
 1114.11 1155.07 1083.39 1142.78 1071.1 1114.11 c 1
 1071.1 507.904 l 2
 1071.1 131.072 876.544 -20.4805 657.408 -20.4805 c 0
 380.928 -20.4805 165.888 106.496 165.888 507.904 c 2
 165.888 1114.11 l 1
 153.6 1142.78 122.88 1155.07 36.8643 1155.07 c 1
 36.8643 1198.08 l 1
 555.008 1198.08 l 1
 555.008 1155.07 l 1
 468.992 1155.07 438.272 1142.78 425.984 1114.11 c 1
 425.984 479.232 l 2
 425.984 200.704 522.24 49.1523 708.608 49.1523 c 0xd4
EndSplineSet
Fore
Refer: 444 768 S 1 0 0 1 1239 246 2
Refer: 54 85 N 1 0 0 1 0 0 3
Validated: 1
EndChar

StartChar: Uacute
Encoding: 218 218 154
Width: 1236
Flags: MW
LayerCount: 2
Back
SplineSet
739.328 1601.54 m 1
 997.376 1601.54 l 1
 722.944 1269.76 l 1
 628.736 1269.76 l 1
 739.328 1601.54 l 1
708.608 49.1523 m 0
 886.784 49.1523 1001.47 208.896 1001.47 466.944 c 2
 1001.47 1114.11 l 1
 989.184 1142.78 958.464 1155.07 872.448 1155.07 c 1
 872.448 1198.08 l 1
 1200.13 1198.08 l 1
 1200.13 1155.07 l 1
 1114.11 1155.07 1083.39 1142.78 1071.1 1114.11 c 1
 1071.1 507.904 l 2
 1071.1 131.072 876.544 -20.4805 657.408 -20.4805 c 0
 380.928 -20.4805 165.888 106.496 165.888 507.904 c 2
 165.888 1114.11 l 1
 153.6 1142.78 122.88 1155.07 36.8643 1155.07 c 1
 36.8643 1198.08 l 1
 555.008 1198.08 l 1
 555.008 1155.07 l 1
 468.992 1155.07 438.272 1142.78 425.984 1114.11 c 1
 425.984 479.232 l 2
 425.984 200.704 522.24 49.1523 708.608 49.1523 c 0
EndSplineSet
Fore
Refer: 445 769 S 1 0 0 1 1239 246 2
Refer: 54 85 N 1 0 0 1 0 0 3
Validated: 1
EndChar

StartChar: Ucircumflex
Encoding: 219 219 155
Width: 1236
Flags: MW
LayerCount: 2
Back
SplineSet
770.048 1601.54 m 1
 962.561 1269.76 l 1
 888.832 1269.76 l 1
 718.848 1406.98 l 1
 548.864 1269.76 l 1
 475.136 1269.76 l 1
 667.648 1601.54 l 1
 770.048 1601.54 l 1
708.608 49.1523 m 0
 886.784 49.1523 1001.47 208.896 1001.47 466.944 c 2
 1001.47 1114.11 l 1
 989.184 1142.78 958.464 1155.07 872.448 1155.07 c 1
 872.448 1198.08 l 1
 1200.13 1198.08 l 1
 1200.13 1155.07 l 1
 1114.11 1155.07 1083.39 1142.78 1071.1 1114.11 c 1
 1071.1 507.904 l 2
 1071.1 131.072 876.544 -20.4805 657.408 -20.4805 c 0
 380.928 -20.4805 165.888 106.496 165.888 507.904 c 2
 165.888 1114.11 l 1
 153.6 1142.78 122.88 1155.07 36.8643 1155.07 c 1
 36.8643 1198.08 l 1
 555.008 1198.08 l 1
 555.008 1155.07 l 1
 468.992 1155.07 438.272 1142.78 425.984 1114.11 c 1
 425.984 479.232 l 2
 425.984 200.704 522.24 49.1523 708.608 49.1523 c 0
EndSplineSet
Fore
Refer: 446 770 S 1 0 0 1 1239 246 2
Refer: 54 85 N 1 0 0 1 0 0 3
Validated: 1
EndChar

StartChar: Udieresis
Encoding: 220 220 156
Width: 1236
Flags: MW
LayerCount: 2
Back
SplineSet
794.624 1390.59 m 0x2c
 794.624 1456.13 847.872 1511.42 913.408 1511.42 c 0
 978.944 1511.42 1034.24 1456.13 1034.24 1390.59 c 0
 1034.24 1325.06 978.944 1269.76 913.408 1269.76 c 0
 847.872 1269.76 794.624 1325.06 794.624 1390.59 c 0x2c
403.456 1390.59 m 0
 403.456 1456.13 458.752 1511.42 524.288 1511.42 c 0
 589.824 1511.42 643.072 1456.13 643.072 1390.59 c 0
 643.072 1325.06 589.824 1269.76 524.288 1269.76 c 0
 458.752 1269.76 403.456 1325.06 403.456 1390.59 c 0
708.608 49.1523 m 0xd2
 886.784 49.1523 1001.47 208.896 1001.47 466.944 c 2
 1001.47 1114.11 l 1
 989.184 1142.78 958.464 1155.07 872.448 1155.07 c 1
 872.448 1198.08 l 1
 1200.13 1198.08 l 1
 1200.13 1155.07 l 1
 1114.11 1155.07 1083.39 1142.78 1071.1 1114.11 c 1
 1071.1 507.904 l 2
 1071.1 131.072 876.544 -20.4805 657.408 -20.4805 c 0
 380.928 -20.4805 165.888 106.496 165.888 507.904 c 2
 165.888 1114.11 l 1
 153.6 1142.78 122.88 1155.07 36.8643 1155.07 c 1
 36.8643 1198.08 l 1
 555.008 1198.08 l 1
 555.008 1155.07 l 1
 468.992 1155.07 438.272 1142.78 425.984 1114.11 c 1
 425.984 479.232 l 2
 425.984 200.704 522.24 49.1523 708.608 49.1523 c 0xd2
EndSplineSet
Fore
Refer: 452 776 N 1 0 0 1 1239 246 2
Refer: 54 85 N 1 0 0 1 0 0 3
Validated: 1
EndChar

StartChar: Yacute
Encoding: 221 221 157
Width: 1196
Flags: MW
LayerCount: 2
Back
SplineSet
720.896 1601.54 m 1x28
 978.944 1601.54 l 1
 704.512 1269.76 l 1
 610.304 1269.76 l 1
 720.896 1601.54 l 1x28
487.424 1198.08 m 1xd0
 487.424 1155.07 l 1
 419.84 1155.07 385.024 1148.93 368.64 1130.5 c 1
 686.08 575.488 l 1
 1013.76 1118.21 l 1
 999.424 1142.78 966.656 1155.07 886.784 1155.07 c 1
 886.784 1198.08 l 1
 1222.66 1198.08 l 1
 1222.66 1155.07 l 1
 1157.12 1155.07 1118.21 1148.93 1105.92 1128.45 c 2
 737.28 516.096 l 1
 737.28 83.9678 l 1
 749.568 55.2959 780.288 43.0078 866.304 43.0078 c 1
 866.304 0 l 1
 348.16 0 l 1
 348.16 43.0078 l 1
 434.176 43.0078 464.896 55.2959 477.184 83.9678 c 1
 477.184 450.56 l 1
 98.3037 1114.11 l 2
 83.9678 1138.69 47.1035 1155.07 -32.7676 1155.07 c 1
 -32.7676 1198.08 l 1
 487.424 1198.08 l 1xd0
EndSplineSet
Fore
Refer: 445 769 S 1 0 0 1 1221 246 2
Refer: 58 89 N 1 0 0 1 0 0 3
Validated: 1
EndChar

StartChar: Thorn
Encoding: 222 222 158
Width: 1081
Flags: MW
LayerCount: 2
Fore
SplineSet
463 84 m 1,0,1
 480 43 480 43 592 43 c 1,2,-1
 592 0 l 1,3,-1
 74 0 l 1,4,-1
 74 43 l 1,5,6
 186 43 186 43 203 84 c 1,7,-1
 203 1114 l 1,8,9
 186 1155 186 1155 74 1155 c 1,10,-1
 74 1198 l 1,11,-1
 592 1198 l 1,12,-1
 592 1155 l 1,13,14
 480 1155 480 1155 463 1114 c 1,15,-1
 463 973 l 1,16,-1
 498 973 l 2,17,18
 630 973 630 973 739 943 c 128,-1,19
 848 913 848 913 915 864 c 0,20,21
 1055 762 1055 762 1055 631 c 0,22,23
 1055 480 1055 480 917 371 c 0,24,25
 774 258 774 258 522 258 c 2,26,-1
 463 258 l 1,27,-1
 463 84 l 1,0,1
463 903 m 1,28,-1
 463 328 l 1,29,30
 630 328 630 328 704 400 c 128,-1,31
 778 472 778 472 778 629 c 0,32,33
 778 829 778 829 618 882 c 0,34,35
 554 903 554 903 463 903 c 1,28,-1
EndSplineSet
Validated: 1
EndChar

StartChar: germandbls
Encoding: 223 223 159
Width: 1103
Flags: MW
LayerCount: 2
Fore
SplineSet
696 41 m 0,0,1
 819 41 819 41 819 348 c 0,2,3
 819 433 819 433 786 513.5 c 128,-1,4
 753 594 753 594 687 649.5 c 128,-1,5
 621 705 621 705 537 705 c 2,6,-1
 532 705 l 2,7,8
 500 705 500 705 500 724.5 c 128,-1,9
 500 744 500 744 532 754 c 1,10,11
 585 774 585 774 625.5 857.5 c 128,-1,12
 666 941 666 941 666 1022 c 0,13,14
 666 1229 666 1229 547 1229 c 0,15,16
 493 1229 493 1229 453.5 1169 c 128,-1,17
 414 1109 414 1109 414 999 c 2,18,-1
 414 0 l 1,19,-1
 29 0 l 1,20,-1
 29 43 l 1,21,22
 141 43 141 43 158 84 c 1,23,-1
 158 971 l 2,24,25
 158 1056 158 1056 194 1121 c 128,-1,26
 230 1186 230 1186 286 1221 c 0,27,28
 397 1290 397 1290 518 1290 c 0,29,30
 712 1290 712 1290 806.5 1219.5 c 128,-1,31
 901 1149 901 1149 901 1024 c 0,32,33
 901 938 901 938 832.5 856 c 128,-1,34
 764 774 764 774 666 733 c 1,35,36
 821 705 821 705 941 601.5 c 128,-1,37
 1061 498 1061 498 1061 389 c 0,38,39
 1061 204 1061 204 965 92 c 128,-1,40
 869 -20 869 -20 709 -20 c 0,41,42
 643 -20 643 -20 592 0.5 c 128,-1,43
 541 21 541 21 515 50 c 0,44,45
 463 108 463 108 463 158.5 c 128,-1,46
 463 209 463 209 479 233.5 c 128,-1,47
 495 258 495 258 530 258 c 128,-1,48
 565 258 565 258 581 235.5 c 128,-1,49
 597 213 597 213 603.5 181.5 c 128,-1,50
 610 150 610 150 618 118 c 0,51,52
 636 41 636 41 696 41 c 0,0,1
EndSplineSet
Validated: 1
EndChar

StartChar: agrave
Encoding: 224 224 160
Width: 1030
Flags: MW
LayerCount: 2
Back
SplineSet
417.792 1386.5 m 1x12
 528.384 1054.72 l 1
 434.176 1054.72 l 1
 159.744 1386.5 l 1
 417.792 1386.5 l 1x12
266.24 749.568 m 1xe980
 299.008 749.568 313.344 712.704 313.344 665.6 c 0
 313.344 614.4 247.808 593.92 204.8 593.92 c 0
 151.552 593.92 100.352 634.88 100.352 696.32 c 0xe580
 100.352 839.68 258.048 921.6 473.088 921.6 c 0
 741.376 921.6 884.736 768 884.736 577.536 c 2
 884.736 172.032 l 2
 884.736 77.8242 923.648 45.0557 958.464 45.0557 c 0
 993.28 45.0557 1028.1 65.5361 1028.1 94.208 c 1
 1064.96 94.208 l 1
 1064.96 18.4316 980.992 -16.3838 839.68 -16.3838 c 0
 784.384 -16.3838 720.896 2.04785 677.888 57.3438 c 1
 616.448 18.4316 524.288 -20.4805 393.216 -20.4805 c 0
 221.184 -20.4805 51.2002 32.7676 51.2002 229.376 c 0
 51.2002 411.648 411.648 450.56 628.736 505.856 c 1
 628.736 737.28 614.4 847.872 452.608 847.872 c 0
 364.544 847.872 280.576 808.96 266.24 749.568 c 1xe980
649.216 106.496 m 1
 636.928 139.264 628.736 178.176 628.736 229.376 c 2
 628.736 460.8 l 1
 493.568 419.84 313.344 376.832 313.344 225.28 c 0xe980
 313.344 86.0156 389.12 49.1523 444.416 49.1523 c 0
 497.664 49.1523 583.68 73.7275 649.216 106.496 c 1
EndSplineSet
Fore
Refer: 444 768 S 1 0 0 1 995 31 2
Refer: 66 97 N 1 0 0 1 0 0 3
Validated: 1
EndChar

StartChar: aacute
Encoding: 225 225 161
Width: 1030
Flags: MW
LayerCount: 2
Back
SplineSet
495.616 1386.5 m 1x12
 753.664 1386.5 l 1
 479.232 1054.72 l 1
 385.024 1054.72 l 1
 495.616 1386.5 l 1x12
266.24 749.568 m 1xe980
 299.008 749.568 313.344 712.704 313.344 665.6 c 0
 313.344 614.4 247.808 593.92 204.8 593.92 c 0
 151.552 593.92 100.352 634.88 100.352 696.32 c 0xe580
 100.352 839.68 258.048 921.6 473.088 921.6 c 0
 741.376 921.6 884.736 768 884.736 577.536 c 2
 884.736 172.032 l 2
 884.736 77.8242 923.648 45.0557 958.464 45.0557 c 0
 993.28 45.0557 1028.1 65.5361 1028.1 94.208 c 1
 1064.96 94.208 l 1
 1064.96 18.4316 980.992 -16.3838 839.68 -16.3838 c 0
 784.384 -16.3838 720.896 2.04785 677.888 57.3438 c 1
 616.448 18.4316 524.288 -20.4805 393.216 -20.4805 c 0
 221.184 -20.4805 51.2002 32.7676 51.2002 229.376 c 0
 51.2002 411.648 411.648 450.56 628.736 505.856 c 1
 628.736 737.28 614.4 847.872 452.608 847.872 c 0
 364.544 847.872 280.576 808.96 266.24 749.568 c 1xe980
649.216 106.496 m 1
 636.928 139.264 628.736 178.176 628.736 229.376 c 2
 628.736 460.8 l 1
 493.568 419.84 313.344 376.832 313.344 225.28 c 0xe980
 313.344 86.0156 389.12 49.1523 444.416 49.1523 c 0
 497.664 49.1523 583.68 73.7275 649.216 106.496 c 1
EndSplineSet
Fore
Refer: 445 769 S 1 0 0 1 995 31 2
Refer: 66 97 N 1 0 0 1 0 0 3
Validated: 1
EndChar

StartChar: acircumflex
Encoding: 226 226 162
Width: 1030
Flags: MW
LayerCount: 2
Back
SplineSet
526.336 1386.5 m 1x12
 718.848 1054.72 l 1
 645.12 1054.72 l 1
 475.136 1191.94 l 1
 305.152 1054.72 l 1
 231.424 1054.72 l 1
 423.936 1386.5 l 1
 526.336 1386.5 l 1x12
266.24 749.568 m 1xe980
 299.008 749.568 313.344 712.704 313.344 665.6 c 0
 313.344 614.4 247.808 593.92 204.8 593.92 c 0
 151.552 593.92 100.352 634.88 100.352 696.32 c 0xe580
 100.352 839.68 258.048 921.6 473.088 921.6 c 0
 741.376 921.6 884.736 768 884.736 577.536 c 2
 884.736 172.032 l 2
 884.736 77.8242 923.648 45.0557 958.464 45.0557 c 0
 993.28 45.0557 1028.1 65.5361 1028.1 94.208 c 1
 1064.96 94.208 l 1
 1064.96 18.4316 980.992 -16.3838 839.68 -16.3838 c 0
 784.384 -16.3838 720.896 2.04785 677.888 57.3438 c 1
 616.448 18.4316 524.288 -20.4805 393.216 -20.4805 c 0
 221.184 -20.4805 51.2002 32.7676 51.2002 229.376 c 0
 51.2002 411.648 411.648 450.56 628.736 505.856 c 1
 628.736 737.28 614.4 847.872 452.608 847.872 c 0
 364.544 847.872 280.576 808.96 266.24 749.568 c 1xe980
649.216 106.496 m 1
 636.928 139.264 628.736 178.176 628.736 229.376 c 2
 628.736 460.8 l 1
 493.568 419.84 313.344 376.832 313.344 225.28 c 0xe980
 313.344 86.0156 389.12 49.1523 444.416 49.1523 c 0
 497.664 49.1523 583.68 73.7275 649.216 106.496 c 1
EndSplineSet
Fore
Refer: 446 770 S 1 0 0 1 995 31 2
Refer: 66 97 N 1 0 0 1 0 0 3
Validated: 1
EndChar

StartChar: atilde
Encoding: 227 227 163
Width: 1030
Flags: MW
LayerCount: 2
Back
SplineSet
628.736 1034.24 m 0x1140
 544.768 1034.24 372.736 1155.07 311.296 1155.07 c 0
 229.376 1155.07 208.896 1130.5 208.896 1054.72 c 1
 169.984 1054.72 l 1
 169.984 1247.23 247.808 1304.58 325.632 1304.58 c 0x0940
 409.6 1304.58 583.68 1183.74 645.12 1183.74 c 0
 727.04 1183.74 747.52 1208.32 747.52 1284.1 c 1
 786.432 1284.1 l 1
 786.432 1091.58 706.561 1034.24 628.736 1034.24 c 0x1140
266.24 749.568 m 1xe4a0
 299.008 749.568 313.344 712.704 313.344 665.6 c 0
 313.344 614.4 247.808 593.92 204.8 593.92 c 0
 151.552 593.92 100.352 634.88 100.352 696.32 c 0xe2a0
 100.352 839.68 258.048 921.6 473.088 921.6 c 0
 741.376 921.6 884.736 768 884.736 577.536 c 2
 884.736 172.032 l 2
 884.736 77.8242 923.648 45.0557 958.464 45.0557 c 0
 993.28 45.0557 1028.1 65.5361 1028.1 94.208 c 1
 1064.96 94.208 l 1
 1064.96 18.4316 980.992 -16.3838 839.68 -16.3838 c 0
 784.384 -16.3838 720.896 2.04785 677.888 57.3438 c 1
 616.448 18.4316 524.288 -20.4805 393.216 -20.4805 c 0
 221.184 -20.4805 51.2002 32.7676 51.2002 229.376 c 0
 51.2002 411.648 411.648 450.56 628.736 505.856 c 1
 628.736 737.28 614.4 847.872 452.608 847.872 c 0
 364.544 847.872 280.576 808.96 266.24 749.568 c 1xe4a0
649.216 106.496 m 1
 636.928 139.264 628.736 178.176 628.736 229.376 c 2
 628.736 460.8 l 1
 493.568 419.84 313.344 376.832 313.344 225.28 c 0xe4a0
 313.344 86.0156 389.12 49.1523 444.416 49.1523 c 0
 497.664 49.1523 583.68 73.7275 649.216 106.496 c 1
EndSplineSet
Fore
Refer: 447 771 S 1 0 0 1 995 31 2
Refer: 66 97 N 1 0 0 1 0 0 3
Validated: 1
EndChar

StartChar: adieresis
Encoding: 228 228 164
Width: 1030
Flags: MW
LayerCount: 2
Back
SplineSet
550.912 1175.55 m 0x13
 550.912 1241.09 604.16 1296.38 669.696 1296.38 c 0
 735.232 1296.38 790.528 1241.09 790.528 1175.55 c 0
 790.528 1110.02 735.232 1054.72 669.696 1054.72 c 0
 604.16 1054.72 550.912 1110.02 550.912 1175.55 c 0x13
159.744 1175.55 m 0
 159.744 1241.09 215.04 1296.38 280.576 1296.38 c 0
 346.112 1296.38 399.36 1241.09 399.36 1175.55 c 0
 399.36 1110.02 346.112 1054.72 280.576 1054.72 c 0
 215.04 1054.72 159.744 1110.02 159.744 1175.55 c 0
266.24 749.568 m 1xe8c0
 299.008 749.568 313.344 712.704 313.344 665.6 c 0
 313.344 614.4 247.808 593.92 204.8 593.92 c 0
 151.552 593.92 100.352 634.88 100.352 696.32 c 0xe4c0
 100.352 839.68 258.048 921.6 473.088 921.6 c 0
 741.376 921.6 884.736 768 884.736 577.536 c 2
 884.736 172.032 l 2
 884.736 77.8242 923.648 45.0557 958.464 45.0557 c 0
 993.28 45.0557 1028.1 65.5361 1028.1 94.208 c 1
 1064.96 94.208 l 1
 1064.96 18.4316 980.992 -16.3838 839.68 -16.3838 c 0
 784.384 -16.3838 720.896 2.04785 677.888 57.3438 c 1
 616.448 18.4316 524.288 -20.4805 393.216 -20.4805 c 0
 221.184 -20.4805 51.2002 32.7676 51.2002 229.376 c 0
 51.2002 411.648 411.648 450.56 628.736 505.856 c 1
 628.736 737.28 614.4 847.872 452.608 847.872 c 0
 364.544 847.872 280.576 808.96 266.24 749.568 c 1xe8c0
649.216 106.496 m 1
 636.928 139.264 628.736 178.176 628.736 229.376 c 2
 628.736 460.8 l 1
 493.568 419.84 313.344 376.832 313.344 225.28 c 0xe8c0
 313.344 86.0156 389.12 49.1523 444.416 49.1523 c 0
 497.664 49.1523 583.68 73.7275 649.216 106.496 c 1
EndSplineSet
Fore
Refer: 452 776 S 1 0 0 1 995 31 2
Refer: 66 97 N 1 0 0 1 0 0 3
Validated: 1
EndChar

StartChar: aring
Encoding: 229 229 165
Width: 1030
Flags: MW
LayerCount: 2
Back
SplineSet
389.12 1196.03 m 0x1980
 389.12 1148.93 428.032 1110.02 475.136 1110.02 c 0
 522.24 1110.02 561.152 1148.93 561.152 1196.03 c 0
 561.152 1243.14 522.24 1282.05 475.136 1282.05 c 0
 428.032 1282.05 389.12 1243.14 389.12 1196.03 c 0x1980
323.584 1196.03 m 0
 323.584 1282.05 389.12 1347.58 475.136 1347.58 c 0
 561.152 1347.58 626.688 1282.05 626.688 1196.03 c 0
 626.688 1110.02 561.152 1044.48 475.136 1044.48 c 0
 389.12 1044.48 323.584 1110.02 323.584 1196.03 c 0
266.24 749.568 m 1xe460
 299.008 749.568 313.344 712.704 313.344 665.6 c 0
 313.344 614.4 247.808 593.92 204.8 593.92 c 0
 151.552 593.92 100.352 634.88 100.352 696.32 c 0xe260
 100.352 839.68 258.048 921.6 473.088 921.6 c 0
 741.376 921.6 884.736 768 884.736 577.536 c 2
 884.736 172.032 l 2
 884.736 77.8242 923.648 45.0557 958.464 45.0557 c 0
 993.28 45.0557 1028.1 65.5361 1028.1 94.208 c 1
 1064.96 94.208 l 1
 1064.96 18.4316 980.992 -16.3838 839.68 -16.3838 c 0
 784.384 -16.3838 720.896 2.04785 677.888 57.3438 c 1
 616.448 18.4316 524.288 -20.4805 393.216 -20.4805 c 0
 221.184 -20.4805 51.2002 32.7676 51.2002 229.376 c 0
 51.2002 411.648 411.648 450.56 628.736 505.856 c 1
 628.736 737.28 614.4 847.872 452.608 847.872 c 0
 364.544 847.872 280.576 808.96 266.24 749.568 c 1xe460
649.216 106.496 m 1
 636.928 139.264 628.736 178.176 628.736 229.376 c 2
 628.736 460.8 l 1
 493.568 419.84 313.344 376.832 313.344 225.28 c 0xe460
 313.344 86.0156 389.12 49.1523 444.416 49.1523 c 0
 497.664 49.1523 583.68 73.7275 649.216 106.496 c 1
EndSplineSet
Fore
Refer: 454 778 N 1 0 0 1 995 31 2
Refer: 66 97 N 1 0 0 1 0 0 3
Validated: 1
EndChar

StartChar: ae
Encoding: 230 230 166
Width: 1589
Flags: MW
AnchorPoint: "top" 780 1055 basechar 0
LayerCount: 2
Fore
SplineSet
895 557 m 1,0,-1
 1268 557 l 1,1,2
 1248 784 1248 784 1172 838 c 0,3,4
 1140 860 1140 860 1096 860 c 0,5,6
 1022 860 1022 860 963.5 785.5 c 128,-1,7
 905 711 905 711 895 557 c 1,0,-1
1100 -20 m 0,8,9
 882 -20 882 -20 752 121 c 1,10,11
 708 69 708 69 618 24.5 c 128,-1,12
 528 -20 528 -20 426 -20 c 128,-1,13
 324 -20 324 -20 266 -8 c 0,14,15
 208 4 208 4 158 30 c 0,16,17
 51 86 51 86 51 226 c 0,18,19
 51 304 51 304 128 353 c 0,20,21
 209 404 209 404 289.5 425.5 c 128,-1,22
 370 447 370 447 417 458 c 128,-1,23
 464 469 464 469 528 483 c 128,-1,24
 592 497 592 497 627 506 c 1,25,26
 626 708 626 708 600 764 c 0,27,28
 572 824 572 824 522 840 c 0,29,30
 493 848 493 848 439 848 c 128,-1,31
 385 848 385 848 330.5 820.5 c 128,-1,32
 276 793 276 793 266 750 c 1,33,34
 313 750 313 750 313 666 c 0,35,36
 313 631 313 631 278.5 612.5 c 128,-1,37
 244 594 244 594 204 594 c 128,-1,38
 164 594 164 594 132 623 c 128,-1,39
 100 652 100 652 100 696 c 0,40,41
 100 801 100 801 204 861.5 c 128,-1,42
 308 922 308 922 486 922 c 128,-1,43
 664 922 664 922 780 821 c 1,44,45
 906 922 906 922 1079 922 c 0,46,47
 1304 922 1304 922 1425 792 c 0,48,49
 1540 669 1540 669 1540 494 c 1,50,-1
 893 494 l 1,51,52
 895 379 895 379 929.5 279.5 c 128,-1,53
 964 180 964 180 1027.5 118.5 c 128,-1,54
 1091 57 1091 57 1176 57 c 0,55,56
 1346 57 1346 57 1456 193 c 1,57,-1
 1505 168 l 1,58,59
 1445 71 1445 71 1350.5 25.5 c 128,-1,60
 1256 -20 1256 -20 1100 -20 c 0,8,9
721 158 m 1,61,62
 635 274 635 274 627 459 c 1,63,64
 426 398 426 398 374 354 c 1,65,66
 313 301 313 301 313 214 c 0,67,68
 313 131 313 131 353 90 c 0,69,70
 393 49 393 49 449.5 49 c 128,-1,71
 506 49 506 49 596.5 83 c 128,-1,72
 687 117 687 117 721 158 c 1,61,62
EndSplineSet
Validated: 1
EndChar

StartChar: ccedilla
Encoding: 231 231 167
Width: 985
UnlinkRmOvrlpSave: 1
Flags: W
AnchorPoint: "top" 551 1055 basechar 0
LayerCount: 2
Back
SplineSet
563 860 m 0
 498.333 860 443.666 827.5 399 762.5 c 128
 354.333 697.5 332 618.5 332 525.5 c 128
 332 432.5 342.5 352.333 363.5 285 c 128
 384.5 217.667 415.667 162.833 457 120.5 c 128
 498.333 78.1667 547.167 57 603.5 57 c 128
 659.833 57 708.5 68.5 749.5 91.5 c 128
 790.5 114.5 826.667 152.333 858 205 c 1
 934 168 l 1
 898 109.333 852.833 64.8333 798.5 34.5 c 128
 744.167 4.16667 674 -13.3333 588 -18 c 1
 563 -113 l 1
 603 -113 640.667 -120.333 676 -135 c 0
 744 -163 778 -199.5 778 -244.5 c 128
 778 -289.5 758.167 -328 718.5 -360 c 128
 678.833 -392 616.667 -408 532 -408 c 0
 490.667 -408 440.333 -403 381 -393 c 1
 381 -358 l 1
 405 -360.667 422 -362 432 -362 c 0
 484 -362 519.834 -352.5 539.5 -333.5 c 128
 559.167 -314.5 569 -292 569 -266 c 0
 569 -206 527.333 -176 444 -176 c 1
 489 -18 l 1
 349.667 -6 240.667 50.6667 162 152 c 0
 98 235.333 66 350 66 496 c 0
 66 572 85.8334 642.333 125.5 707 c 128
 165.167 771.667 221.667 823.667 295 863 c 128
 368.334 902.333 455.667 922 557 922 c 128
 658.333 922 742.667 903.167 810 865.5 c 128
 877.333 827.833 911 774.333 911 705 c 0
 911 671.665 902.667 643.832 886 621.5 c 128
 869.333 599.167 844.167 588 810.5 588 c 128
 776.833 588 750 596 730 612 c 128
 710 628 700 649.5 700 676.5 c 128
 700 703.5 707.167 723.833 721.5 737.5 c 128
 735.833 751.167 752.667 758 772 758 c 1
 754.667 826 685 860 563 860 c 0
EndSplineSet
Fore
Refer: 473 807 N 1 0 0 1 1066 0 2
Refer: 68 99 N 1 0 0 1 0 0 2
EndChar

StartChar: egrave
Encoding: 232 232 168
Width: 1026
Flags: MW
LayerCount: 2
Back
SplineSet
456.704 1386.5 m 1x14
 567.296 1054.72 l 1
 473.088 1054.72 l 1
 198.656 1386.5 l 1
 456.704 1386.5 l 1x14
329.729 493.568 m 1xe8
 333.824 264.192 444.416 57.3438 606.208 57.3438 c 0
 724.992 57.3438 811.008 90.1123 892.928 192.512 c 1
 942.08 167.936 l 1
 864.256 40.96 749.568 -20.4805 536.576 -20.4805 c 0
 348.16 -20.4805 63.4883 81.9199 63.4883 495.616 c 0
 63.4883 724.992 241.664 921.6 516.096 921.6 c 0
 823.296 921.6 976.896 718.848 976.896 493.568 c 1
 329.729 493.568 l 1xe8
331.776 557.056 m 1
 704.512 557.056 l 1
 690.176 727.04 653.312 860.16 532.48 860.16 c 0
 446.464 860.16 346.112 780.288 331.776 557.056 c 1
EndSplineSet
Fore
Refer: 444 768 S 1 0 0 1 1034 31 2
Refer: 70 101 N 1 0 0 1 0 0 3
Validated: 1
EndChar

StartChar: eacute
Encoding: 233 233 169
Width: 1026
Flags: MW
LayerCount: 2
Back
SplineSet
534.528 1386.5 m 1
 792.576 1386.5 l 1
 518.145 1054.72 l 1
 423.936 1054.72 l 1
 534.528 1386.5 l 1
329.729 493.568 m 1
 333.824 264.192 444.416 57.3438 606.208 57.3438 c 0
 724.992 57.3438 811.008 90.1123 892.928 192.512 c 1
 942.08 167.936 l 1
 864.256 40.96 749.568 -20.4805 536.576 -20.4805 c 0
 348.16 -20.4805 63.4883 81.9199 63.4883 495.616 c 0
 63.4883 724.992 241.664 921.6 516.096 921.6 c 0
 823.296 921.6 976.896 718.848 976.896 493.568 c 1
 329.729 493.568 l 1
331.776 557.056 m 1
 704.512 557.056 l 1
 690.176 727.04 653.312 860.16 532.48 860.16 c 0
 446.464 860.16 346.112 780.288 331.776 557.056 c 1
EndSplineSet
Fore
Refer: 445 769 S 1 0 0 1 1034 31 2
Refer: 70 101 N 1 0 0 1 0 0 3
Validated: 1
EndChar

StartChar: ecircumflex
Encoding: 234 234 170
Width: 1026
Flags: MW
LayerCount: 2
Back
SplineSet
565.248 1386.5 m 1x14
 757.76 1054.72 l 1
 684.032 1054.72 l 1
 514.048 1191.94 l 1
 344.064 1054.72 l 1
 270.336 1054.72 l 1
 462.848 1386.5 l 1
 565.248 1386.5 l 1x14
329.729 493.568 m 1xe8
 333.824 264.192 444.416 57.3438 606.208 57.3438 c 0
 724.992 57.3438 811.008 90.1123 892.928 192.512 c 1
 942.08 167.936 l 1
 864.256 40.96 749.568 -20.4805 536.576 -20.4805 c 0
 348.16 -20.4805 63.4883 81.9199 63.4883 495.616 c 0
 63.4883 724.992 241.664 921.6 516.096 921.6 c 0
 823.296 921.6 976.896 718.848 976.896 493.568 c 1
 329.729 493.568 l 1xe8
331.776 557.056 m 1
 704.512 557.056 l 1
 690.176 727.04 653.312 860.16 532.48 860.16 c 0
 446.464 860.16 346.112 780.288 331.776 557.056 c 1
EndSplineSet
Fore
Refer: 446 770 S 1 0 0 1 1034 31 2
Refer: 70 101 N 1 0 0 1 0 0 3
Validated: 1
EndChar

StartChar: edieresis
Encoding: 235 235 171
Width: 1026
Flags: MW
LayerCount: 2
Back
SplineSet
589.824 1175.55 m 0x16
 589.824 1241.09 643.072 1296.38 708.608 1296.38 c 0
 774.145 1296.38 829.44 1241.09 829.44 1175.55 c 0
 829.44 1110.02 774.145 1054.72 708.608 1054.72 c 0
 643.072 1054.72 589.824 1110.02 589.824 1175.55 c 0x16
198.656 1175.55 m 0
 198.656 1241.09 253.952 1296.38 319.488 1296.38 c 0
 385.024 1296.38 438.272 1241.09 438.272 1175.55 c 0
 438.272 1110.02 385.024 1054.72 319.488 1054.72 c 0
 253.952 1054.72 198.656 1110.02 198.656 1175.55 c 0
329.729 493.568 m 1xe8
 333.824 264.192 444.416 57.3438 606.208 57.3438 c 0
 724.992 57.3438 811.008 90.1123 892.928 192.512 c 1
 942.08 167.936 l 1
 864.256 40.96 749.568 -20.4805 536.576 -20.4805 c 0
 348.16 -20.4805 63.4883 81.9199 63.4883 495.616 c 0
 63.4883 724.992 241.664 921.6 516.096 921.6 c 0
 823.296 921.6 976.896 718.848 976.896 493.568 c 1
 329.729 493.568 l 1xe8
331.776 557.056 m 1
 704.512 557.056 l 1
 690.176 727.04 653.312 860.16 532.48 860.16 c 0
 446.464 860.16 346.112 780.288 331.776 557.056 c 1
EndSplineSet
Fore
Refer: 452 776 N 1 0 0 1 1034 31 2
Refer: 70 101 N 1 0 0 1 0 0 3
Validated: 1
EndChar

StartChar: igrave
Encoding: 236 236 172
Width: 591
Flags: MW
LayerCount: 2
Back
SplineSet
251.904 1386.5 m 1x18
 362.496 1054.72 l 1
 268.288 1054.72 l 1
 -6.14355 1386.5 l 1
 251.904 1386.5 l 1x18
49.1523 0 m 1xe4
 49.1523 43.0078 l 1
 135.168 43.0078 165.888 55.2959 178.176 83.9678 c 1
 178.176 778.24 l 1
 124.928 782.336 75.7764 786.432 49.1523 786.432 c 1
 49.1523 833.536 l 1
 129.024 833.536 342.016 921.6 434.176 921.6 c 1
 434.176 83.9678 l 1
 446.464 55.2959 477.184 43.0078 563.2 43.0078 c 1
 563.2 0 l 1
 49.1523 0 l 1xe4
EndSplineSet
Fore
Refer: 444 768 N 1 0 0 1 829 31 2
Refer: 241 305 N 1 0 0 1 0 0 3
Validated: 1
EndChar

StartChar: iacute
Encoding: 237 237 173
Width: 591
Flags: MW
LayerCount: 2
Back
SplineSet
329.729 1386.5 m 1x14
 587.776 1386.5 l 1
 313.344 1054.72 l 1
 219.136 1054.72 l 1
 329.729 1386.5 l 1x14
49.1523 0 m 1xe8
 49.1523 43.0078 l 1
 135.168 43.0078 165.888 55.2959 178.176 83.9678 c 1
 178.176 778.24 l 1
 124.928 782.336 75.7764 786.432 49.1523 786.432 c 1
 49.1523 833.536 l 1
 129.024 833.536 342.016 921.6 434.176 921.6 c 1
 434.176 83.9678 l 1
 446.464 55.2959 477.184 43.0078 563.2 43.0078 c 1
 563.2 0 l 1
 49.1523 0 l 1xe8
EndSplineSet
Fore
Refer: 445 769 N 1 0 0 1 829 31 2
Refer: 241 305 N 1 0 0 1 0 0 3
Validated: 1
EndChar

StartChar: icircumflex
Encoding: 238 238 174
Width: 591
Flags: MW
LayerCount: 2
Back
SplineSet
360.448 1386.5 m 1x18
 552.96 1054.72 l 1
 479.232 1054.72 l 1
 309.248 1191.94 l 1
 139.264 1054.72 l 1
 65.5361 1054.72 l 1
 258.048 1386.5 l 1
 360.448 1386.5 l 1x18
49.1523 0 m 1xe4
 49.1523 43.0078 l 1
 135.168 43.0078 165.888 55.2959 178.176 83.9678 c 1
 178.176 778.24 l 1
 124.928 782.336 75.7764 786.432 49.1523 786.432 c 1
 49.1523 833.536 l 1
 129.024 833.536 342.016 921.6 434.176 921.6 c 1
 434.176 83.9678 l 1
 446.464 55.2959 477.184 43.0078 563.2 43.0078 c 1
 563.2 0 l 1
 49.1523 0 l 1xe4
EndSplineSet
Fore
Refer: 446 770 S 1 0 0 1 829 31 2
Refer: 241 305 N 1 0 0 1 0 0 3
Validated: 1
EndChar

StartChar: idieresis
Encoding: 239 239 175
Width: 591
Flags: MW
LayerCount: 2
Back
SplineSet
385.024 1175.55 m 0x1a
 385.024 1241.09 438.272 1296.38 503.808 1296.38 c 0
 569.344 1296.38 624.64 1241.09 624.64 1175.55 c 0
 624.64 1110.02 569.344 1054.72 503.808 1054.72 c 0
 438.272 1054.72 385.024 1110.02 385.024 1175.55 c 0x1a
-6.14355 1175.55 m 0
 -6.14355 1241.09 49.1523 1296.38 114.688 1296.38 c 0
 180.224 1296.38 233.472 1241.09 233.472 1175.55 c 0
 233.472 1110.02 180.224 1054.72 114.688 1054.72 c 0
 49.1523 1054.72 -6.14355 1110.02 -6.14355 1175.55 c 0
49.1523 0 m 1xe4
 49.1523 43.0078 l 1
 135.168 43.0078 165.888 55.2959 178.176 83.9678 c 1
 178.176 778.24 l 1
 124.928 782.336 75.7764 786.432 49.1523 786.432 c 1
 49.1523 833.536 l 1
 129.024 833.536 342.016 921.6 434.176 921.6 c 1
 434.176 83.9678 l 1
 446.464 55.2959 477.184 43.0078 563.2 43.0078 c 1
 563.2 0 l 1
 49.1523 0 l 1xe4
EndSplineSet
Fore
Refer: 452 776 N 1 0 0 1 829 31 2
Refer: 241 305 N 1 0 0 1 0 0 3
Validated: 1
EndChar

StartChar: eth
Encoding: 240 240 176
Width: 1107
Flags: MW
LayerCount: 2
Fore
SplineSet
196.5 114 m 128,-1,1
 63 248 63 248 63 467 c 0,2,3
 63 657 63 657 177 785 c 0,4,5
 299 922 299 922 547 922 c 0,6,7
 591 922 591 922 649 915 c 1,8,9
 593 1010 593 1010 526 1083 c 1,10,-1
 365 991 l 1,11,-1
 330 1051 l 1,12,-1
 475 1135 l 1,13,14
 404 1206 404 1206 342 1242 c 2,15,-1
 322 1253 l 1,16,-1
 344 1290 l 1,17,18
 442 1258 442 1258 563 1186 c 1,19,-1
 737 1286 l 1,20,-1
 772 1227 l 1,21,-1
 629 1143 l 1,22,23
 790 1035 790 1035 906 875 c 0,24,25
 1040 690 1040 690 1040 442 c 0,26,27
 1040 201 1040 201 876 73 c 0,28,29
 757 -20 757 -20 543.5 -20 c 128,-1,0
 330 -20 330 -20 196.5 114 c 128,-1,1
332 508 m 0,30,31
 332 274 332 274 403.5 157.5 c 128,-1,32
 475 41 475 41 588 41 c 0,33,34
 672 41 672 41 722 140 c 128,-1,35
 772 239 772 239 772 395 c 0,36,37
 772 637 772 637 708.5 747.5 c 128,-1,38
 645 858 645 858 512 858 c 0,39,40
 439 858 439 858 385.5 752 c 128,-1,41
 332 646 332 646 332 508 c 0,30,31
EndSplineSet
Validated: 1
Substitution2: "'ss09' D with stroke through bowl subtable" eth.ss09
EndChar

StartChar: ntilde
Encoding: 241 241 177
Width: 1222
Flags: MW
LayerCount: 2
Back
SplineSet
792.576 1036.29 m 0x1280
 708.608 1036.29 536.576 1157.12 475.136 1157.12 c 0
 393.216 1157.12 372.736 1132.54 372.736 1056.77 c 1
 333.824 1056.77 l 1
 333.824 1249.28 411.648 1306.62 489.472 1306.62 c 0x0a80
 573.44 1306.62 747.52 1185.79 808.96 1185.79 c 0
 890.88 1185.79 911.36 1210.37 911.36 1286.14 c 1
 950.272 1286.14 l 1
 950.272 1093.63 870.4 1036.29 792.576 1036.29 c 0x1280
49.1523 0 m 1xe5
 49.1523 43.0078 l 1
 135.168 43.0078 165.888 55.2959 178.176 83.9678 c 1
 178.176 778.24 l 1
 122.88 782.336 75.7764 786.432 49.1523 786.432 c 1
 49.1523 833.536 l 1
 129.024 833.536 342.016 921.6 434.176 921.6 c 1
 434.176 835.584 l 1
 485.376 878.592 559.104 921.6 659.456 921.6 c 0
 917.504 921.6 1073.15 827.392 1073.15 630.784 c 2
 1073.15 83.9678 l 1
 1085.44 55.2959 1116.16 43.0078 1202.18 43.0078 c 1
 1202.18 0 l 1
 688.128 0 l 1
 688.128 43.0078 l 1
 774.145 43.0078 804.864 55.2959 817.152 83.9678 c 1
 817.152 645.12 l 2
 817.152 757.76 768 851.968 647.168 851.968 c 0
 546.816 851.968 477.184 811.008 434.176 770.048 c 1
 434.176 83.9678 l 1
 446.464 55.2959 477.184 43.0078 563.2 43.0078 c 1
 563.2 0 l 1
 49.1523 0 l 1xe5
EndSplineSet
Fore
Refer: 447 771 S 1 0 0 1 1159 33 2
Refer: 79 110 N 1 0 0 1 0 0 3
EndChar

StartChar: ograve
Encoding: 242 242 178
Width: 1116
Flags: MW
LayerCount: 2
Back
SplineSet
503.808 1386.5 m 1x28
 614.4 1054.72 l 1
 520.192 1054.72 l 1
 245.76 1386.5 l 1
 503.808 1386.5 l 1x28
331.776 507.904 m 0xd4
 331.776 180.224 419.84 40.96 593.92 40.96 c 0
 720.896 40.96 784.384 190.464 784.384 395.264 c 0
 784.384 720.896 722.944 858.112 518.145 858.112 c 0
 395.264 858.112 331.776 690.176 331.776 507.904 c 0xd4
567.296 -20.4805 m 0
 253.952 -20.4805 63.4883 180.224 63.4883 466.944 c 0
 63.4883 708.608 212.992 921.6 552.96 921.6 c 0
 884.736 921.6 1052.67 729.088 1052.67 442.368 c 0
 1052.67 200.704 905.216 -20.4805 567.296 -20.4805 c 0
EndSplineSet
Fore
Refer: 444 768 S 1 0 0 1 1081 31 2
Refer: 80 111 N 1 0 0 1 0 0 3
Validated: 1
EndChar

StartChar: oacute
Encoding: 243 243 179
Width: 1116
Flags: MW
LayerCount: 2
Back
SplineSet
581.632 1386.5 m 1x28
 839.68 1386.5 l 1
 565.248 1054.72 l 1
 471.04 1054.72 l 1
 581.632 1386.5 l 1x28
331.776 507.904 m 0xd4
 331.776 180.224 419.84 40.96 593.92 40.96 c 0
 720.896 40.96 784.384 190.464 784.384 395.264 c 0
 784.384 720.896 722.944 858.112 518.145 858.112 c 0
 395.264 858.112 331.776 690.176 331.776 507.904 c 0xd4
567.296 -20.4805 m 0
 253.952 -20.4805 63.4883 180.224 63.4883 466.944 c 0
 63.4883 708.608 212.992 921.6 552.96 921.6 c 0
 884.736 921.6 1052.67 729.088 1052.67 442.368 c 0
 1052.67 200.704 905.216 -20.4805 567.296 -20.4805 c 0
EndSplineSet
Fore
Refer: 445 769 S 1 0 0 1 1081 31 2
Refer: 80 111 N 1 0 0 1 0 0 3
Validated: 1
EndChar

StartChar: ocircumflex
Encoding: 244 244 180
Width: 1116
Flags: MW
LayerCount: 2
Back
SplineSet
612.352 1386.5 m 1x28
 804.864 1054.72 l 1
 731.136 1054.72 l 1
 561.152 1191.94 l 1
 391.168 1054.72 l 1
 317.44 1054.72 l 1
 509.952 1386.5 l 1
 612.352 1386.5 l 1x28
331.776 507.904 m 0xd4
 331.776 180.224 419.84 40.96 593.92 40.96 c 0
 720.896 40.96 784.384 190.464 784.384 395.264 c 0
 784.384 720.896 722.944 858.112 518.145 858.112 c 0
 395.264 858.112 331.776 690.176 331.776 507.904 c 0xd4
567.296 -20.4805 m 0
 253.952 -20.4805 63.4883 180.224 63.4883 466.944 c 0
 63.4883 708.608 212.992 921.6 552.96 921.6 c 0
 884.736 921.6 1052.67 729.088 1052.67 442.368 c 0
 1052.67 200.704 905.216 -20.4805 567.296 -20.4805 c 0
EndSplineSet
Fore
Refer: 446 770 S 1 0 0 1 1081 31 2
Refer: 80 111 N 1 0 0 1 0 0 3
Validated: 1
EndChar

StartChar: otilde
Encoding: 245 245 181
Width: 1116
Flags: MW
LayerCount: 2
Back
SplineSet
714.752 1034.24 m 0x25
 630.784 1034.24 458.752 1155.07 397.312 1155.07 c 0
 315.392 1155.07 294.912 1130.5 294.912 1054.72 c 1
 256 1054.72 l 1
 256 1247.23 333.824 1304.58 411.648 1304.58 c 0x15
 495.616 1304.58 669.696 1183.74 731.136 1183.74 c 0
 813.056 1183.74 833.536 1208.32 833.536 1284.1 c 1
 872.448 1284.1 l 1
 872.448 1091.58 792.576 1034.24 714.752 1034.24 c 0x25
331.776 507.904 m 0xca
 331.776 180.224 419.84 40.96 593.92 40.96 c 0
 720.896 40.96 784.384 190.464 784.384 395.264 c 0
 784.384 720.896 722.944 858.112 518.145 858.112 c 0
 395.264 858.112 331.776 690.176 331.776 507.904 c 0xca
567.296 -20.4805 m 0
 253.952 -20.4805 63.4883 180.224 63.4883 466.944 c 0
 63.4883 708.608 212.992 921.6 552.96 921.6 c 0
 884.736 921.6 1052.67 729.088 1052.67 442.368 c 0
 1052.67 200.704 905.216 -20.4805 567.296 -20.4805 c 0
EndSplineSet
Fore
Refer: 447 771 N 1 0 0 1 1081 31 2
Refer: 80 111 N 1 0 0 1 0 0 3
Validated: 1
EndChar

StartChar: odieresis
Encoding: 246 246 182
Width: 1116
Flags: MW
LayerCount: 2
Back
SplineSet
636.928 1175.55 m 0x2c
 636.928 1241.09 690.176 1296.38 755.712 1296.38 c 0
 821.248 1296.38 876.544 1241.09 876.544 1175.55 c 0
 876.544 1110.02 821.248 1054.72 755.712 1054.72 c 0
 690.176 1054.72 636.928 1110.02 636.928 1175.55 c 0x2c
245.76 1175.55 m 0
 245.76 1241.09 301.056 1296.38 366.592 1296.38 c 0
 432.128 1296.38 485.376 1241.09 485.376 1175.55 c 0
 485.376 1110.02 432.128 1054.72 366.592 1054.72 c 0
 301.056 1054.72 245.76 1110.02 245.76 1175.55 c 0
331.776 507.904 m 0xd2
 331.776 180.224 419.84 40.96 593.92 40.96 c 0
 720.896 40.96 784.384 190.464 784.384 395.264 c 0
 784.384 720.896 722.944 858.112 518.145 858.112 c 0
 395.264 858.112 331.776 690.176 331.776 507.904 c 0xd2
567.296 -20.4805 m 0
 253.952 -20.4805 63.4883 180.224 63.4883 466.944 c 0
 63.4883 708.608 212.992 921.6 552.96 921.6 c 0
 884.736 921.6 1052.67 729.088 1052.67 442.368 c 0
 1052.67 200.704 905.216 -20.4805 567.296 -20.4805 c 0
EndSplineSet
Fore
Refer: 452 776 S 1 0 0 1 1081 31 2
Refer: 80 111 N 1 0 0 1 0 0 3
Validated: 1
EndChar

StartChar: divide
Encoding: 247 247 183
Width: 970
Flags: MW
LayerCount: 2
Fore
SplineSet
405.5 853.5 m 128,-1,1
 369 890 369 890 369 936.5 c 128,-1,2
 369 983 369 983 400.5 1021 c 128,-1,3
 432 1059 432 1059 479.5 1059 c 128,-1,4
 527 1059 527 1059 564.5 1023.5 c 128,-1,5
 602 988 602 988 602 942 c 128,-1,6
 602 896 602 896 569 856.5 c 128,-1,7
 536 817 536 817 489 817 c 128,-1,0
 442 817 442 817 405.5 853.5 c 128,-1,1
405 280 m 128,-1,9
 369 316 369 316 369 362.5 c 128,-1,10
 369 409 369 409 400.5 447 c 128,-1,11
 432 485 432 485 479.5 485 c 128,-1,12
 527 485 527 485 564.5 450 c 128,-1,13
 602 415 602 415 602 369 c 128,-1,14
 602 323 602 323 569 283.5 c 128,-1,15
 536 244 536 244 488.5 244 c 128,-1,8
 441 244 441 244 405 280 c 128,-1,9
82 696 m 1,16,-1
 889 696 l 1,17,-1
 889 606 l 1,18,-1
 82 606 l 1,19,-1
 82 696 l 1,16,-1
EndSplineSet
Validated: 1
EndChar

StartChar: oslash
Encoding: 248 248 184
Width: 1116
UnlinkRmOvrlpSave: 1
Flags: MW
AnchorPoint: "top" 561 1055 basechar 0
LayerCount: 2
Back
SplineSet
258 66 m 1
 128 156 63 289.667 63 467 c 0
 63 593 102 699 180 785 c 0
 262.667 876.333 387 922 553 922 c 0
 653.667 922 742.334 903.333 819 866 c 1
 893 973 l 1
 948 932 l 1
 879 831 l 1
 994.333 748.333 1052.33 617.667 1053 439 c 0
 1053 313.667 1014.67 207.333 938 120 c 0
 856 26.6667 732.333 -20 567 -20 c 1
 472.333 -20 389 -3 317 31 c 1
 246 -72 l 1
 190 -31 l 1
 258 66 l 1
760 664 m 1
 399 147 l 1
 440.333 76.3333 505.333 41 594 41 c 0
 655.333 41 702.333 73.3333 735 138 c 128
 767.667 202.667 784 289 784 397 c 128
 784 505 776 594 760 664 c 1
731 741 m 1
 691 819 620 858 518 858 c 0
 478.667 858 444.667 841.333 416 808 c 0
 360 742.666 332 646.833 332 520.5 c 128
 332 394.167 343.667 294.333 367 221 c 1
 731 741 l 1
EndSplineSet
Fore
SplineSet
246 -72 m 1
 190 -31 l 1
 893 973 l 1
 948 932 l 1
 246 -72 l 1
EndSplineSet
Refer: 80 111 N 1 0 0 1 0 0 2
EndChar

StartChar: ugrave
Encoding: 249 249 185
Width: 1167
Flags: MW
LayerCount: 2
Back
SplineSet
518.145 1386.5 m 1x14
 628.736 1054.72 l 1
 534.528 1054.72 l 1
 260.096 1386.5 l 1
 518.145 1386.5 l 1x14
1009.66 122.88 m 1xea
 1064.96 118.784 1112.06 114.688 1138.69 114.688 c 1
 1138.69 67.584 l 1
 1058.82 67.584 845.824 -20.4805 753.664 -20.4805 c 1
 753.664 38.9121 l 1
 696.32 6.14355 624.64 -20.4805 544.768 -20.4805 c 0
 286.72 -20.4805 149.504 73.7275 149.504 270.336 c 2
 149.504 817.152 l 1
 137.216 845.824 106.496 858.112 20.4805 858.112 c 1
 20.4805 901.12 l 1
 405.504 901.12 l 1
 405.504 256 l 2
 405.504 143.36 409.6 49.1523 557.056 49.1523 c 0
 632.832 49.1523 700.416 73.7275 753.664 104.448 c 1
 753.664 817.152 l 1
 741.376 845.824 710.656 858.112 624.64 858.112 c 1
 624.64 901.12 l 1
 1009.66 901.12 l 1
 1009.66 122.88 l 1xea
EndSplineSet
Refer: 437 715 N 1 0 0 1 70.656 20.48 2
Refer: 86 117 N 1 0 0 1 0 0 3
Fore
Refer: 444 768 S 1 0 0 1 1096 31 2
Refer: 86 117 N 1 0 0 1 0 0 3
EndChar

StartChar: thorn
Encoding: 254 254 190
Width: 1060
Flags: MW
LayerCount: 2
Fore
SplineSet
373 -309 m 1,0,1
 390 -350 390 -350 502 -350 c 1,2,-1
 502 -393 l 1,3,-1
 -12 -393 l 1,4,-1
 -12 -350 l 1,5,6
 100 -350 100 -350 117 -309 c 1,7,-1
 117 1147 l 1,8,9
 7 1155 7 1155 -12 1155 c 1,10,-1
 -12 1202 l 1,11,12
 27 1202 27 1202 176.5 1246 c 128,-1,13
 326 1290 326 1290 373 1290 c 1,14,-1
 373 860 l 1,15,16
 467 922 467 922 572 922 c 128,-1,17
 677 922 677 922 757.5 888.5 c 128,-1,18
 838 855 838 855 890 801 c 0,19,20
 1001 686 1001 686 1001 547.5 c 128,-1,21
 1001 409 1001 409 955 303 c 0,22,23
 908 196 908 196 824 128 c 0,24,25
 657 -7 657 -7 373 -23 c 1,26,-1
 373 -309 l 1,0,1
735 496 m 0,27,28
 735 852 735 852 563 852 c 0,29,30
 452 852 452 852 373 793 c 1,31,-1
 373 39 l 1,32,33
 546 57 546 57 640.5 164.5 c 128,-1,34
 735 272 735 272 735 496 c 0,27,28
EndSplineSet
Validated: 1
EndChar

StartChar: uni0100
Encoding: 256 256 192
Width: 1159
Flags: MW
LayerCount: 2
Back
SplineSet
299.008 1409.02 m 1
 839.68 1409.02 l 1
 839.68 1298.43 l 1
 299.008 1298.43 l 1
 299.008 1409.02 l 1
673.792 0 m 1
 673.792 43.0078 l 1
 741.376 43.0078 776.192 51.2002 792.576 67.584 c 1
 677.888 380.928 l 1
 284.672 380.928 l 1
 178.176 79.8721 l 1
 192.512 53.248 223.232 43.0078 305.152 43.0078 c 1
 305.152 0 l 1
 -30.7197 0 l 1
 -30.7197 43.0078 l 1
 55.2959 43.0078 88.0645 57.3438 98.3037 86.0156 c 2
 495.616 1198.08 l 1
 661.504 1198.08 l 1
 1062.91 86.0156 l 2
 1073.15 57.3438 1107.97 43.0078 1193.98 43.0078 c 1
 1193.98 0 l 1
 673.792 0 l 1
479.232 925.696 m 1
 309.248 448.512 l 1
 653.312 448.512 l 1
 479.232 925.696 l 1
EndSplineSet
Fore
Refer: 448 772 N 1 0 0 1 1102 246 2
Refer: 34 65 N 1 0 0 1 0 0 3
Validated: 1
EndChar

StartChar: uni0101
Encoding: 257 257 193
Width: 1030
Flags: MW
LayerCount: 2
Back
SplineSet
192.512 1193.98 m 1xf3
 733.184 1193.98 l 1
 733.184 1083.39 l 1
 192.512 1083.39 l 1
 192.512 1193.98 l 1xf3
266.24 749.568 m 1
 299.008 749.568 313.344 712.704 313.344 665.6 c 0
 313.344 614.4 247.808 593.92 204.8 593.92 c 0
 151.552 593.92 100.352 634.88 100.352 696.32 c 0xf7
 100.352 839.68 258.048 921.6 473.088 921.6 c 0
 741.376 921.6 884.736 768 884.736 577.536 c 2
 884.736 172.032 l 2
 884.736 77.8242 923.648 45.0557 958.464 45.0557 c 0
 993.28 45.0557 1028.1 65.5361 1028.1 94.208 c 1
 1064.96 94.208 l 1
 1064.96 18.4316 980.992 -16.3838 839.68 -16.3838 c 0
 784.384 -16.3838 720.896 2.04785 677.888 57.3438 c 1
 616.448 18.4316 524.288 -20.4805 393.216 -20.4805 c 0
 221.184 -20.4805 51.2002 32.7676 51.2002 229.376 c 0xfb
 51.2002 411.648 411.648 450.56 628.736 505.856 c 1
 628.736 737.28 614.4 847.872 452.608 847.872 c 0
 364.544 847.872 280.576 808.96 266.24 749.568 c 1
649.216 106.496 m 1
 636.928 139.264 628.736 178.176 628.736 229.376 c 2
 628.736 460.8 l 1
 493.568 419.84 313.344 376.832 313.344 225.28 c 0xfb
 313.344 86.0156 389.12 49.1523 444.416 49.1523 c 0
 497.664 49.1523 583.68 73.7275 649.216 106.496 c 1
EndSplineSet
Fore
Refer: 448 772 N 1 0 0 1 995 31 2
Refer: 66 97 N 1 0 0 1 0 0 3
Validated: 1
EndChar

StartChar: uni0102
Encoding: 258 258 194
Width: 1159
Flags: MW
LayerCount: 2
Back
SplineSet
581.632 1290.24 m 0
 397.312 1290.24 323.584 1447.94 323.584 1544.19 c 1
 380.928 1544.19 l 1
 399.36 1505.28 444.416 1454.08 581.632 1454.08 c 0
 718.848 1454.08 763.904 1505.28 782.336 1544.19 c 1
 839.68 1544.19 l 1
 839.68 1447.94 768 1290.24 581.632 1290.24 c 0
673.792 0 m 1
 673.792 43.0078 l 1
 741.376 43.0078 776.192 51.2002 792.576 67.584 c 1
 677.888 380.928 l 1
 284.672 380.928 l 1
 178.176 79.8721 l 1
 192.512 53.248 223.232 43.0078 305.152 43.0078 c 1
 305.152 0 l 1
 -30.7197 0 l 1
 -30.7197 43.0078 l 1
 55.2959 43.0078 88.0645 57.3438 98.3037 86.0156 c 2
 495.616 1198.08 l 1
 661.504 1198.08 l 1
 1062.91 86.0156 l 2
 1073.15 57.3438 1107.97 43.0078 1193.98 43.0078 c 1
 1193.98 0 l 1
 673.792 0 l 1
479.232 925.696 m 1
 309.248 448.512 l 1
 653.312 448.512 l 1
 479.232 925.696 l 1
EndSplineSet
Fore
Refer: 438 728 S 1 0 0 1 201 246 2
Refer: 34 65 N 1 0 0 1 0 0 3
Validated: 1
EndChar

StartChar: uni0103
Encoding: 259 259 195
Width: 1030
Flags: MW
LayerCount: 2
Back
SplineSet
475.136 1075.2 m 0xf2c0
 290.816 1075.2 217.088 1232.9 217.088 1329.15 c 1
 274.432 1329.15 l 1
 292.864 1290.24 337.92 1239.04 475.136 1239.04 c 0
 612.352 1239.04 657.408 1290.24 675.84 1329.15 c 1
 733.184 1329.15 l 1
 733.184 1232.9 661.504 1075.2 475.136 1075.2 c 0xf2c0
266.24 749.568 m 1
 299.008 749.568 313.344 712.704 313.344 665.6 c 0
 313.344 614.4 247.808 593.92 204.8 593.92 c 0
 151.552 593.92 100.352 634.88 100.352 696.32 c 0xf540
 100.352 839.68 258.048 921.6 473.088 921.6 c 0
 741.376 921.6 884.736 768 884.736 577.536 c 2
 884.736 172.032 l 2
 884.736 77.8242 923.648 45.0557 958.464 45.0557 c 0
 993.28 45.0557 1028.1 65.5361 1028.1 94.208 c 1
 1064.96 94.208 l 1
 1064.96 18.4316 980.992 -16.3838 839.68 -16.3838 c 0
 784.384 -16.3838 720.896 2.04785 677.888 57.3438 c 1
 616.448 18.4316 524.288 -20.4805 393.216 -20.4805 c 0
 221.184 -20.4805 51.2002 32.7676 51.2002 229.376 c 0
 51.2002 411.648 411.648 450.56 628.736 505.856 c 1xf940
 628.736 737.28 614.4 847.872 452.608 847.872 c 0
 364.544 847.872 280.576 808.96 266.24 749.568 c 1
649.216 106.496 m 1
 636.928 139.264 628.736 178.176 628.736 229.376 c 2
 628.736 460.8 l 1
 493.568 419.84 313.344 376.832 313.344 225.28 c 0xf940
 313.344 86.0156 389.12 49.1523 444.416 49.1523 c 0
 497.664 49.1523 583.68 73.7275 649.216 106.496 c 1
EndSplineSet
Fore
Refer: 438 728 S 1 0 0 1 94 31 2
Refer: 66 97 N 1 0 0 1 0 0 3
Validated: 1
EndChar

StartChar: uni0104
Encoding: 260 260 196
Width: 1159
UnlinkRmOvrlpSave: 1
Flags: MW
AnchorPoint: "top" 582 1270 basechar 0
LayerCount: 2
Back
SplineSet
1012 -0 m 1
 981.333 -26 963.667 -42.6667 959 -50 c 128
 954.333 -57.3333 948.333 -65.5 941 -74.5 c 128
 933.666 -83.5 923.332 -104.333 910 -137 c 128
 896.667 -169.667 890 -200.5 890 -229.5 c 128
 890 -258.5 899.667 -284.167 919 -306.5 c 128
 938.333 -328.833 963.667 -340 995 -340 c 128
 1026.34 -340 1054.67 -331.667 1080 -315 c 1
 1090 -356 l 1
 1050 -392 997.667 -410 933 -410 c 128
 868.333 -410 820 -395.167 788 -365.5 c 128
 756 -335.833 740 -301.333 740 -262 c 0
 740 -153.333 799 -66 917 -0 c 1
 674 0 l 1
 674 43 l 1
 736.668 43 776.335 51.3333 793 68 c 1
 678 381 l 1
 285 381 l 1
 178 80 l 1
 191.333 55.3333 233.667 43 305 43 c 1
 305 0 l 1
 -31 0 l 1
 -31 43 l 1
 44.3333 43 87.3333 57.3333 98 86 c 2
 496 1198 l 1
 662 1198 l 1
 1063 86 l 2
 1073 57.3333 1116.67 43 1194 43 c 1
 1194 0 l 1
 1012 -0 l 1
479 926 m 1
 309 449 l 1
 653 449 l 1
 479 926 l 1
EndSplineSet
Fore
Refer: 441 731 S 1 0 0 1 768 0 2
Refer: 34 65 N 1 0 0 1 0 0 2
Substitution2: "'ss01' Centered Ogonek subtable" uni0104.ss01
EndChar

StartChar: uni0105
Encoding: 261 261 197
Width: 1030
UnlinkRmOvrlpSave: 1
Flags: MW
AnchorPoint: "top" 475 1055 basechar 0
LayerCount: 2
Back
SplineSet
844 -215 m 0
 844 -254.333 853.5 -285 872.5 -307 c 128
 891.5 -329 916.667 -340 948 -340 c 128
 979.333 -340 1007.67 -331.667 1033 -315 c 1
 1043 -356 l 1
 1003 -392 950.833 -410 886.5 -410 c 128
 822.166 -410 773.833 -395.167 741.5 -365.5 c 128
 709.167 -335.833 693 -301.333 693 -262 c 0
 693 -162 743 -80 843 -16 c 1
 840 -16 l 2
 770 -16 716 8.33333 678 57 c 1
 598 5.66667 503 -20 393 -20 c 0
 165 -20 51 63 51 229 c 0
 51 308.333 120 370.333 258 415 c 0
 317.333 434.334 381.167 451.168 449.5 465.5 c 128
 517.833 479.833 577.667 493.333 629 506 c 1
 629 663.333 614.667 759.667 586 795 c 128
 557.333 830.333 516.667 848 464 848 c 128
 411.333 848 366.833 838.833 330.5 820.5 c 128
 294.167 802.167 272.667 778.667 266 750 c 1
 297.333 750 313 722 313 666 c 0
 313 642.664 301.5 624.831 278.5 612.5 c 128
 255.5 600.167 230.667 594 204 594 c 128
 177.333 594 153.333 603.667 132 623 c 128
 110.667 642.333 100 666.667 100 696 c 0
 100 766 134.667 821.167 204 861.5 c 128
 273.333 901.833 367.833 922 487.5 922 c 128
 607.167 922 703.333 889.5 776 824.5 c 128
 848.667 759.5 885 677.333 885 578 c 2
 885 172 l 2
 885 128.667 892.167 96.6666 906.5 76 c 128
 920.833 55.3333 937.5 45 956.5 45 c 128
 975.5 45 992.167 49.6667 1006.5 59 c 128
 1020.83 68.3333 1028 80 1028 94 c 1
 1065 94 l 1
 1064.33 44.6667 1029.33 11.6667 960 -5 c 1
 882.667 -36.3333 844 -106.333 844 -215 c 0
649 106 m 1
 635.667 142.667 629 183.667 629 229 c 2
 629 461 l 1
 538.333 433.667 478.667 413.333 450 400 c 0
 358.667 357.333 313 301.833 313 233.5 c 128
 313 165.167 326.167 117.333 352.5 90 c 128
 378.833 62.6667 407.333 49 438 49 c 0
 502 49 572.333 68 649 106 c 1
EndSplineSet
Fore
Refer: 441 731 N 1 0 0 1 672 0 2
Refer: 66 97 N 1 0 0 1 0 0 2
Substitution2: "'ss01' Centered Ogonek subtable" uni0105.ss01
EndChar

StartChar: uni0106
Encoding: 262 262 198
Width: 1150
Flags: MW
LayerCount: 2
Back
SplineSet
724.992 1601.54 m 1xc8
 983.04 1601.54 l 1
 708.608 1269.76 l 1
 614.4 1269.76 l 1
 724.992 1601.54 l 1xc8
716.8 1148.93 m 0xea
 483.328 1148.93 358.4 937.984 358.4 626.688 c 0
 358.4 245.76 512 49.1523 724.992 49.1523 c 0
 868.352 49.1523 985.088 169.984 1021.95 270.336 c 1
 1105.92 245.76 l 1
 1054.72 122.88 935.936 -20.4805 684.032 -20.4805 c 0
 303.104 -20.4805 73.7275 270.336 73.7275 581.632 c 0
 73.7275 978.944 393.216 1218.56 714.752 1218.56 c 0xea
 819.2 1218.56 923.648 1157.12 962.561 1157.12 c 0
 976.896 1157.12 987.136 1173.5 987.136 1198.08 c 1
 1034.24 1198.08 l 1xdc
 1050.62 909.312 l 1
 1005.57 909.312 l 1
 989.184 1021.95 833.536 1148.93 716.8 1148.93 c 0xea
EndSplineSet
Fore
Refer: 436 714 S 1 0 0 1 555 246 2
Refer: 36 67 N 1 0 0 1 0 0 3
Validated: 1
EndChar

StartChar: uni0107
Encoding: 263 263 199
Width: 985
Flags: MW
LayerCount: 2
Back
SplineSet
571.392 1386.5 m 1
 829.44 1386.5 l 1
 555.008 1054.72 l 1
 460.8 1054.72 l 1
 571.392 1386.5 l 1
561.152 860.16 m 0
 436.224 860.16 329.729 724.992 329.729 503.808 c 0
 329.729 270.336 432.128 57.3438 595.968 57.3438 c 0
 714.752 57.3438 792.576 98.3037 856.064 204.8 c 1
 931.84 167.936 l 1
 854.016 40.96 739.328 -20.4805 526.336 -20.4805 c 0
 337.92 -20.4805 63.4883 81.9199 63.4883 495.616 c 0
 63.4883 724.992 258.048 921.6 540.672 921.6 c 0
 755.712 921.6 909.312 847.872 909.312 704.512 c 0
 909.312 643.072 880.64 587.776 806.912 587.776 c 0
 741.376 587.776 698.368 622.592 698.368 673.792 c 0
 698.368 737.28 737.28 757.76 770.048 757.76 c 1
 749.568 837.632 667.648 860.16 561.152 860.16 c 0
EndSplineSet
Fore
Refer: 436 714 N 1 0 0 1 401 31 2
Refer: 68 99 N 1 0 0 1 0 0 3
Validated: 1
EndChar

StartChar: uni0108
Encoding: 264 264 200
Width: 1150
Flags: MW
LayerCount: 2
Back
SplineSet
755.712 1601.54 m 1xc8
 948.224 1269.76 l 1
 874.496 1269.76 l 1
 704.512 1406.98 l 1
 534.528 1269.76 l 1
 460.8 1269.76 l 1
 653.312 1601.54 l 1
 755.712 1601.54 l 1xc8
716.8 1148.93 m 0xea
 483.328 1148.93 358.4 937.984 358.4 626.688 c 0
 358.4 245.76 512 49.1523 724.992 49.1523 c 0
 868.352 49.1523 985.088 169.984 1021.95 270.336 c 1
 1105.92 245.76 l 1
 1054.72 122.88 935.936 -20.4805 684.032 -20.4805 c 0
 303.104 -20.4805 73.7275 270.336 73.7275 581.632 c 0
 73.7275 978.944 393.216 1218.56 714.752 1218.56 c 0xea
 819.2 1218.56 923.648 1157.12 962.561 1157.12 c 0
 976.896 1157.12 987.136 1173.5 987.136 1198.08 c 1
 1034.24 1198.08 l 1xdc
 1050.62 909.312 l 1
 1005.57 909.312 l 1
 989.184 1021.95 833.536 1148.93 716.8 1148.93 c 0xea
EndSplineSet
Fore
Refer: 434 710 N 1 0 0 1 338 246 2
Refer: 36 67 N 1 0 0 1 0 0 3
Validated: 1
EndChar

StartChar: uni0109
Encoding: 265 265 201
Width: 985
Flags: MW
LayerCount: 2
Back
SplineSet
602.112 1386.5 m 1
 794.624 1054.72 l 1
 720.896 1054.72 l 1
 550.912 1191.94 l 1
 380.928 1054.72 l 1
 307.2 1054.72 l 1
 499.712 1386.5 l 1
 602.112 1386.5 l 1
561.152 860.16 m 0
 436.224 860.16 329.729 724.992 329.729 503.808 c 0
 329.729 270.336 432.128 57.3438 595.968 57.3438 c 0
 714.752 57.3438 792.576 98.3037 856.064 204.8 c 1
 931.84 167.936 l 1
 854.016 40.96 739.328 -20.4805 526.336 -20.4805 c 0
 337.92 -20.4805 63.4883 81.9199 63.4883 495.616 c 0
 63.4883 724.992 258.048 921.6 540.672 921.6 c 0
 755.712 921.6 909.312 847.872 909.312 704.512 c 0
 909.312 643.072 880.64 587.776 806.912 587.776 c 0
 741.376 587.776 698.368 622.592 698.368 673.792 c 0
 698.368 737.28 737.28 757.76 770.048 757.76 c 1
 749.568 837.632 667.648 860.16 561.152 860.16 c 0
EndSplineSet
Fore
Refer: 434 710 N 1 0 0 1 184 31 2
Refer: 68 99 N 1 0 0 1 0 0 3
Validated: 1
EndChar

StartChar: uni010A
Encoding: 266 266 202
Width: 1150
Flags: MW
LayerCount: 2
Back
SplineSet
579.584 1396.74 m 0xce
 579.584 1466.37 634.88 1521.66 704.512 1521.66 c 0
 774.145 1521.66 829.44 1466.37 829.44 1396.74 c 0
 829.44 1327.1 774.145 1271.81 704.512 1271.81 c 0
 634.88 1271.81 579.584 1327.1 579.584 1396.74 c 0xce
716.8 1148.93 m 0xee80
 483.328 1148.93 358.4 937.984 358.4 626.688 c 0
 358.4 245.76 512 49.1523 724.992 49.1523 c 0
 868.352 49.1523 985.088 169.984 1021.95 270.336 c 1
 1105.92 245.76 l 1
 1054.72 122.88 935.936 -20.4805 684.032 -20.4805 c 0
 303.104 -20.4805 73.7275 270.336 73.7275 581.632 c 0
 73.7275 978.944 393.216 1218.56 714.752 1218.56 c 0xee80
 819.2 1218.56 923.648 1157.12 962.561 1157.12 c 0
 976.896 1157.12 987.136 1173.5 987.136 1198.08 c 1
 1034.24 1198.08 l 1xdf
 1050.62 909.312 l 1
 1005.57 909.312 l 1
 989.184 1021.95 833.536 1148.93 716.8 1148.93 c 0xee80
EndSplineSet
Fore
Refer: 439 729 N 1 0 0 1 481 246 2
Refer: 36 67 N 1 0 0 1 0 0 3
Validated: 1
EndChar

StartChar: uni010B
Encoding: 267 267 203
Width: 985
Flags: MW
LayerCount: 2
Back
SplineSet
425.984 1181.7 m 0
 425.984 1251.33 481.28 1306.62 550.912 1306.62 c 0
 620.544 1306.62 675.84 1251.33 675.84 1181.7 c 0
 675.84 1112.06 620.544 1056.77 550.912 1056.77 c 0
 481.28 1056.77 425.984 1112.06 425.984 1181.7 c 0
561.152 860.16 m 0
 436.224 860.16 329.729 724.992 329.729 503.808 c 0
 329.729 270.336 432.128 57.3438 595.968 57.3438 c 0
 714.752 57.3438 792.576 98.3037 856.064 204.8 c 1
 931.84 167.936 l 1
 854.016 40.96 739.328 -20.4805 526.336 -20.4805 c 0
 337.92 -20.4805 63.4883 81.9199 63.4883 495.616 c 0
 63.4883 724.992 258.048 921.6 540.672 921.6 c 0
 755.712 921.6 909.312 847.872 909.312 704.512 c 0
 909.312 643.072 880.64 587.776 806.912 587.776 c 0
 741.376 587.776 698.368 622.592 698.368 673.792 c 0
 698.368 737.28 737.28 757.76 770.048 757.76 c 1
 749.568 837.632 667.648 860.16 561.152 860.16 c 0
EndSplineSet
Fore
Refer: 439 729 N 1 0 0 1 328 31 2
Refer: 68 99 N 1 0 0 1 0 0 3
Validated: 1
EndChar

StartChar: uni010C
Encoding: 268 268 204
Width: 1150
Flags: MW
LayerCount: 2
Back
SplineSet
655.36 1269.76 m 1xc8
 462.848 1601.54 l 1
 536.576 1601.54 l 1
 706.561 1443.84 l 1
 876.544 1601.54 l 1
 950.272 1601.54 l 1
 757.76 1269.76 l 1
 655.36 1269.76 l 1xc8
716.8 1148.93 m 0xea
 483.328 1148.93 358.4 937.984 358.4 626.688 c 0
 358.4 245.76 512 49.1523 724.992 49.1523 c 0
 868.352 49.1523 985.088 169.984 1021.95 270.336 c 1
 1105.92 245.76 l 1
 1054.72 122.88 935.936 -20.4805 684.032 -20.4805 c 0
 303.104 -20.4805 73.7275 270.336 73.7275 581.632 c 0
 73.7275 978.944 393.216 1218.56 714.752 1218.56 c 0xea
 819.2 1218.56 923.648 1157.12 962.561 1157.12 c 0
 976.896 1157.12 987.136 1173.5 987.136 1198.08 c 1
 1034.24 1198.08 l 1xdc
 1050.62 909.312 l 1
 1005.57 909.312 l 1
 989.184 1021.95 833.536 1148.93 716.8 1148.93 c 0xea
EndSplineSet
Fore
Refer: 435 711 N 1 0 0 1 340 246 2
Refer: 36 67 N 1 0 0 1 0 0 3
Validated: 1
EndChar

StartChar: uni010D
Encoding: 269 269 205
Width: 985
Flags: MW
LayerCount: 2
Back
SplineSet
501.76 1054.72 m 1
 309.248 1386.5 l 1
 382.976 1386.5 l 1
 552.96 1228.8 l 1
 722.944 1386.5 l 1
 796.672 1386.5 l 1
 604.16 1054.72 l 1
 501.76 1054.72 l 1
561.152 860.16 m 0
 436.224 860.16 329.729 724.992 329.729 503.808 c 0
 329.729 270.336 432.128 57.3438 595.968 57.3438 c 0
 714.752 57.3438 792.576 98.3037 856.064 204.8 c 1
 931.84 167.936 l 1
 854.016 40.96 739.328 -20.4805 526.336 -20.4805 c 0
 337.92 -20.4805 63.4883 81.9199 63.4883 495.616 c 0
 63.4883 724.992 258.048 921.6 540.672 921.6 c 0
 755.712 921.6 909.312 847.872 909.312 704.512 c 0
 909.312 643.072 880.64 587.776 806.912 587.776 c 0
 741.376 587.776 698.368 622.592 698.368 673.792 c 0
 698.368 737.28 737.28 757.76 770.048 757.76 c 1
 749.568 837.632 667.648 860.16 561.152 860.16 c 0
EndSplineSet
Fore
Refer: 435 711 N 1 0 0 1 186 31 2
Refer: 68 99 N 1 0 0 1 0 0 3
Validated: 1
EndChar

StartChar: uni010E
Encoding: 270 270 206
Width: 1255
Flags: MW
LayerCount: 2
Back
SplineSet
518.145 1269.76 m 1x0c
 325.632 1601.54 l 1
 399.36 1601.54 l 1
 569.344 1443.84 l 1
 739.328 1601.54 l 1
 813.056 1601.54 l 1
 620.544 1269.76 l 1
 518.145 1269.76 l 1x0c
73.7275 -2.04785 m 1x4c
 73.7275 40.96 l 1
 159.744 40.96 190.464 53.248 202.752 81.9199 c 1
 202.752 1112.06 l 1
 190.464 1140.74 159.744 1153.02 73.7275 1153.02 c 1
 73.7275 1196.03 l 1x5c
 544.768 1196.03 l 2
 911.36 1196.03 1179.65 952.32 1179.65 600.064 c 0
 1179.65 243.712 911.36 -2.04785 569.344 -2.04785 c 2xac
 73.7275 -2.04785 l 1x4c
462.848 1136.64 m 1xac
 462.848 67.584 l 1
 569.344 67.584 l 2
 733.184 67.584 903.168 210.944 903.168 598.016 c 0
 903.168 980.992 733.184 1136.64 544.768 1136.64 c 2
 462.848 1136.64 l 1xac
EndSplineSet
Fore
Refer: 435 711 N 1 0 0 1 203 246 2
Refer: 37 68 N 1 0 0 1 0 0 3
Validated: 1
EndChar

StartChar: uni010F
Encoding: 271 271 207
Width: 1181
Flags: MW
LayerCount: 2
Back
SplineSet
768 880.64 m 1xd7c0
 768 1146.88 l 1
 712.704 1150.98 665.6 1155.07 638.976 1155.07 c 1
 638.976 1202.18 l 1
 718.848 1202.18 931.84 1290.24 1024 1290.24 c 1
 1024 122.88 l 1
 1079.3 118.784 1126.4 114.688 1153.02 114.688 c 1
 1153.02 67.584 l 1
 1073.15 67.584 860.16 -20.4805 768 -20.4805 c 1
 768 47.1035 l 1
 714.752 10.2402 636.928 -20.4805 522.24 -20.4805 c 0
 362.496 -20.4805 63.4883 81.9199 63.4883 454.656 c 0
 63.4883 770.048 301.056 929.792 567.296 929.792 c 0
 657.408 929.792 722.944 907.264 768 880.64 c 1xd7c0
768 815.104 m 1
 729.088 837.632 669.696 860.16 579.584 860.16 c 0
 473.088 860.16 329.729 720.896 329.729 454.656 c 0
 329.729 217.088 444.416 49.1523 542.72 49.1523 c 0
 653.312 49.1523 722.944 79.8721 768 114.688 c 1
 768 815.104 l 1
1208.32 1101.82 m 0
 1140.74 1101.82 1093.63 1136.64 1093.63 1202.18 c 0xc5c0
 1093.63 1298.43 1185.79 1300.48 1198.08 1300.48 c 0
 1306.62 1300.48 1396.74 1226.75 1396.74 1112.06 c 0
 1396.74 927.744 1189.89 866.304 1122.3 845.824 c 1
 1122.3 925.696 l 1
 1187.84 933.888 1282.05 1001.47 1282.05 1087.49 c 0
 1282.05 1120.26 1275.9 1128.45 1271.81 1128.45 c 0xe9c0
 1267.71 1128.45 1245.18 1101.82 1208.32 1101.82 c 0
EndSplineSet
Fore
Refer: 727 789 S 1 0 0 1 1368 -235 2
Refer: 69 100 N 1 0 0 1 0 0 2
Validated: 1
EndChar

StartChar: uni0110
Encoding: 272 272 208
Width: 1255
UnlinkRmOvrlpSave: 1
Flags: MW
LayerCount: 2
Back
SplineSet
203 1112 m 1
 191.667 1139.33 148.667 1153 74 1153 c 1
 74 1196 l 1
 545 1196 l 2
 666.333 1196 775.167 1171 871.5 1121 c 128
 967.833 1071 1043.33 1000.5 1098 909.5 c 128
 1152.67 818.5 1180 715.167 1180 599.5 c 128
 1180 483.833 1152.83 379.833 1098.5 287.5 c 128
 1044.17 195.167 970.667 123.833 878 73.5 c 128
 785.333 23.1667 682.333 -2 569 -2 c 2
 74 -2 l 1
 74 41 l 1
 148.667 41 191.667 54.6667 203 82 c 1
 203 551 l 1
 78 551 l 5
 78 641 l 5
 203 641 l 1
 203 1112 l 1
463 551 m 1
 463 68 l 1
 569 68 l 2
 682.333 68 770.333 126.667 833 244 c 0
 879.667 331.333 903 449.333 903 598 c 0
 902.333 863.334 828 1032.67 680 1106 c 0
 638.667 1126.67 593.667 1137 545 1137 c 2
 463 1137 l 1
 463 641 l 1
 737 641 l 5
 737 551 l 5
 463 551 l 1
EndSplineSet
Fore
SplineSet
78 551 m 1
 78 641 l 1
 737 641 l 1
 737 551 l 1
 78 551 l 1
EndSplineSet
Refer: 37 68 N 1 0 0 1 0 0 2
EndChar

